<svg width="237" height="70" viewBox="0 0 237 70" fill="none" xmlns="http://www.w3.org/2000/svg">
<path d="M3.96 55V25.41H12.54V55H3.96ZM8.25 21.285C6.67333 21.285 5.39 20.8267 4.4 19.91C3.41 18.9933 2.915 17.8567 2.915 16.5C2.915 15.1433 3.41 14.0067 4.4 13.09C5.39 12.1733 6.67333 11.715 8.25 11.715C9.82667 11.715 11.11 12.155 12.1 13.035C13.09 13.8783 13.585 14.9783 13.585 16.335C13.585 17.765 13.09 18.9567 12.1 19.91C11.1467 20.8267 9.86333 21.285 8.25 21.285ZM20.503 55V25.41H28.698V33.77L27.543 31.35C28.423 29.26 29.8346 27.6833 31.778 26.62C33.7213 25.52 36.0863 24.97 38.873 24.97V32.89C38.5063 32.8533 38.1763 32.835 37.883 32.835C37.5896 32.7983 37.278 32.78 36.948 32.78C34.6013 32.78 32.6946 33.4583 31.228 34.815C29.798 36.135 29.083 38.2067 29.083 41.03V55H20.503ZM57.8398 55.44C54.6865 55.44 51.8815 54.78 49.4248 53.46C47.0048 52.14 45.0798 50.3433 43.6498 48.07C42.2565 45.76 41.5598 43.1383 41.5598 40.205C41.5598 37.235 42.2565 34.6133 43.6498 32.34C45.0798 30.03 47.0048 28.2333 49.4248 26.95C51.8815 25.63 54.6865 24.97 57.8398 24.97C60.9565 24.97 63.7431 25.63 66.1998 26.95C68.6565 28.2333 70.5815 30.0117 71.9748 32.285C73.3681 34.5583 74.0648 37.1983 74.0648 40.205C74.0648 43.1383 73.3681 45.76 71.9748 48.07C70.5815 50.3433 68.6565 52.14 66.1998 53.46C63.7431 54.78 60.9565 55.44 57.8398 55.44ZM57.8398 48.4C59.2698 48.4 60.5531 48.07 61.6898 47.41C62.8265 46.75 63.7248 45.815 64.3848 44.605C65.0448 43.3583 65.3748 41.8917 65.3748 40.205C65.3748 38.4817 65.0448 37.015 64.3848 35.805C63.7248 34.595 62.8265 33.66 61.6898 33C60.5531 32.34 59.2698 32.01 57.8398 32.01C56.4098 32.01 55.1265 32.34 53.9898 33C52.8531 33.66 51.9365 34.595 51.2398 35.805C50.5798 37.015 50.2498 38.4817 50.2498 40.205C50.2498 41.8917 50.5798 43.3583 51.2398 44.605C51.9365 45.815 52.8531 46.75 53.9898 47.41C55.1265 48.07 56.4098 48.4 57.8398 48.4ZM109.676 55.44C106.486 55.44 103.644 54.7983 101.151 53.515C98.6577 52.195 96.696 50.38 95.266 48.07C93.8727 45.76 93.176 43.1383 93.176 40.205C93.176 37.235 93.8727 34.6133 95.266 32.34C96.696 30.03 98.6577 28.2333 101.151 26.95C103.644 25.63 106.486 24.97 109.676 24.97C112.793 24.97 115.506 25.63 117.816 26.95C120.126 28.2333 121.831 30.085 122.931 32.505L116.276 36.08C115.506 34.6867 114.534 33.66 113.361 33C112.224 32.34 110.978 32.01 109.621 32.01C108.154 32.01 106.834 32.34 105.661 33C104.488 33.66 103.553 34.595 102.856 35.805C102.196 37.015 101.866 38.4817 101.866 40.205C101.866 41.9283 102.196 43.395 102.856 44.605C103.553 45.815 104.488 46.75 105.661 47.41C106.834 48.07 108.154 48.4 109.621 48.4C110.978 48.4 112.224 48.0883 113.361 47.465C114.534 46.805 115.506 45.76 116.276 44.33L122.931 47.96C121.831 50.3433 120.126 52.195 117.816 53.515C115.506 54.7983 112.793 55.44 109.676 55.44ZM141.575 55.44C138.422 55.44 135.617 54.78 133.16 53.46C130.74 52.14 128.815 50.3433 127.385 48.07C125.992 45.76 125.295 43.1383 125.295 40.205C125.295 37.235 125.992 34.6133 127.385 32.34C128.815 30.03 130.74 28.2333 133.16 26.95C135.617 25.63 138.422 24.97 141.575 24.97C144.692 24.97 147.478 25.63 149.935 26.95C152.392 28.2333 154.317 30.0117 155.71 32.285C157.103 34.5583 157.8 37.1983 157.8 40.205C157.8 43.1383 157.103 45.76 155.71 48.07C154.317 50.3433 152.392 52.14 149.935 53.46C147.478 54.78 144.692 55.44 141.575 55.44ZM141.575 48.4C143.005 48.4 144.288 48.07 145.425 47.41C146.562 46.75 147.46 45.815 148.12 44.605C148.78 43.3583 149.11 41.8917 149.11 40.205C149.11 38.4817 148.78 37.015 148.12 35.805C147.46 34.595 146.562 33.66 145.425 33C144.288 32.34 143.005 32.01 141.575 32.01C140.145 32.01 138.862 32.34 137.725 33C136.588 33.66 135.672 34.595 134.975 35.805C134.315 37.015 133.985 38.4817 133.985 40.205C133.985 41.8917 134.315 43.3583 134.975 44.605C135.672 45.815 136.588 46.75 137.725 47.41C138.862 48.07 140.145 48.4 141.575 48.4ZM164.58 55V24.75C164.58 21.4133 165.57 18.755 167.55 16.775C169.53 14.7583 172.354 13.75 176.02 13.75C177.267 13.75 178.459 13.8783 179.595 14.135C180.769 14.3917 181.759 14.795 182.565 15.345L180.31 21.56C179.834 21.23 179.302 20.9733 178.715 20.79C178.129 20.6067 177.505 20.515 176.845 20.515C175.599 20.515 174.627 20.8817 173.93 21.615C173.27 22.3117 172.94 23.375 172.94 24.805V27.555L173.16 31.24V55H164.58ZM160.015 32.67V26.07H180.53V32.67H160.015ZM186.279 55V24.75C186.279 21.4133 187.269 18.755 189.249 16.775C191.229 14.7583 194.053 13.75 197.719 13.75C198.966 13.75 200.158 13.8783 201.294 14.135C202.468 14.3917 203.458 14.795 204.264 15.345L202.009 21.56C201.533 21.23 201.001 20.9733 200.414 20.79C199.828 20.6067 199.204 20.515 198.544 20.515C197.298 20.515 196.326 20.8817 195.629 21.615C194.969 22.3117 194.639 23.375 194.639 24.805V27.555L194.859 31.24V55H186.279ZM181.714 32.67V26.07H202.229V32.67H181.714ZM220.813 55.44C217.44 55.44 214.47 54.78 211.903 53.46C209.373 52.14 207.411 50.3433 206.018 48.07C204.625 45.76 203.928 43.1383 203.928 40.205C203.928 37.235 204.606 34.6133 205.963 32.34C207.356 30.03 209.245 28.2333 211.628 26.95C214.011 25.63 216.706 24.97 219.713 24.97C222.61 24.97 225.213 25.5933 227.523 26.84C229.87 28.05 231.721 29.81 233.078 32.12C234.435 34.3933 235.113 37.125 235.113 40.315C235.113 40.645 235.095 41.03 235.058 41.47C235.021 41.8733 234.985 42.2583 234.948 42.625H210.913V37.62H230.438L227.138 39.105C227.138 37.565 226.826 36.2267 226.203 35.09C225.58 33.9533 224.718 33.0733 223.618 32.45C222.518 31.79 221.235 31.46 219.768 31.46C218.301 31.46 217 31.79 215.863 32.45C214.763 33.0733 213.901 33.9717 213.278 35.145C212.655 36.2817 212.343 37.6383 212.343 39.215V40.535C212.343 42.1483 212.691 43.5783 213.388 44.825C214.121 46.035 215.13 46.97 216.413 47.63C217.733 48.2533 219.273 48.565 221.033 48.565C222.61 48.565 223.985 48.3267 225.158 47.85C226.368 47.3733 227.468 46.6583 228.458 45.705L233.023 50.655C231.666 52.195 229.961 53.3867 227.908 54.23C225.855 55.0367 223.49 55.44 220.813 55.44Z" fill="white"/>
</svg>
