<svg width="150" height="122" viewBox="0 0 150 122" fill="none" xmlns="http://www.w3.org/2000/svg">
<path d="M150 14.4813C144.481 16.9313 138.55 18.5813 132.325 19.325C138.681 15.5188 143.562 9.48755 145.856 2.30005C139.913 5.82505 133.325 8.38755 126.312 9.7688C120.706 3.78755 112.7 0.0500488 103.85 0.0500488C83.9812 0.0500488 69.3812 18.5875 73.8688 37.8313C48.3 36.55 25.625 24.3 10.4438 5.6813C2.38125 19.5125 6.2625 37.6063 19.9625 46.7688C14.925 46.6063 10.175 45.2251 6.03125 42.9188C5.69375 57.175 15.9125 70.5125 30.7125 73.4813C26.3813 74.6563 21.6375 74.9313 16.8125 74.0063C20.725 86.2313 32.0875 95.125 45.5625 95.375C32.625 105.519 16.325 110.05 0 108.125C13.6187 116.856 29.8 121.95 47.175 121.95C104.312 121.95 136.594 73.6938 134.644 30.4125C140.656 26.0688 145.875 20.6501 150 14.4813Z" fill="#00ACEE"/>
</svg>
