<svg width="100" height="100" viewBox="0 0 100 100" fill="none" xmlns="http://www.w3.org/2000/svg">
<path d="M92.8607 54.6752C92.7514 55.5564 92.4851 56.3054 92.062 56.922C91.6458 57.5476 91.098 57.9998 90.4185 58.2784C89.746 58.5659 88.9889 58.6576 88.1473 58.5534C87.3058 58.4492 86.598 58.1762 86.024 57.7343C85.4491 57.3003 85.0363 56.7293 84.7856 56.0211C84.5418 55.3219 84.4746 54.5316 84.5839 53.6504L84.9193 50.9471L93.1961 51.9719L92.8607 54.6752ZM85.6915 53.7875C85.5713 54.7561 85.7412 55.5308 86.2012 56.1118C86.6611 56.6927 87.3675 57.0421 88.3202 57.1601C89.2809 57.279 90.0632 57.1139 90.6671 56.6647C91.271 56.2155 91.633 55.5066 91.7532 54.538L91.9202 53.1924L85.8584 52.4418L85.6915 53.7875Z" fill="url(#paint0_linear_259_5312)"/>
<path d="M82.463 62.1274C82.6824 61.5432 83.0118 61.0644 83.4512 60.6908C83.8981 60.3201 84.4119 60.0898 84.9926 59.9999C85.5808 59.9128 86.1933 59.9886 86.83 60.2272C87.4592 60.4631 87.9653 60.8108 88.3481 61.2704C88.731 61.73 88.9635 62.2486 89.0456 62.8262C89.1278 63.4038 89.0577 63.9884 88.8355 64.58C88.6133 65.1717 88.281 65.658 87.8388 66.039C87.3966 66.4201 86.88 66.6579 86.289 66.7525C85.698 66.8471 85.0878 66.7764 84.4586 66.5406C83.8293 66.3047 83.3247 65.9532 82.9447 65.4861C82.5647 65.019 82.3326 64.4878 82.2486 63.8924C82.1693 63.3074 82.2407 62.719 82.463 62.1274ZM83.5754 62.5443C83.4516 62.8739 83.4149 63.2104 83.4653 63.5539C83.5129 63.905 83.6603 64.2293 83.9074 64.527C84.1545 64.8247 84.5028 65.0577 84.9523 65.2262C85.4017 65.3947 85.8124 65.4504 86.1842 65.3932C86.5636 65.3389 86.8853 65.1989 87.1495 64.9733C87.4137 64.7477 87.6077 64.4701 87.7315 64.1406C87.8553 63.8111 87.892 63.4746 87.8415 63.131C87.7883 62.7949 87.6353 62.4856 87.3826 62.2029C87.1373 61.923 86.79 61.6988 86.3405 61.5303C85.6738 61.2804 85.0936 61.2552 84.6 61.4546C84.111 61.6644 83.7695 62.0276 83.5754 62.5443Z" fill="url(#paint1_linear_259_5312)"/>
<path d="M80.7237 78.0867L76.5625 72.5562L77.4059 71.389L82.1475 73.166L78.9662 69.2298L79.8096 68.0626L86.3816 70.2569L85.5663 71.3852L80.4461 69.3945L83.9357 73.6417L83.0993 74.7992L78.0197 72.7933L81.5109 76.9973L80.7237 78.0867Z" fill="url(#paint2_linear_259_5312)"/>
<path d="M75.5042 82.6774C75.0973 83.0012 74.6669 83.2057 74.213 83.2908C73.7528 83.381 73.2998 83.3326 72.8539 83.1455C72.408 82.9585 71.998 82.6304 71.6239 82.1613L69.1924 79.1121L70.2534 78.2678L72.5578 81.1575C72.9269 81.6203 73.3245 81.8815 73.7506 81.9412C74.1818 82.007 74.5976 81.8806 74.9983 81.5618C75.3989 81.243 75.6184 80.8638 75.6568 80.4243C75.6939 79.9961 75.5279 79.5506 75.1588 79.0877L72.8544 76.198L73.9248 75.3462L78.0473 80.5157L76.9768 81.3676L76.5055 80.7765C76.4998 81.1286 76.4097 81.4712 76.2353 81.8043C76.0547 82.1423 75.811 82.4333 75.5042 82.6774Z" fill="url(#paint3_linear_259_5312)"/>
<path d="M70.1553 88.6883L65.8914 80.899L67.092 80.2432L71.3559 88.0325L70.1553 88.6883Z" fill="url(#paint4_linear_259_5312)"/>
<path d="M61.3314 82.7277C61.9205 82.5219 62.4992 82.468 63.0675 82.5661C63.6385 82.6717 64.1445 82.9186 64.5856 83.3069C65.0293 83.7027 65.3635 84.2215 65.5882 84.8633C65.8102 85.4975 65.8674 86.1089 65.7598 86.6973C65.6522 87.2857 65.403 87.7965 65.0121 88.2296C64.6213 88.6627 64.1275 88.9835 63.5309 89.192C62.9343 89.4004 62.348 89.4569 61.7721 89.3615C61.1963 89.2661 60.6827 89.0218 60.2314 88.6286C59.7802 88.2354 59.4435 87.7217 59.2215 87.0875C58.9994 86.4532 58.946 85.8406 59.0612 85.2495C59.1763 84.6585 59.4356 84.1399 59.8389 83.694C60.2373 83.2582 60.7348 82.9361 61.3314 82.7277ZM61.724 83.849C61.3917 83.965 61.1098 84.1525 60.8783 84.4113C60.6393 84.6728 60.4846 84.9937 60.4144 85.3742C60.3441 85.7546 60.3883 86.1714 60.5469 86.6244C60.7055 87.0775 60.9259 87.4284 61.208 87.6773C61.4927 87.9338 61.8063 88.0911 62.1488 88.1495C62.4913 88.2078 62.8287 88.1789 63.161 88.0628C63.4933 87.9467 63.7752 87.7592 64.0067 87.5004C64.2306 87.2442 64.3702 86.9285 64.4253 86.5534C64.4831 86.1857 64.4326 85.7754 64.274 85.3224C64.0388 84.6504 63.6865 84.1887 63.2171 83.9375C62.7428 83.6964 62.2451 83.6669 61.724 83.849Z" fill="url(#paint5_linear_259_5312)"/>
<path d="M57.175 87.5675C57.2389 88.2284 57.1602 88.8267 56.9388 89.3625C56.7094 89.899 56.3733 90.3293 55.9305 90.6534C55.4805 90.9862 54.9688 91.1803 54.3955 91.2357C53.8779 91.2857 53.4179 91.2256 53.0157 91.0555C52.6062 90.8941 52.2714 90.6733 52.0112 90.393L52.1037 91.3486L50.7301 91.4813L50.093 84.9L51.4666 84.7673L51.5614 85.7468C51.7623 85.4139 52.0518 85.1247 52.4299 84.8792C52.808 84.6337 53.2518 84.4864 53.7615 84.4372C54.3268 84.3825 54.8583 84.4759 55.3559 84.7172C55.8542 84.9664 56.2678 85.3363 56.5966 85.827C56.9182 86.3264 57.111 86.9065 57.175 87.5675ZM51.7857 88.0639C51.8297 88.5178 51.9634 88.9027 52.1869 89.2187C52.4024 89.5355 52.6699 89.7668 52.9895 89.9128C53.309 90.0587 53.644 90.1148 53.9943 90.0809C54.3447 90.0471 54.6627 89.9279 54.9483 89.7235C55.2347 89.5271 55.4573 89.2524 55.6161 88.8995C55.7676 88.5553 55.8214 88.1563 55.7775 87.7024C55.7335 87.2486 55.6034 86.8593 55.3871 86.5346C55.1629 86.2106 54.8906 85.9717 54.5703 85.8178C54.2427 85.6726 53.9078 85.6166 53.5654 85.6496C53.215 85.6835 52.897 85.8026 52.6114 86.007C52.3257 86.2114 52.1075 86.4897 51.9568 86.8418C51.7988 87.2027 51.7418 87.61 51.7857 88.0639Z" fill="url(#paint6_linear_259_5312)"/>
<path d="M47.4775 88.1743C47.3755 88.8304 47.1508 89.3906 46.8034 89.8548C46.4481 90.3178 46.0157 90.6515 45.5063 90.8558C44.9877 91.0669 44.4399 91.1276 43.8628 91.0381C43.4359 90.9719 43.0316 90.8121 42.65 90.5586C42.2593 90.3118 41.9654 90.0152 41.7682 89.6689L41.278 92.8231L39.9143 92.6116L41.278 83.8369L42.6417 84.0484L42.4888 85.0326C42.7593 84.7507 43.1081 84.5377 43.5353 84.3934C43.9546 84.248 44.4173 84.2145 44.9232 84.293C45.4924 84.3812 45.9921 84.6044 46.4222 84.9626C46.8431 85.3274 47.152 85.7882 47.3489 86.3449C47.5366 86.9084 47.5794 87.5181 47.4775 88.1743ZM42.1331 87.3211C42.0631 87.7717 42.0971 88.1777 42.2352 88.5392C42.3655 88.8994 42.5673 89.1897 42.8407 89.4102C43.114 89.6307 43.4247 89.768 43.7725 89.8219C44.1203 89.8759 44.458 89.8392 44.7854 89.7118C45.1116 89.5924 45.3954 89.3814 45.6367 89.0788C45.8689 88.7829 46.02 88.4097 46.0901 87.9591C46.1601 87.5085 46.1306 87.0991 46.0016 86.731C45.8647 86.3617 45.6602 86.0628 45.388 85.8344C45.1067 85.6127 44.7961 85.4754 44.4562 85.4227C44.1083 85.3688 43.7707 85.4055 43.4433 85.5328C43.1158 85.6601 42.8354 85.8757 42.602 86.1795C42.3594 86.49 42.2031 86.8705 42.1331 87.3211Z" fill="url(#paint7_linear_259_5312)"/>
<path d="M29.3186 86.0355C28.8781 85.7906 28.5391 85.4786 28.3015 85.0994C28.057 84.7164 27.9401 84.2852 27.9506 83.806C27.9542 83.3229 28.1019 82.8192 28.3939 82.2951L30.2918 78.888L31.477 79.5468L29.6784 82.7757C29.3903 83.2928 29.2997 83.7596 29.4066 84.176C29.5096 84.5994 29.7848 84.9354 30.2323 85.1842C30.6799 85.4329 31.1143 85.4914 31.5358 85.3595C31.9463 85.2308 32.2956 84.9078 32.5837 84.3906L34.3823 81.1618L35.578 81.8264L31.2567 89.584L30.061 88.9194L31.5384 86.2671C31.1994 86.399 30.839 86.4459 30.4574 86.4076C30.0688 86.3655 29.6892 86.2415 29.3186 86.0355Z" fill="url(#paint8_linear_259_5312)"/>
<path d="M21.5216 75.8687C21.6899 75.6866 21.8537 75.5329 22.013 75.4077L25.727 78.8325C26.0559 78.4176 26.1996 77.9733 26.158 77.4997C26.1164 77.026 25.9074 76.6157 25.531 76.2686C24.9899 75.7696 24.3986 75.6433 23.757 75.8897L22.6719 74.8891C23.2316 74.5781 23.8385 74.4577 24.4927 74.5277C25.1356 74.5982 25.7423 74.8964 26.3128 75.4225C26.7774 75.8509 27.1 76.3388 27.2805 76.8861C27.4496 77.4339 27.4663 77.9934 27.3306 78.5646C27.1835 79.1364 26.8792 79.6719 26.4177 80.1713C25.9562 80.6708 25.4518 81.0163 24.9043 81.2079C24.3456 81.4 23.7889 81.4308 23.2342 81.3002C22.6737 81.1642 22.1552 80.8765 21.6788 80.4373C21.2201 80.0142 20.9036 79.5374 20.7295 79.0069C20.5553 78.4763 20.5366 77.9367 20.6732 77.388C20.8045 76.8452 21.0872 76.3388 21.5216 75.8687ZM22.2782 77.154C21.942 77.5296 21.8002 77.9484 21.8526 78.4103C21.9051 78.8721 22.1225 79.2793 22.5048 79.6318C22.8517 79.9518 23.2519 80.1141 23.7052 80.1186C24.1531 80.1289 24.5743 79.9678 24.9689 79.6352L22.2782 77.154Z" fill="url(#paint9_linear_259_5312)"/>
<path d="M17.3934 74.0879C17.0042 74.128 16.6379 74.0714 16.2942 73.9182C15.9394 73.7633 15.6258 73.503 15.3533 73.1374L16.4896 72.2925L16.6975 72.5716C17.0178 73.0014 17.3707 73.2474 17.7563 73.3096C18.1371 73.3654 18.5971 73.1929 19.1364 72.7919L21.929 70.7155L22.7464 71.8125L17.4403 75.7577L16.623 74.6607L17.3934 74.0879Z" fill="url(#paint10_linear_259_5312)"/>
<path d="M13.978 63.7062C14.2011 63.598 14.4096 63.5145 14.6036 63.456L16.8132 67.9991C17.2707 67.7326 17.5665 67.3712 17.7004 66.915C17.8343 66.4587 17.7893 66.0003 17.5654 65.5399C17.2435 64.878 16.7389 64.5449 16.0518 64.5405L15.4062 63.2132C16.0407 63.1275 16.6497 63.2366 17.2333 63.5402C17.8062 63.8402 18.2623 64.3391 18.6018 65.0369C18.8782 65.6053 19.0007 66.1772 18.9692 66.7527C18.927 67.3245 18.7386 67.8516 18.404 68.3342C18.0587 68.813 17.5801 69.2009 16.9684 69.4978C16.3566 69.7947 15.7609 69.9327 15.1813 69.9116C14.5911 69.8869 14.0615 69.7126 13.5927 69.3888C13.1203 69.0578 12.7424 68.601 12.459 68.0183C12.1861 67.4571 12.0653 66.8977 12.0965 66.3401C12.1278 65.7825 12.307 65.2731 12.6343 64.8119C12.9543 64.3543 13.4023 63.9857 13.978 63.7062ZM14.214 65.179C13.764 65.4063 13.4793 65.7446 13.3598 66.1939C13.2403 66.6431 13.2942 67.1016 13.5216 67.5692C13.7281 67.9937 14.0415 68.2906 14.462 68.46C14.8752 68.6329 15.3262 68.6364 15.8148 68.4704L14.214 65.179Z" fill="url(#paint11_linear_259_5312)"/>
<path d="M16.5736 59.8883C16.6448 60.1259 16.6241 60.3492 16.5115 60.5583C16.3988 60.7674 16.2237 60.9075 15.9861 60.9786C15.7485 61.0497 15.5251 61.0289 15.3159 60.9162C15.1067 60.8035 14.9664 60.6283 14.8952 60.3908C14.8262 60.1609 14.8481 59.9414 14.9607 59.7323C15.0734 59.5232 15.2485 59.3831 15.4861 59.312C15.7237 59.2409 15.9471 59.2617 16.1563 59.3744C16.3655 59.4872 16.5046 59.6585 16.5736 59.8883Z" fill="url(#paint12_linear_259_5312)"/>
<path d="M15.7415 56.4781C15.788 56.7217 15.7445 56.9418 15.6109 57.1382C15.4774 57.3347 15.2888 57.4561 15.0452 57.5026C14.8016 57.549 14.5815 57.5054 14.385 57.3718C14.1885 57.2383 14.0669 57.0497 14.0204 56.8061C13.9754 56.5703 14.0197 56.3542 14.1532 56.1578C14.2867 55.9613 14.4753 55.8399 14.7189 55.7934C14.9625 55.747 15.1826 55.7906 15.3791 55.9242C15.5757 56.0577 15.6964 56.2424 15.7415 56.4781Z" fill="url(#paint13_linear_259_5312)"/>
<path d="M15.2645 53.0521C15.2865 53.2992 15.2213 53.5138 15.0688 53.696C14.9164 53.8782 14.7166 53.9803 14.4696 54.0022C14.2226 54.0242 14.008 53.9589 13.8257 53.8064C13.6435 53.654 13.5414 53.4542 13.5194 53.2072C13.4981 52.9681 13.5637 52.7575 13.7161 52.5753C13.8686 52.3931 14.0683 52.291 14.3153 52.2691C14.5624 52.2471 14.777 52.3124 14.9592 52.4649C15.1415 52.6173 15.2432 52.8131 15.2645 53.0521Z" fill="url(#paint14_linear_259_5312)"/>
<path d="M15.1318 49.3833C15.1279 49.6313 15.0406 49.838 14.87 50.0034C14.6994 50.1688 14.4901 50.2496 14.2421 50.2459C13.9942 50.2421 13.7875 50.1549 13.6222 49.9844C13.4568 49.8138 13.3761 49.6046 13.38 49.3566C13.3837 49.1166 13.4709 48.914 13.6415 48.7485C13.8121 48.5831 14.0214 48.5023 14.2694 48.5061C14.5174 48.5098 14.724 48.597 14.8894 48.7675C15.0547 48.9381 15.1355 49.1433 15.1318 49.3833Z" fill="url(#paint15_linear_259_5312)"/>
<path d="M7.34919 42.4367C7.51573 41.5644 7.83023 40.8344 8.29269 40.2465C8.74878 39.6494 9.32494 39.2339 10.0211 39C10.711 38.7568 11.4724 38.7146 12.3054 38.8733C13.1385 39.0321 13.8269 39.3505 14.3709 39.8288C14.9163 40.2992 15.2911 40.8959 15.4951 41.6189C15.6928 42.3325 15.7083 43.1254 15.5418 43.9976L15.0309 46.6733L6.8383 45.1123L7.34919 42.4367ZM14.4455 43.7888C14.6286 42.8301 14.5095 42.0459 14.0884 41.4363C13.6672 40.8267 12.9852 40.4321 12.0421 40.2524C11.0912 40.0712 10.2998 40.1851 9.66791 40.5941C9.036 41.003 8.62852 41.6869 8.44547 42.6455L8.19115 43.9775L14.1912 45.1207L14.4455 43.7888Z" fill="url(#paint16_linear_259_5312)"/>
<path d="M18.2026 35.6945C17.9444 36.2626 17.5835 36.7182 17.12 37.0613C16.6491 37.4012 16.121 37.5965 15.5355 37.6471C14.9428 37.6945 14.3368 37.5778 13.7175 37.2968C13.1055 37.0192 12.624 36.6383 12.2729 36.154C11.9219 35.6698 11.7248 35.1367 11.6817 34.555C11.6386 33.9732 11.7478 33.3946 12.0093 32.8193C12.2708 32.2439 12.635 31.781 13.1019 31.4306C13.5688 31.0802 14.1002 30.8776 14.6963 30.823C15.2923 30.7683 15.8963 30.8798 16.5083 31.1574C17.1203 31.435 17.6002 31.8196 17.9479 32.3111C18.2957 32.8027 18.4914 33.3483 18.5352 33.9479C18.575 34.537 18.4642 35.1192 18.2026 35.6945ZM17.1207 35.2038C17.2664 34.8833 17.3256 34.55 17.2984 34.2039C17.2746 33.8504 17.1494 33.5169 16.9228 33.2033C16.6963 32.8898 16.3644 32.6338 15.9273 32.4355C15.4902 32.2372 15.0842 32.1541 14.7093 32.1861C14.3272 32.2148 13.9967 32.3329 13.7179 32.5402C13.4392 32.7475 13.2269 33.0114 13.0813 33.3319C12.9356 33.6523 12.8764 33.9856 12.9036 34.3318C12.9341 34.6707 13.0659 34.9896 13.2991 35.2886C13.5249 35.5843 13.8564 35.8313 14.2936 36.0296C14.942 36.3237 15.5192 36.3879 16.0251 36.2221C16.5271 36.0457 16.8923 35.7063 17.1207 35.2038Z" fill="url(#paint17_linear_259_5312)"/>
<path d="M21.0021 19.8446L24.7917 25.636L23.8736 26.7453L19.2586 24.6612L22.175 28.7975L21.2568 29.9068L14.8428 27.2863L15.7304 26.2139L20.709 28.5361L17.5055 24.0692L18.416 22.9692L23.3532 25.3038L20.1452 20.88L21.0021 19.8446Z" fill="url(#paint18_linear_259_5312)"/>
<path d="M26.4705 15.6254C26.8978 15.329 27.3407 15.1532 27.7992 15.098C28.2643 15.0383 28.7132 15.1164 29.1458 15.3323C29.5785 15.5482 29.966 15.9025 30.3085 16.3952L32.5345 19.5975L31.4203 20.3703L29.3107 17.3355C28.9728 16.8494 28.5932 16.5627 28.1719 16.4752C27.7461 16.3811 27.3228 16.48 26.9021 16.7719C26.4814 17.0637 26.2375 17.4276 26.1704 17.8636C26.1052 18.2885 26.2416 18.744 26.5795 19.2301L28.6891 22.2649L27.5651 23.0446L23.7911 17.6155L24.9151 16.8358L25.3466 17.4565C25.3754 17.1055 25.4878 16.7696 25.6837 16.4487C25.8861 16.1233 26.1484 15.8488 26.4705 15.6254Z" fill="url(#paint19_linear_259_5312)"/>
<path d="M32.0726 10.0279L35.8074 18.0843L34.5658 18.6587L30.831 10.6023L32.0726 10.0279Z" fill="url(#paint20_linear_259_5312)"/>
<path d="M40.5623 16.5022C39.9606 16.6675 39.3796 16.682 38.8193 16.5456C38.2569 16.4014 37.7688 16.1207 37.3552 15.7034C36.9394 15.2784 36.6413 14.7381 36.4608 14.0825C36.2824 13.4346 36.2669 12.8207 36.4142 12.241C36.5616 11.6612 36.845 11.1685 37.2643 10.7629C37.6837 10.3573 38.1981 10.0708 38.8075 9.9033C39.4169 9.73585 40.0056 9.71927 40.5737 9.85356C41.1417 9.98786 41.6375 10.2665 42.0609 10.6894C42.4844 11.1123 42.7853 11.6477 42.9637 12.2956C43.1421 12.9435 43.1538 13.5583 42.9987 14.1402C42.8436 14.7221 42.5498 15.2218 42.1171 15.6394C41.69 16.0471 41.1718 16.3347 40.5623 16.5022ZM40.247 15.3568C40.5864 15.2636 40.8803 15.0957 41.1289 14.8531C41.3851 14.6085 41.5612 14.2988 41.6572 13.924C41.7531 13.5491 41.7374 13.1304 41.6099 12.6676C41.4825 12.2048 41.2865 11.8397 41.022 11.5722C40.7554 11.297 40.4532 11.1187 40.1155 11.0373C39.7777 10.9558 39.4392 10.9618 39.0998 11.055C38.7603 11.1483 38.4664 11.3162 38.2178 11.5587C37.977 11.7991 37.8163 12.1046 37.7358 12.4752C37.6532 12.838 37.6756 13.2509 37.803 13.7136C37.992 14.4001 38.3122 14.8846 38.7634 15.1671C39.2201 15.4398 39.7147 15.5031 40.247 15.3568Z" fill="url(#paint21_linear_259_5312)"/>
<path d="M45.035 11.9226C45.0144 11.2589 45.1322 10.667 45.3883 10.1468C45.6523 9.62644 46.0159 9.21903 46.479 8.92461C46.9499 8.62195 47.4732 8.46173 48.0489 8.44397C48.5687 8.42793 49.0237 8.51794 49.4139 8.714C49.8119 8.90182 50.1315 9.14407 50.3728 9.44077L50.3431 8.48123L51.7225 8.43867L51.9268 15.0475L50.5475 15.0901L50.5171 14.1065C50.2948 14.4255 49.987 14.6952 49.5936 14.9154C49.2003 15.1356 48.7477 15.2537 48.2359 15.2694C47.6682 15.287 47.144 15.1591 46.6633 14.8858C46.1824 14.6045 45.794 14.2083 45.498 13.6971C45.2098 13.1778 45.0555 12.5863 45.035 11.9226ZM50.4451 11.7797C50.431 11.3239 50.3228 10.931 50.1206 10.6011C49.9263 10.2709 49.6745 10.0226 49.3652 9.85605C49.0559 9.68951 48.7253 9.61166 48.3735 9.62252C48.0216 9.63337 47.6965 9.73145 47.3981 9.91674C47.0994 10.094 46.8593 10.3536 46.6778 10.6953C46.504 11.0288 46.4242 11.4235 46.4383 11.8793C46.4524 12.3351 46.5567 12.732 46.7513 13.0702C46.9538 13.4081 47.2098 13.6643 47.5194 13.8389C47.8367 14.0052 48.1672 14.083 48.5111 14.0724C48.8629 14.0615 49.188 13.9635 49.4864 13.7782C49.7849 13.5929 50.0208 13.3295 50.1944 12.988C50.3756 12.6382 50.4592 12.2354 50.4451 11.7797Z" fill="url(#paint22_linear_259_5312)"/>
<path d="M54.8494 11.9328C54.9963 11.2853 55.259 10.7419 55.6376 10.3026C56.0239 9.86509 56.4783 9.56191 57.0005 9.39304C57.5324 9.21814 58.0831 9.19515 58.6527 9.32407C59.0741 9.41944 59.4664 9.60666 59.8296 9.88574C60.2025 10.1588 60.4753 10.4748 60.6482 10.8338L61.3543 7.72091L62.7002 8.02555L60.736 16.6856L59.39 16.3809L59.6103 15.4096C59.3211 15.6722 58.9584 15.8608 58.5222 15.9754C58.0939 16.0917 57.63 16.0933 57.1307 15.9803C56.5689 15.8531 56.0857 15.5961 55.6813 15.2093C55.2864 14.8164 55.0099 14.3355 54.8519 13.7666C54.7034 13.1916 54.7026 12.5804 54.8494 11.9328ZM60.1226 13.151C60.2235 12.7063 60.2175 12.2989 60.1045 11.9288C59.9994 11.5605 59.818 11.257 59.5605 11.0183C59.3029 10.7795 59.0024 10.6213 58.6591 10.5436C58.3158 10.4659 57.9764 10.4793 57.641 10.5838C57.3073 10.6805 57.0097 10.8715 56.7481 11.1568C56.4961 11.4361 56.3197 11.7981 56.2188 12.2428C56.1179 12.6875 56.1192 13.0979 56.2226 13.474C56.3337 13.8518 56.5172 14.164 56.773 14.4106C57.0384 14.6511 57.3388 14.8093 57.6743 14.8853C58.0177 14.963 58.357 14.9496 58.6925 14.8451C59.0279 14.7405 59.3225 14.5447 59.5763 14.2577C59.8396 13.9646 60.0218 13.5957 60.1226 13.151Z" fill="url(#paint23_linear_259_5312)"/>
<path d="M72.7953 15.2552C73.2187 15.5286 73.5363 15.8624 73.7482 16.2564C73.9668 16.6548 74.055 17.0927 74.0128 17.5702C73.9773 18.052 73.7965 18.5447 73.4704 19.0484L71.3512 22.3224L70.2122 21.5866L72.2206 18.4839C72.5422 17.9869 72.6635 17.5272 72.5844 17.1047C72.5097 16.6754 72.2573 16.3219 71.8272 16.0441C71.3971 15.7663 70.9675 15.6792 70.5382 15.7829C70.12 15.8842 69.7501 16.1834 69.4284 16.6803L67.42 19.783L66.2709 19.0408L71.0963 11.5862L72.2454 12.3285L70.5956 14.8771C70.9427 14.768 71.3053 14.7451 71.6836 14.8085C72.0686 14.8762 72.4392 15.0251 72.7953 15.2552Z" fill="url(#paint24_linear_259_5312)"/>
<path d="M79.9368 25.9242C79.757 26.095 79.5835 26.2376 79.4164 26.3522L75.9342 22.692C75.5788 23.0845 75.4064 23.5184 75.417 23.9938C75.4275 24.4691 75.6093 24.8923 75.9622 25.2632C76.4695 25.7965 77.0513 25.9611 77.7076 25.7573L78.7249 26.8266C78.1461 27.1003 77.5326 27.1809 76.8844 27.0682C76.2475 26.9559 75.6616 26.6186 75.1267 26.0564C74.6911 25.5985 74.4011 25.0906 74.2568 24.5327C74.1238 23.975 74.1437 23.4156 74.3165 22.8544C74.5006 22.2936 74.8392 21.779 75.3324 21.3108C75.8255 20.8426 76.3515 20.5308 76.9103 20.3754C77.4804 20.2202 78.0379 20.2259 78.5829 20.3925C79.1333 20.5648 79.6319 20.8857 80.0785 21.3552C80.5087 21.8073 80.7933 22.3038 80.9324 22.8446C81.0715 23.3854 81.0549 23.9251 80.8827 24.4637C80.7163 24.9967 80.401 25.4836 79.9368 25.9242ZM79.2658 24.5922C79.6258 24.2394 79.7948 23.8309 79.7726 23.3665C79.7504 22.9022 79.5602 22.4817 79.2017 22.1049C78.8764 21.763 78.4877 21.5749 78.0356 21.5408C77.5894 21.5012 77.1585 21.6344 76.7431 21.9406L79.2658 24.5922Z" fill="url(#paint25_linear_259_5312)"/>
<path d="M83.9239 27.9464C84.3148 27.9319 84.6766 28.0125 85.0094 28.188C85.3533 28.3659 85.6491 28.6462 85.8969 29.029L84.7075 29.7973L84.5184 29.5052C84.2271 29.0552 83.8912 28.7865 83.5105 28.6991C83.1342 28.6183 82.6639 28.7602 82.0994 29.1249L79.1762 31.0131L78.4328 29.8647L83.9869 26.2771L84.7303 27.4255L83.9239 27.9464Z" fill="url(#paint26_linear_259_5312)"/>
<path d="M86.6697 38.5759C86.4398 38.669 86.2262 38.7382 86.0288 38.7837L84.1288 34.1025C83.6545 34.3378 83.3352 34.6786 83.171 35.1249C83.0068 35.5712 83.021 36.0315 83.2135 36.5059C83.4903 37.1879 83.9713 37.5541 84.6566 37.6045L85.2117 38.9722C84.573 39.0151 83.9726 38.8655 83.4107 38.5234C82.8593 38.1858 82.4376 37.6574 82.1458 36.9384C81.9081 36.3528 81.8242 35.7739 81.8942 35.2018C81.9746 34.6341 82.1979 34.1207 82.5642 33.6617C82.9408 33.207 83.4443 32.8521 84.0746 32.5968C84.7048 32.3415 85.3084 32.2438 85.8852 32.3036C86.4725 32.3679 86.9892 32.5772 87.4352 32.9317C87.8843 33.2936 88.2307 33.7747 88.4744 34.3752C88.7091 34.9534 88.7921 35.5196 88.7235 36.0739C88.655 36.6282 88.4419 37.1244 88.0845 37.5627C87.7345 37.9979 87.2629 38.3356 86.6697 38.5759ZM86.5331 37.0905C86.9972 36.8939 87.304 36.5755 87.4533 36.1352C87.6027 35.6949 87.5796 35.2339 87.3841 34.752C87.2066 34.3147 86.9138 33.9974 86.5056 33.8002C86.1049 33.6 85.6552 33.5663 85.1566 33.6992L86.5331 37.0905Z" fill="url(#paint27_linear_259_5312)"/>
<path d="M83.8281 42.2166C83.7733 41.9747 83.8092 41.7533 83.9359 41.5524C84.0626 41.3515 84.2469 41.2236 84.4888 41.1689C84.7306 41.1141 84.9521 41.1501 85.1531 41.2769C85.3541 41.4036 85.4821 41.5879 85.5369 41.8298C85.59 42.0638 85.5532 42.2813 85.4265 42.4823C85.2998 42.6832 85.1155 42.811 84.8736 42.8658C84.6318 42.9205 84.4103 42.8845 84.2093 42.7578C84.0083 42.631 83.8812 42.4506 83.8281 42.2166Z" fill="url(#paint28_linear_259_5312)"/>
<path d="M84.4222 45.6097C84.3917 45.3636 84.4495 45.1468 84.5955 44.9595C84.7415 44.7721 84.9376 44.6632 85.1837 44.6327C85.4299 44.6022 85.6466 44.66 85.834 44.8061C86.0215 44.9522 86.1304 45.1483 86.161 45.3944C86.1905 45.6326 86.1323 45.8453 85.9862 46.0327C85.8402 46.2201 85.6441 46.329 85.398 46.3595C85.1519 46.3899 84.9351 46.3321 84.7477 46.1861C84.5603 46.04 84.4518 45.8478 84.4222 45.6097Z" fill="url(#paint29_linear_259_5312)"/>
<path d="M84.6807 49.1208C84.675 48.8729 84.7541 48.663 84.9182 48.4912C85.0822 48.3193 85.2882 48.2306 85.5362 48.2248C85.7841 48.2191 85.994 48.2982 86.1659 48.4623C86.3377 48.6264 86.4265 48.8324 86.4323 49.0803C86.4378 49.3203 86.3586 49.5261 86.1945 49.698C86.0304 49.8698 85.8244 49.9586 85.5765 49.9643C85.3286 49.9701 85.1187 49.8909 84.9468 49.7269C84.775 49.5628 84.6863 49.3608 84.6807 49.1208Z" fill="url(#paint30_linear_259_5312)"/>
<defs>
<linearGradient id="paint0_linear_259_5312" x1="95.9735" y1="58.911" x2="92.4662" y2="47.5548" gradientUnits="userSpaceOnUse">
<stop stop-color="#1E365B"/>
<stop offset="1" stop-color="#F8E8D5"/>
</linearGradient>
<linearGradient id="paint1_linear_259_5312" x1="92.7242" y1="69.1034" x2="92.4405" y2="58.2356" gradientUnits="userSpaceOnUse">
<stop stop-color="#1E365B"/>
<stop offset="1" stop-color="#F8E8D5"/>
</linearGradient>
<linearGradient id="paint2_linear_259_5312" x1="85.6393" y1="80.4009" x2="87.418" y2="66.7563" gradientUnits="userSpaceOnUse">
<stop stop-color="#1E365B"/>
<stop offset="1" stop-color="#F8E8D5"/>
</linearGradient>
<linearGradient id="paint3_linear_259_5312" x1="76.5335" y1="88.5454" x2="81.965" y2="77.9719" gradientUnits="userSpaceOnUse">
<stop stop-color="#1E365B"/>
<stop offset="1" stop-color="#F8E8D5"/>
</linearGradient>
<linearGradient id="paint4_linear_259_5312" x1="71.1117" y1="91.6675" x2="75.1067" y2="88.4424" gradientUnits="userSpaceOnUse">
<stop stop-color="#1E365B"/>
<stop offset="1" stop-color="#F8E8D5"/>
</linearGradient>
<linearGradient id="paint5_linear_259_5312" x1="62.5479" y1="95.079" x2="70.7113" y2="87.8895" gradientUnits="userSpaceOnUse">
<stop stop-color="#1E365B"/>
<stop offset="1" stop-color="#F8E8D5"/>
</linearGradient>
<linearGradient id="paint6_linear_259_5312" x1="51.2198" y1="96.8006" x2="61.5414" y2="90.8906" gradientUnits="userSpaceOnUse">
<stop stop-color="#1E365B"/>
<stop offset="1" stop-color="#F8E8D5"/>
</linearGradient>
<linearGradient id="paint7_linear_259_5312" x1="39.4176" y1="95.645" x2="50.8845" y2="92.4787" gradientUnits="userSpaceOnUse">
<stop stop-color="#1E365B"/>
<stop offset="1" stop-color="#F8E8D5"/>
</linearGradient>
<linearGradient id="paint8_linear_259_5312" x1="24.3506" y1="89.2611" x2="36.2047" y2="90.2677" gradientUnits="userSpaceOnUse">
<stop stop-color="#1E365B"/>
<stop offset="1" stop-color="#F8E8D5"/>
</linearGradient>
<linearGradient id="paint9_linear_259_5312" x1="16.0452" y1="82.3596" x2="26.2265" y2="86.1998" gradientUnits="userSpaceOnUse">
<stop stop-color="#1E365B"/>
<stop offset="1" stop-color="#F8E8D5"/>
</linearGradient>
<linearGradient id="paint10_linear_259_5312" x1="11.1727" y1="76.2828" x2="17.1056" y2="80.9595" gradientUnits="userSpaceOnUse">
<stop stop-color="#1E365B"/>
<stop offset="1" stop-color="#F8E8D5"/>
</linearGradient>
<linearGradient id="paint11_linear_259_5312" x1="6.51425" y1="67.7558" x2="14.5914" y2="75.0418" gradientUnits="userSpaceOnUse">
<stop stop-color="#1E365B"/>
<stop offset="1" stop-color="#F8E8D5"/>
</linearGradient>
<linearGradient id="paint12_linear_259_5312" x1="4.67879" y1="62.1214" x2="6.9983" y2="66.6994" gradientUnits="userSpaceOnUse">
<stop stop-color="#1E365B"/>
<stop offset="1" stop-color="#F8E8D5"/>
</linearGradient>
<linearGradient id="paint13_linear_259_5312" x1="3.68093" y1="57.4814" x2="5.51919" y2="62.2726" gradientUnits="userSpaceOnUse">
<stop stop-color="#1E365B"/>
<stop offset="1" stop-color="#F8E8D5"/>
</linearGradient>
<linearGradient id="paint14_linear_259_5312" x1="3.16435" y1="52.8503" x2="4.51656" y2="57.8003" gradientUnits="userSpaceOnUse">
<stop stop-color="#1E365B"/>
<stop offset="1" stop-color="#F8E8D5"/>
</linearGradient>
<linearGradient id="paint15_linear_259_5312" x1="3.1185" y1="47.9284" x2="3.95015" y2="52.9913" gradientUnits="userSpaceOnUse">
<stop stop-color="#1E365B"/>
<stop offset="1" stop-color="#F8E8D5"/>
</linearGradient>
<linearGradient id="paint16_linear_259_5312" x1="4.51901" y1="38.0074" x2="7.28001" y2="49.5672" gradientUnits="userSpaceOnUse">
<stop stop-color="#1E365B"/>
<stop offset="1" stop-color="#F8E8D5"/>
</linearGradient>
<linearGradient id="paint17_linear_259_5312" x1="8.43338" y1="28.0449" x2="7.98663" y2="38.9071" gradientUnits="userSpaceOnUse">
<stop stop-color="#1E365B"/>
<stop offset="1" stop-color="#F8E8D5"/>
</linearGradient>
<linearGradient id="paint18_linear_259_5312" x1="16.2489" y1="17.2127" x2="13.58" y2="30.7117" gradientUnits="userSpaceOnUse">
<stop stop-color="#1E365B"/>
<stop offset="1" stop-color="#F8E8D5"/>
</linearGradient>
<linearGradient id="paint19_linear_259_5312" x1="25.8288" y1="9.70208" x2="19.7149" y2="19.897" gradientUnits="userSpaceOnUse">
<stop stop-color="#1E365B"/>
<stop offset="1" stop-color="#F8E8D5"/>
</linearGradient>
<linearGradient id="paint20_linear_259_5312" x1="31.317" y1="6.9913" x2="27.1156" y2="9.94296" gradientUnits="userSpaceOnUse">
<stop stop-color="#1E365B"/>
<stop offset="1" stop-color="#F8E8D5"/>
</linearGradient>
<linearGradient id="paint21_linear_259_5312" x1="40.1886" y1="4.09628" x2="31.5549" y2="10.7148" gradientUnits="userSpaceOnUse">
<stop stop-color="#1E365B"/>
<stop offset="1" stop-color="#F8E8D5"/>
</linearGradient>
<linearGradient id="paint22_linear_259_5312" x1="51.5824" y1="3.09867" x2="40.8953" y2="8.32004" gradientUnits="userSpaceOnUse">
<stop stop-color="#1E365B"/>
<stop offset="1" stop-color="#F8E8D5"/>
</linearGradient>
<linearGradient id="paint23_linear_259_5312" x1="63.4044" y1="5.03356" x2="51.7465" y2="7.40343" gradientUnits="userSpaceOnUse">
<stop stop-color="#1E365B"/>
<stop offset="1" stop-color="#F8E8D5"/>
</linearGradient>
<linearGradient id="paint24_linear_259_5312" x1="77.9657" y1="12.3654" x2="66.2045" y2="10.5759" gradientUnits="userSpaceOnUse">
<stop stop-color="#1E365B"/>
<stop offset="1" stop-color="#F8E8D5"/>
</linearGradient>
<linearGradient id="paint25_linear_259_5312" x1="85.8255" y1="19.8051" x2="75.9176" y2="15.3075" gradientUnits="userSpaceOnUse">
<stop stop-color="#1E365B"/>
<stop offset="1" stop-color="#F8E8D5"/>
</linearGradient>
<linearGradient id="paint26_linear_259_5312" x1="90.2751" y1="26.1654" x2="84.6632" y2="21.1087" gradientUnits="userSpaceOnUse">
<stop stop-color="#1E365B"/>
<stop offset="1" stop-color="#F8E8D5"/>
</linearGradient>
<linearGradient id="paint27_linear_259_5312" x1="94.3878" y1="35.0353" x2="86.8177" y2="27.2248" gradientUnits="userSpaceOnUse">
<stop stop-color="#1E365B"/>
<stop offset="1" stop-color="#F8E8D5"/>
</linearGradient>
<linearGradient id="paint28_linear_259_5312" x1="95.8473" y1="40.8001" x2="93.8457" y2="36.0748" gradientUnits="userSpaceOnUse">
<stop stop-color="#1E365B"/>
<stop offset="1" stop-color="#F8E8D5"/>
</linearGradient>
<linearGradient id="paint29_linear_259_5312" x1="96.5223" y1="45.393" x2="94.9997" y2="40.4926" gradientUnits="userSpaceOnUse">
<stop stop-color="#1E365B"/>
<stop offset="1" stop-color="#F8E8D5"/>
</linearGradient>
<linearGradient id="paint30_linear_259_5312" x1="96.7415" y1="50.1139" x2="95.7162" y2="45.0862" gradientUnits="userSpaceOnUse">
<stop stop-color="#1E365B"/>
<stop offset="1" stop-color="#F8E8D5"/>
</linearGradient>
</defs>
</svg>
