<svg width="15" height="4" viewBox="0 0 15 4" fill="none" xmlns="http://www.w3.org/2000/svg">
<path d="M1 1.75C0.861929 1.75 0.75 1.86193 0.75 2C0.75 2.13807 0.861929 2.25 1 2.25V1.75ZM14.6888 2.17678C14.7864 2.07915 14.7864 1.92085 14.6888 1.82322L13.0978 0.232233C13.0002 0.134602 12.8419 0.134602 12.7442 0.232233C12.6466 0.329864 12.6466 0.488155 12.7442 0.585786L14.1584 2L12.7442 3.41421C12.6466 3.51184 12.6466 3.67014 12.7442 3.76777C12.8419 3.8654 13.0002 3.8654 13.0978 3.76777L14.6888 2.17678ZM1 2.25H14.512V1.75H1V2.25Z" fill="#1E365B"/>
</svg>
