<svg width="148" height="19" viewBox="0 0 148 19" fill="none" xmlns="http://www.w3.org/2000/svg">
<path d="M16.1295 14.9041C14.4975 16.4401 12.5615 17.2081 10.3215 17.2081C9.07348 17.2081 7.96948 16.9921 7.00948 16.5601C6.04948 16.1281 5.24948 15.5521 4.60948 14.8321C3.96948 14.1121 3.48148 13.2801 3.14548 12.3361C2.82548 11.3921 2.66548 10.4081 2.66548 9.38411C2.66548 8.29611 2.83348 7.30411 3.16948 6.40811C3.52148 5.49611 4.00948 4.71211 4.63348 4.05611C5.25748 3.40011 5.99348 2.88811 6.84148 2.52011C7.70548 2.15211 8.64148 1.96811 9.64948 1.96811C10.3375 1.96811 10.9615 2.04811 11.5215 2.20811C12.0975 2.36811 12.6015 2.57611 13.0335 2.83211C13.4815 3.08811 13.8415 3.38411 14.1135 3.72011C14.4015 4.04011 14.6015 4.36811 14.7135 4.70411H16.4895C16.2495 4.16011 15.9375 3.65611 15.5535 3.19211C15.1855 2.72811 14.7215 2.32811 14.1615 1.99211C13.6015 1.65611 12.9455 1.39211 12.1935 1.20011C11.4415 1.00811 10.5855 0.912109 9.62548 0.912109C8.23348 0.912109 6.96148 1.11211 5.80948 1.51211C4.67348 1.91211 3.69748 2.48811 2.88148 3.24011C2.06548 3.97611 1.43348 4.87211 0.985476 5.92811C0.537476 6.96811 0.313477 8.13611 0.313477 9.43211C0.313477 10.5521 0.489477 11.6481 0.841477 12.7201C1.20948 13.7761 1.76948 14.7201 2.52148 15.5521C3.27348 16.3681 4.23348 17.0321 5.40148 17.5441C6.56948 18.0401 7.96148 18.2881 9.57748 18.2881C10.6015 18.2881 11.5135 18.1921 12.3135 18.0001C13.1295 17.8081 13.8335 17.5761 14.4255 17.3041C15.0335 17.0161 15.5375 16.7121 15.9375 16.3921C16.3375 16.0721 16.6415 15.7921 16.8495 15.5521L16.1295 14.9041Z" fill="#202020"/>
<path d="M30.9564 12.0241C30.9564 12.8561 30.8124 13.6561 30.5244 14.4241C30.2364 15.1761 29.8204 15.8401 29.2764 16.4161C28.7484 16.9921 28.1004 17.4481 27.3324 17.7841C26.5804 18.1201 25.7324 18.2881 24.7884 18.2881C23.8284 18.2881 22.9564 18.1201 22.1724 17.7841C21.4044 17.4321 20.7484 16.9681 20.2044 16.3921C19.6764 15.8161 19.2604 15.1521 18.9564 14.4001C18.6684 13.6321 18.5244 12.8401 18.5244 12.0241C18.5244 11.1921 18.6684 10.4001 18.9564 9.64811C19.2604 8.88011 19.6764 8.20811 20.2044 7.63211C20.7484 7.05611 21.4044 6.60011 22.1724 6.26411C22.9564 5.91211 23.8284 5.73611 24.7884 5.73611C25.7324 5.73611 26.5804 5.91211 27.3324 6.26411C28.1004 6.60011 28.7484 7.05611 29.2764 7.63211C29.8204 8.20811 30.2364 8.88011 30.5244 9.64811C30.8124 10.4001 30.9564 11.1921 30.9564 12.0241ZM28.6764 12.0241C28.6764 10.9041 28.5564 10.0001 28.3164 9.31211C28.0764 8.60811 27.7644 8.06411 27.3804 7.68011C26.9964 7.29611 26.5724 7.04011 26.1084 6.91211C25.6444 6.76811 25.1964 6.69611 24.7644 6.69611C24.3324 6.69611 23.8844 6.76811 23.4204 6.91211C22.9564 7.04011 22.5244 7.29611 22.1244 7.68011C21.7404 8.06411 21.4204 8.60811 21.1644 9.31211C20.9244 10.0001 20.8044 10.9041 20.8044 12.0241C20.8044 13.1281 20.9244 14.0321 21.1644 14.7361C21.4204 15.4241 21.7404 15.9601 22.1244 16.3441C22.5244 16.7281 22.9564 16.9921 23.4204 17.1361C23.8844 17.2641 24.3324 17.3281 24.7644 17.3281C25.1964 17.3281 25.6444 17.2641 26.1084 17.1361C26.5724 16.9921 26.9964 16.7281 27.3804 16.3441C27.7644 15.9601 28.0764 15.4241 28.3164 14.7361C28.5564 14.0321 28.6764 13.1281 28.6764 12.0241Z" fill="#202020"/>
<path d="M44.7364 1.20011H42.6964V7.96811H42.6004C42.4404 7.55211 42.2244 7.20811 41.9524 6.93611C41.6964 6.64811 41.4004 6.41611 41.0644 6.24011C40.7284 6.06411 40.3684 5.93611 39.9844 5.85611C39.6164 5.77611 39.2403 5.73611 38.8563 5.73611C38.0563 5.73611 37.3203 5.88811 36.6483 6.19211C35.9763 6.48011 35.3924 6.89611 34.8964 7.44011C34.4164 7.98411 34.0404 8.64011 33.7684 9.40811C33.4964 10.1761 33.3604 11.0321 33.3604 11.9761C33.3604 12.9361 33.4964 13.8081 33.7684 14.5921C34.0404 15.3601 34.4164 16.0241 34.8964 16.5841C35.3924 17.1281 35.9763 17.5521 36.6483 17.8561C37.3203 18.1441 38.0563 18.2881 38.8563 18.2881C40.7443 18.2881 41.9924 17.5441 42.6004 16.0561H42.6964V18.0001H44.7364V1.20011ZM42.6964 13.2001C42.6964 13.7281 42.6083 14.2321 42.4324 14.7121C42.2564 15.1761 42.0164 15.5841 41.7124 15.9361C41.4244 16.2721 41.0723 16.5441 40.6563 16.7521C40.2563 16.9441 39.8244 17.0401 39.3604 17.0401C38.8484 17.0401 38.3684 16.9521 37.9204 16.7761C37.4724 16.5841 37.0804 16.2881 36.7444 15.8881C36.4084 15.4881 36.1364 14.9681 35.9284 14.3281C35.7364 13.6881 35.6404 12.9201 35.6404 12.0241C35.6404 11.1121 35.7364 10.3361 35.9284 9.69611C36.1364 9.05611 36.4084 8.53611 36.7444 8.13611C37.0964 7.72011 37.4964 7.42411 37.9444 7.24811C38.3924 7.05611 38.8644 6.96011 39.3604 6.96011C39.8084 6.96011 40.2324 7.05611 40.6324 7.24811C41.0324 7.42411 41.3844 7.69611 41.6884 8.06411C41.9924 8.41611 42.2324 8.84811 42.4084 9.36011C42.6004 9.87211 42.6964 10.4561 42.6964 11.1121V13.2001Z" fill="#202020"/>
<path d="M60.2767 12.0241C60.2767 12.8561 60.1327 13.6561 59.8447 14.4241C59.5567 15.1761 59.1407 15.8401 58.5967 16.4161C58.0687 16.9921 57.4207 17.4481 56.6527 17.7841C55.9007 18.1201 55.0527 18.2881 54.1087 18.2881C53.1487 18.2881 52.2767 18.1201 51.4927 17.7841C50.7247 17.4321 50.0687 16.9681 49.5247 16.3921C48.9967 15.8161 48.5807 15.1521 48.2767 14.4001C47.9887 13.6321 47.8447 12.8401 47.8447 12.0241C47.8447 11.1921 47.9887 10.4001 48.2767 9.64811C48.5807 8.88011 48.9967 8.20811 49.5247 7.63211C50.0687 7.05611 50.7247 6.60011 51.4927 6.26411C52.2767 5.91211 53.1487 5.73611 54.1087 5.73611C55.0527 5.73611 55.9007 5.91211 56.6527 6.26411C57.4207 6.60011 58.0687 7.05611 58.5967 7.63211C59.1407 8.20811 59.5567 8.88011 59.8447 9.64811C60.1327 10.4001 60.2767 11.1921 60.2767 12.0241ZM57.9967 12.0241C57.9967 10.9041 57.8767 10.0001 57.6367 9.31211C57.3967 8.60811 57.0847 8.06411 56.7007 7.68011C56.3167 7.29611 55.8927 7.04011 55.4287 6.91211C54.9647 6.76811 54.5167 6.69611 54.0847 6.69611C53.6527 6.69611 53.2047 6.76811 52.7407 6.91211C52.2767 7.04011 51.8447 7.29611 51.4447 7.68011C51.0607 8.06411 50.7407 8.60811 50.4847 9.31211C50.2447 10.0001 50.1247 10.9041 50.1247 12.0241C50.1247 13.1281 50.2447 14.0321 50.4847 14.7361C50.7407 15.4241 51.0607 15.9601 51.4447 16.3441C51.8447 16.7281 52.2767 16.9921 52.7407 17.1361C53.2047 17.2641 53.6527 17.3281 54.0847 17.3281C54.5167 17.3281 54.9647 17.2641 55.4287 17.1361C55.8927 16.9921 56.3167 16.7281 56.7007 16.3441C57.0847 15.9601 57.3967 15.4241 57.6367 14.7361C57.8767 14.0321 57.9967 13.1281 57.9967 12.0241Z" fill="#202020"/>
<path d="M65.9207 1.20011H63.8807V18.0001H65.9207V1.20011Z" fill="#202020"/>
<path d="M71.0124 6.00011V18.0001H73.0524V6.00011H71.0124ZM70.7244 2.20811C70.7244 2.56011 70.8524 2.86411 71.1084 3.12011C71.3644 3.37611 71.6684 3.50411 72.0204 3.50411C72.3724 3.50411 72.6764 3.37611 72.9324 3.12011C73.1884 2.86411 73.3164 2.56011 73.3164 2.20811C73.3164 1.85611 73.1884 1.55211 72.9324 1.29611C72.6764 1.04011 72.3724 0.912109 72.0204 0.912109C71.6684 0.912109 71.3644 1.04011 71.1084 1.29611C70.8524 1.55211 70.7244 1.85611 70.7244 2.20811Z" fill="#202020"/>
<path d="M76.4272 6.00011V6.96011H78.5152V18.0001H80.5552V6.96011H83.4592V6.00011H80.5552V3.98411C80.5552 3.79211 80.5632 3.56811 80.5792 3.31211C80.5952 3.04011 80.6432 2.79211 80.7232 2.56811C80.8032 2.32811 80.9232 2.12811 81.0832 1.96811C81.2592 1.80811 81.4992 1.72811 81.8032 1.72811C82.1872 1.72811 82.4992 1.88811 82.7392 2.20811C82.9952 2.52811 83.2032 2.85611 83.3632 3.19211L84.4192 2.06411C84.0352 1.68011 83.6352 1.39211 83.2192 1.20011C82.8192 1.00811 82.3632 0.912109 81.8512 0.912109C81.4352 0.912109 81.0272 0.984109 80.6272 1.12811C80.2272 1.27211 79.8672 1.49611 79.5472 1.80011C79.2432 2.08811 78.9952 2.46411 78.8032 2.92811C78.6112 3.39211 78.5152 3.93611 78.5152 4.56011V6.00011H76.4272Z" fill="#202020"/>
<path d="M97.002 12.5281V12.0241C97.002 10.9521 96.85 10.0241 96.546 9.24011C96.242 8.45611 95.826 7.80811 95.298 7.29611C94.786 6.78411 94.186 6.40011 93.498 6.14411C92.81 5.88811 92.082 5.76011 91.314 5.76011C90.498 5.76011 89.746 5.90411 89.058 6.19211C88.37 6.46411 87.77 6.87211 87.258 7.41611C86.746 7.94411 86.346 8.59211 86.058 9.36011C85.77 10.1121 85.626 10.9681 85.626 11.9281C85.626 12.7281 85.746 13.5121 85.986 14.2801C86.242 15.0321 86.618 15.7121 87.114 16.3201C87.626 16.9121 88.266 17.3921 89.034 17.7601C89.818 18.1121 90.738 18.2881 91.794 18.2881C92.818 18.2881 93.762 18.1121 94.626 17.7601C95.49 17.3921 96.242 16.8721 96.882 16.2001L96.114 15.4321C95.778 15.7201 95.458 15.9841 95.154 16.2241C94.866 16.4641 94.57 16.6641 94.266 16.8241C93.962 16.9841 93.642 17.1121 93.306 17.2081C92.986 17.2881 92.626 17.3281 92.226 17.3281C91.778 17.3281 91.298 17.2641 90.786 17.1361C90.29 16.9921 89.826 16.7441 89.394 16.3921C88.962 16.0401 88.602 15.5521 88.314 14.9281C88.026 14.3041 87.882 13.5041 87.882 12.5281H97.002ZM87.882 11.5681C87.882 10.9281 87.946 10.3121 88.074 9.72011C88.218 9.11211 88.426 8.57611 88.698 8.11211C88.986 7.64811 89.346 7.28011 89.778 7.00811C90.21 6.72011 90.722 6.57611 91.314 6.57611C92.45 6.57611 93.33 7.02411 93.954 7.92011C94.594 8.80011 94.914 10.0161 94.914 11.5681H87.882Z" fill="#202020"/>
<path d="M110.438 1.20011V18.0001H112.622V1.20011H110.438Z" fill="#202020"/>
<path d="M128.417 18.0001V10.2241C128.417 9.93611 128.393 9.54411 128.345 9.04811C128.297 8.53611 128.137 8.04011 127.865 7.56011C127.609 7.06411 127.193 6.64011 126.617 6.28811C126.041 5.92011 125.225 5.73611 124.169 5.73611C123.705 5.72011 123.185 5.81611 122.609 6.02411C122.033 6.21611 121.465 6.59211 120.905 7.15211L120.521 7.53611H120.425V6.00011H118.385V18.0001H120.425V10.5841C120.425 9.96011 120.513 9.42411 120.689 8.97611C120.865 8.52811 121.105 8.15211 121.409 7.84811C121.713 7.54411 122.057 7.32011 122.441 7.17611C122.841 7.03211 123.249 6.96011 123.665 6.96011C124.337 6.96011 124.857 7.09611 125.225 7.36811C125.593 7.62411 125.857 7.92811 126.017 8.28011C126.193 8.63211 126.297 8.98411 126.329 9.33611C126.361 9.68811 126.377 9.94411 126.377 10.1041V18.0001H128.417Z" fill="#202020"/>
<path d="M138.354 17.0401C137.778 17.0401 137.218 16.9521 136.674 16.7761C136.146 16.6001 135.674 16.3201 135.258 15.9361C134.842 15.5361 134.506 15.0161 134.25 14.3761C134.01 13.7201 133.89 12.9201 133.89 11.9761C133.89 11.0001 134.026 10.1761 134.298 9.50411C134.57 8.81611 134.906 8.27211 135.306 7.87211C135.722 7.45611 136.178 7.16011 136.674 6.98411C137.17 6.79211 137.642 6.69611 138.09 6.69611C138.826 6.69611 139.466 6.88811 140.01 7.27211C140.554 7.65611 140.914 8.12811 141.09 8.68811H142.746C142.586 8.11211 142.33 7.64011 141.978 7.27211C141.626 6.88811 141.218 6.58411 140.754 6.36011C140.306 6.12011 139.818 5.96011 139.29 5.88011C138.778 5.78411 138.282 5.73611 137.802 5.73611C136.794 5.73611 135.906 5.90411 135.138 6.24011C134.37 6.56011 133.722 7.00011 133.194 7.56011C132.666 8.12011 132.266 8.77611 131.994 9.52811C131.738 10.2801 131.61 11.0801 131.61 11.9281C131.61 12.8241 131.754 13.6641 132.042 14.4481C132.33 15.2161 132.738 15.8881 133.266 16.4641C133.81 17.0241 134.458 17.4721 135.21 17.8081C135.962 18.1281 136.81 18.2881 137.754 18.2881C138.81 18.2881 139.73 18.1121 140.514 17.7601C141.314 17.4081 141.986 17.0241 142.53 16.6081L141.834 15.6961C141.274 16.1601 140.714 16.5041 140.154 16.7281C139.61 16.9361 139.01 17.0401 138.354 17.0401Z" fill="#202020"/>
<path d="M145.385 16.9681C145.385 16.6161 145.513 16.3121 145.769 16.0561C146.025 15.8001 146.329 15.6721 146.681 15.6721C147.033 15.6721 147.337 15.8001 147.593 16.0561C147.849 16.3121 147.977 16.6161 147.977 16.9681C147.977 17.3201 147.849 17.6241 147.593 17.8801C147.337 18.1361 147.033 18.2641 146.681 18.2641C146.329 18.2641 146.025 18.1361 145.769 17.8801C145.513 17.6241 145.385 17.3201 145.385 16.9681Z" fill="#202020"/>
</svg>
