<svg width="285" height="113" viewBox="0 0 285 113" fill="none" xmlns="http://www.w3.org/2000/svg">
<path d="M42.0519 73.5962C41.5718 73.9573 41.0917 74.4389 40.6116 74.8C39.6515 75.5223 38.6913 76.2447 37.7311 76.967C36.8909 77.5689 35.9307 78.0504 35.0905 78.532C34.9705 78.4116 34.8505 78.2912 34.7305 78.1708C35.6907 77.4485 36.6509 76.7262 37.8511 75.8835C37.371 75.8835 37.131 75.7631 37.0109 75.8835C35.8107 76.6058 34.6104 77.3281 33.4102 78.0504C31.3698 79.3747 29.3294 80.6989 27.289 82.1435C26.3288 82.8658 25.4886 83.7085 24.4084 84.3104C23.6883 84.6716 22.368 84.1901 22.488 85.7551C22.488 85.7551 22.248 85.8754 22.128 85.9958C20.9277 86.5978 19.7275 87.0793 18.6473 87.6812C16.2468 89.1258 13.7263 90.3297 10.9657 90.5704C10.0056 90.6908 8.80531 91.052 8.20519 89.7278C7.00496 87.0793 7.48505 84.4308 8.20519 81.7824C8.56527 80.2174 8.92534 78.6524 9.40543 77.0874C9.52546 76.4854 9.7655 75.8835 10.0056 75.2816C10.4856 75.7631 11.0858 76.1243 11.5659 76.6058C12.6461 77.93 14.8065 78.2912 16.0067 77.2077C18.7673 74.6797 21.6479 72.1516 24.1684 69.3827C25.6087 67.8177 27.529 66.3731 27.7691 63.845C27.7691 63.7246 27.8891 63.6042 28.0091 63.4839C29.6895 62.6412 29.6895 60.715 30.1696 59.3908C30.7697 57.9462 30.4096 55.8996 30.0495 54.2142C29.4494 51.4454 27.169 49.76 25.1286 48.0746C23.9283 47.1115 22.488 46.8707 21.1678 47.5931C19.1274 48.5561 17.087 49.5192 15.2866 50.8434C13.7263 51.9269 12.286 53.2511 11.0858 54.8162C9.52546 56.7423 8.20519 58.9092 6.88493 61.0762C6.16479 62.1596 5.68469 63.3635 5.08457 64.5673C4.00436 66.7343 2.80412 68.9012 1.84393 71.0681C1.24381 72.3923 1.12378 73.9574 0.643689 75.402C-0.436526 78.532 -0.0764546 81.7824 1.12378 84.6716C2.56407 88.1628 4.12438 91.8947 7.245 94.4228C9.40543 96.2285 11.6859 98.0343 14.6865 97.9139C15.8867 97.7935 17.207 97.5528 18.4072 97.1916C19.4874 96.8305 20.5677 96.2285 21.5278 95.6266C22.0079 95.3858 22.368 94.9043 22.8481 94.5432C24.8885 93.0985 26.9289 91.7743 28.9693 90.3297C29.9295 89.6074 31.2498 88.8851 31.4898 87.922C31.8499 86.4774 33.0501 86.1162 33.7703 85.1531C34.1304 84.6716 34.6104 84.3104 34.9705 83.8289C36.2908 82.1435 37.491 80.4581 38.6913 78.7727C38.9313 78.532 39.1714 78.2912 39.4114 78.0504C40.2516 77.2077 41.2118 76.4854 42.0519 75.5223C42.7721 74.8 43.2522 73.837 43.8523 72.9943C43.7323 72.8739 43.6122 72.7535 43.4922 72.6331C43.0121 72.8739 42.532 73.1146 42.0519 73.4758V73.5962ZM11.8059 69.7439C12.286 68.6604 12.8861 67.577 13.4862 66.4935C13.6063 66.2527 13.7263 65.8916 13.9663 65.6508C14.8065 64.8081 15.6467 63.9654 15.0466 63.0023C16.0067 62.1596 17.087 61.6781 17.327 60.8354C18.1672 58.6685 19.9675 57.4646 21.6479 56.1404C22.7281 55.2977 23.9283 54.5754 25.1286 53.8531C25.8487 53.3715 26.2088 53.6123 26.2088 54.455C26.0888 56.9831 25.1286 59.15 23.4482 61.0762C22.7281 61.9189 22.128 63.0023 21.4078 63.845C20.9277 64.3266 20.2076 64.5673 19.6075 65.0489C18.1672 66.2527 16.7269 67.577 15.2866 68.7808C14.0864 69.7439 12.8861 70.707 11.6859 71.67C11.5659 71.5497 11.4458 71.4293 11.3258 71.3089C11.5659 70.707 11.6859 70.105 11.9259 69.5031L11.8059 69.7439ZM31.3698 79.7358C31.9699 79.6154 32.57 79.495 33.1702 79.3747C33.1702 79.495 33.1702 79.6154 33.1702 79.7358C32.6901 80.4581 32.0899 80.3377 31.3698 79.6154V79.7358ZM43.2522 69.8643C44.6925 69.7439 45.4126 68.9012 45.6526 67.6973C44.8125 68.4196 43.9723 69.142 43.1321 69.8643H43.2522Z" fill="#1E365B"/>
<path d="M105.745 64.3266C104.785 64.3266 103.945 64.3266 103.585 64.8081C102.145 66.6139 100.824 68.54 99.504 70.4662C98.9039 71.3089 98.4238 72.272 97.7036 73.1146C97.2235 73.5962 96.8635 74.3185 95.7833 74.1981C95.3032 74.1981 94.583 74.9204 94.1029 75.402C93.1427 76.4854 92.4226 77.6893 91.4624 78.7727C90.2622 80.2174 89.0619 81.662 87.7417 82.9862C87.1415 83.5881 86.4214 83.9493 85.7012 84.4308C85.5812 83.9493 85.4612 83.8289 85.4612 83.7085C85.9413 78.7727 86.4214 73.837 87.0215 68.9012C87.2616 66.6139 88.7018 64.3266 86.9015 62.1596C86.9015 62.1596 86.9015 62.0392 86.9015 61.9189C86.1813 60.715 85.5812 59.5112 84.8611 58.4277C84.501 57.9462 83.9009 57.585 83.3008 57.4646C82.8207 57.3442 81.9805 57.3442 81.6204 57.7054C79.7001 59.7519 77.8997 61.9189 75.9793 63.9654C75.2592 64.6877 74.539 65.2896 75.4992 66.4935C74.0589 66.3731 74.0589 67.3362 73.9389 68.2993C73.5788 67.8177 73.3388 67.577 73.0987 67.2158C72.2586 68.2993 71.4184 69.2623 70.5782 70.2254C70.8183 70.4662 71.0583 70.707 71.0583 70.707C70.4582 71.3089 69.498 72.1516 69.618 72.3923C70.3382 73.7166 69.1379 73.5962 68.5378 74.0777C67.4576 74.9204 66.3774 75.8835 65.5372 76.967C64.8171 77.93 64.337 79.0135 63.6168 79.9766C63.4968 80.2174 63.1368 80.3377 62.6567 80.5785C63.2568 79.495 63.7369 78.6524 64.217 77.6893C63.6168 77.4485 63.2568 77.3281 62.6567 77.0874C63.2568 76.7262 63.6168 76.4854 63.9769 76.2447C64.337 76.0039 64.6971 75.8835 64.8171 75.6427C65.6572 73.837 65.2972 71.4293 67.2176 70.105C67.2176 70.105 67.2176 69.9846 67.2176 69.8643C68.2978 66.3731 69.498 62.8819 70.5782 59.3908C71.1784 57.4646 71.6584 55.5385 72.1385 53.6123C72.8587 50.7231 73.3388 47.7134 72.9787 44.7038C72.8587 43.7407 73.3388 42.4165 71.6584 41.935C71.0583 41.8146 70.5782 41.2127 70.2182 40.7311C69.618 40.1292 69.258 39.2865 68.5378 38.9254C67.6977 38.4438 66.6174 37.24 65.5372 38.3234C64.217 39.6477 62.1766 40.37 61.6965 42.5369C61.5764 43.0184 60.9763 43.3796 60.7363 43.8611C60.1362 44.8242 58.9359 45.1854 58.6959 46.3892C58.5758 46.9911 57.9757 47.5931 57.6157 48.195C56.8955 49.1581 55.8153 50.0008 56.1754 51.325C54.9751 52.2881 53.6549 53.1308 52.8147 54.3346C51.9745 55.5385 51.6145 57.1035 51.0143 58.4277C50.8943 58.4277 50.7743 58.4277 50.6543 58.4277C49.8141 56.1404 47.6537 55.0569 45.9733 53.4919C45.6133 53.1308 45.2532 52.89 44.8931 52.6492C44.173 52.2881 43.8129 52.4085 43.5729 53.3715C43.0928 55.4181 42.6127 57.585 41.8925 59.6315C40.8123 62.5208 39.372 65.2896 38.1718 68.1789C37.3316 70.105 36.7315 72.1516 35.8913 74.0777C34.211 78.2912 32.4106 82.5047 31.6905 87.0793C31.3304 89.6074 31.6905 92.0151 32.4106 94.4228C32.6507 95.1451 33.2508 95.9878 33.8509 96.2285C35.0512 96.7101 37.5717 95.0247 37.8117 93.7005C38.2918 91.4131 38.6519 89.1258 39.372 86.9589C39.8521 85.3939 40.5723 83.7085 41.6525 82.6251C42.6127 81.662 43.0928 80.5785 43.8129 79.6154C45.6133 77.3281 47.1736 74.8 48.7339 72.3923C48.9739 72.1516 49.214 71.9108 49.214 71.5496C49.454 69.8643 51.3744 69.1419 51.4944 67.4566C51.4944 66.8546 51.8545 66.2527 52.2146 65.7712C53.7749 63.6042 55.4552 61.5577 57.0155 59.3908C58.6959 57.1035 60.2562 54.8162 61.9365 52.5288C62.8967 51.2046 63.8569 50.0008 64.8171 48.7969C64.9371 48.7969 65.0571 48.7969 65.1772 48.7969C65.0571 49.5192 64.9371 50.2415 64.8171 50.8434C64.457 52.4085 63.9769 53.9735 63.6168 55.5385C63.0167 57.7054 62.5366 59.8723 61.8165 61.9189C61.0963 64.2062 60.2562 66.4935 59.296 68.7808C58.0957 71.67 56.6555 74.4389 55.5752 77.3281C54.7351 79.7358 54.135 82.2639 53.5348 84.792C53.2948 85.8755 52.9347 86.9589 53.0547 88.0424C53.5348 90.8112 54.7351 93.3393 57.2556 94.9043C58.0957 95.5062 59.296 95.9878 60.2562 95.9878C61.2164 95.9878 62.0565 94.182 61.9365 93.0985C62.5366 92.617 63.1368 92.2558 63.4968 91.6539C63.7369 91.4131 63.3768 90.8112 63.6168 90.4501C64.0969 89.487 64.6971 88.6443 65.2972 87.8016C66.1374 86.7181 66.9775 85.6347 67.6977 84.4308C68.7779 82.7454 69.618 80.9397 70.8183 79.3747C72.8587 76.4854 75.0191 73.7166 77.1796 70.9477C77.7797 70.105 78.6198 69.5031 79.34 68.7808C79.34 70.3458 79.22 71.7904 78.8599 73.235C78.0197 76.1243 78.3798 79.1339 78.9799 81.9027C79.8201 85.9958 82.2206 89.2462 85.9413 91.4132C87.9817 92.617 88.5818 92.4966 90.2622 90.9316C92.0625 89.2462 92.9027 86.9589 94.463 85.1531C95.0631 84.4308 95.7833 83.7085 96.2633 82.8658C97.3436 80.9397 98.3038 78.8931 99.384 76.967C99.744 76.2447 100.344 75.6427 100.704 74.9204C101.184 73.837 101.424 72.6331 102.024 71.67C102.505 70.9477 102.625 70.4662 102.265 69.9846C103.225 68.1789 104.185 66.3731 105.145 64.5673L105.745 64.3266Z" fill="#1E365B"/>
<path d="M133.886 69.0216C132.446 70.4662 130.405 69.2623 128.965 70.5866C128.605 70.5866 128.125 70.4662 127.765 70.5866C126.685 70.9477 125.604 71.4293 124.524 71.9108C124.164 72.0312 123.804 72.1516 123.564 72.272C124.284 68.54 125.004 64.9285 125.604 61.3169C125.845 59.6315 125.364 57.8258 126.325 56.1404C126.445 56.02 126.325 55.7792 126.205 55.6588C125.364 53.9735 124.764 52.0473 123.564 50.7231C121.764 48.6765 119.603 46.9911 117.443 45.3057C116.483 44.5834 115.162 44.2223 113.962 43.7407C112.282 46.2688 110.722 48.4358 109.401 50.7231C107.721 53.4919 106.161 56.2608 104.6 59.0296C101.6 64.4469 100.399 70.5866 98.3591 76.365C97.5189 78.6524 96.9188 81.0601 95.9586 83.3474C94.9984 85.6347 94.6383 88.0424 94.8784 90.5704C94.9984 91.7743 95.2385 93.0985 95.9586 93.9412C97.6389 95.8674 99.4393 97.7935 101.48 99.3586C103.88 101.285 105.681 100.924 107.841 98.7566C108.681 97.7935 109.521 96.8305 110.241 95.747C112.162 92.8578 114.322 90.0889 116.363 87.1997C116.963 86.357 117.923 85.6347 117.563 84.3104C117.563 84.1901 117.923 83.8289 118.163 83.5881C118.283 83.4678 118.523 83.3474 118.523 83.227C118.523 81.5416 119.723 80.5785 120.924 79.7358C123.204 78.0504 125.965 76.967 128.005 74.8C128.125 74.6796 128.245 74.5593 128.365 74.5593C129.445 74.9204 129.925 74.1981 130.646 73.5962C131.966 72.272 133.406 71.0681 134.846 69.8643C134.726 69.6235 134.606 69.3827 134.486 69.142L133.886 69.0216ZM112.162 50.0008C112.282 50.0008 112.402 50.0008 112.522 50.0008C110.121 54.3346 107.721 58.6685 105.32 63.0023C105.2 62.8819 105.08 62.7616 104.96 62.6412C107.241 58.1869 109.281 53.6123 112.282 49.6396L112.162 50.0008ZM101 93.9412C100.52 88.0424 103.28 83.227 104.6 78.0504C106.881 79.3747 109.041 80.5785 111.322 81.9027C108.201 85.9958 105.44 90.5705 101.12 94.182L101 93.9412ZM118.523 68.54C117.803 70.2254 117.323 72.0312 116.483 73.5962C116.123 74.1981 115.282 74.8 114.562 75.0408C112.642 75.5223 110.722 75.7631 108.801 76.1243C107.841 76.2447 107.361 75.8835 107.481 74.9204C107.601 73.9573 107.601 72.8739 107.961 71.9108C109.041 69.0216 110.602 66.2527 111.202 63.2431C111.562 61.5577 112.762 60.3539 112.882 58.6685C113.002 58.0665 113.722 57.4646 114.082 56.8627C115.282 55.0569 116.363 53.2511 117.563 51.4454C118.043 50.7231 118.763 50.1211 119.603 49.2784C121.404 53.1308 121.044 56.8627 120.924 60.8354C121.164 60.5946 121.284 60.4742 121.284 60.3539C121.284 60.2335 121.284 60.1131 121.284 59.9927C121.404 59.9927 121.524 59.9927 121.644 59.9927C121.644 60.715 121.764 61.4373 121.644 62.1596C121.524 63.0023 121.404 63.845 121.044 64.4469C120.684 65.0489 119.963 65.41 119.363 65.8916C119.483 66.0119 119.603 66.1323 119.723 66.2527C119.963 66.2527 120.203 66.2527 120.563 66.2527C120.443 66.6139 120.323 66.975 120.203 66.975C118.883 66.975 118.883 68.1789 118.523 68.9012V68.54ZM123.564 66.1323C122.604 66.8546 123.324 67.8177 123.084 68.6604C122.604 70.2254 122.124 71.7904 121.404 73.235C121.164 73.7166 120.203 73.837 119.603 74.0777C119.483 73.9574 119.363 73.837 119.243 73.7166C119.843 72.1516 120.563 70.5866 121.164 68.9012C121.404 68.2993 121.404 67.6973 121.644 67.0954C121.884 66.6139 122.244 66.1323 122.484 65.6508C122.604 65.41 122.724 65.1693 122.724 64.9285C122.604 64.4469 122.364 63.9654 122.364 63.4839C122.604 60.4742 122.844 57.4646 123.084 54.3346C124.044 56.02 124.404 57.585 122.964 59.3908C123.684 59.2704 123.924 59.2704 124.404 59.2704C124.044 61.5577 123.684 63.7246 123.324 65.8916C123.324 66.0119 123.324 66.2527 123.204 66.2527L123.564 66.1323ZM120.563 62.1596C120.323 62.1596 120.083 62.1596 119.843 62.1596C119.603 63.0023 119.363 63.845 119.123 64.6877C119.243 64.6877 119.363 64.6877 119.483 64.6877C119.723 63.845 119.963 63.0023 120.203 62.1596H120.563Z" fill="#1E365B"/>
<path d="M192.707 27.8499C192.587 27.7296 192.467 27.6092 192.467 27.4888C192.587 25.5626 191.027 25.3219 189.707 25.0811C188.146 24.7199 186.586 24.5996 185.026 24.3588C185.026 24.2384 185.026 23.9976 185.146 23.7569C183.825 24.4792 182.865 24.3588 182.385 23.5161C181.905 23.6365 181.425 23.8772 180.945 23.8772C177.464 23.7569 173.984 23.5161 170.503 23.3957C170.143 23.3957 169.663 23.7569 169.423 24.118C168.942 24.7199 168.342 24.8403 167.622 24.2384C167.982 24.118 168.342 23.9976 168.702 23.8772C168.702 23.7569 168.702 23.6365 168.702 23.5161C167.742 23.5161 166.782 23.5161 165.822 23.5161C165.822 23.6365 165.822 23.7569 165.822 23.8772C166.182 23.9976 166.542 24.118 166.902 24.2384C166.902 24.3588 166.902 24.4792 166.902 24.5996C165.342 24.5996 163.781 24.5996 162.221 24.5996C162.461 24.4792 162.821 24.3588 163.181 24.2384C163.181 24.118 163.181 23.9976 163.181 23.8772C161.861 23.8772 160.541 23.8772 159.221 23.8772C159.221 23.9976 159.221 24.118 159.221 24.2384C159.821 24.3588 160.421 24.4792 161.021 24.5996C161.021 24.7199 161.021 24.8403 161.021 24.9607C160.181 24.9607 159.341 24.9607 158.38 24.9607C158.62 24.7199 158.74 24.4792 158.86 24.2384C158.26 24.118 157.78 23.9976 157.3 23.8772C157.42 23.2753 157.54 22.6734 157.78 22.0715C159.341 17.6172 161.021 13.163 162.581 8.70875C163.061 7.50491 163.661 6.18067 163.541 4.97682C163.421 3.65259 163.061 2.08758 161.381 1.48566C160.541 1.24489 159.821 0.763354 159.101 0.402197C157.54 -0.440501 156.58 0.0410394 156.46 1.84682C156.46 2.32835 156.34 2.80989 156.22 3.29143C155.5 5.33798 154.9 7.50491 154.06 9.55144C153.459 10.9961 154.06 12.9222 152.379 14.0057C152.259 14.1261 152.139 14.6076 152.259 14.728C153.099 16.0522 151.899 17.0153 151.659 18.0988C151.059 20.3861 150.099 22.553 149.259 24.7199C149.019 25.3219 148.658 26.0442 148.178 26.4053C147.578 26.7665 146.738 26.7665 146.018 26.8869C145.178 27.0072 144.338 27.0072 143.497 27.0072C143.497 27.0072 143.497 26.7665 143.497 26.6461C142.657 27.1276 141.817 27.8499 140.977 27.9703C140.137 28.0907 139.177 27.6092 138.096 27.3684C138.336 28.9334 137.496 29.4149 135.336 28.9334C136.176 28.6926 136.896 28.4519 137.736 28.2111C136.536 27.6092 133.175 28.2111 132.215 28.9334C131.855 29.1742 131.255 29.1742 130.775 29.2946C130.535 29.4149 130.295 29.5353 129.815 29.6557C130.415 29.7761 130.655 29.8965 130.895 30.0169C130.895 30.1373 130.895 30.2576 130.895 30.378C130.295 30.378 129.695 30.378 128.975 30.2576C128.855 30.378 128.614 30.6188 128.494 30.7392C127.414 30.6188 126.574 30.4984 125.734 30.378C125.494 30.4984 125.134 30.9799 124.774 30.9799C123.093 30.9799 121.773 31.943 119.973 31.943C118.052 31.943 116.132 32.9061 114.332 33.6284C112.531 34.3507 110.851 35.3138 109.171 36.1565C107.85 36.7584 106.41 37.24 105.09 37.9623C104.73 38.203 104.25 38.9254 104.37 39.2865C104.61 40.37 105.09 41.4534 105.57 42.5369C105.93 43.2592 106.41 43.3796 107.13 42.898C108.811 41.8146 110.491 40.7311 112.171 39.8884C113.732 39.1661 115.412 38.6846 116.972 38.0827C119.973 36.8788 122.973 35.675 126.094 34.7119C128.254 33.9896 130.655 33.7488 132.935 33.2673C134.136 33.0265 135.336 32.545 136.536 32.4246C137.496 32.4246 137.976 32.1838 138.096 31.7023C141.097 31.4615 143.978 31.2207 147.098 30.9799C146.618 31.4615 146.258 31.5819 146.258 31.8226C146.138 32.6653 146.258 33.6284 146.018 34.4711C144.578 38.5642 143.017 42.6573 141.697 46.7504C140.017 51.6861 138.456 56.6219 136.896 61.5577C135.456 65.8916 134.016 70.3458 132.815 74.8C131.855 78.1708 131.015 81.5416 130.295 84.9124C129.815 87.1997 129.455 89.487 129.095 91.7743C128.855 93.4597 128.855 95.1451 128.734 96.8305C128.254 100.683 128.734 104.294 131.735 107.184C132.335 107.785 133.055 108.387 133.775 108.989C134.856 109.832 135.816 110.915 137.016 111.397C138.937 112.119 141.097 112.48 143.017 110.915C144.218 109.832 145.898 109.23 146.138 107.304C146.138 107.184 146.378 107.063 146.498 106.943C147.218 105.98 148.058 105.017 148.658 103.933C149.859 101.887 150.939 99.8401 152.139 97.7935C152.259 97.6732 152.259 97.4324 152.259 97.1916C152.379 96.1082 152.259 94.9043 152.619 93.9412C153.219 92.4966 154.06 91.1724 154.9 89.8481C155.86 88.4035 156.82 86.9589 157.78 85.5143C157.66 85.3939 157.54 85.2735 157.42 85.1531C157.06 85.6347 156.7 86.1162 156.34 86.5978C155.5 87.6812 154.66 88.8851 153.819 89.9685C152.379 91.7743 150.939 93.7005 149.499 95.5062C148.298 96.9509 147.458 98.877 144.938 99.5993C145.538 98.3955 146.018 97.4324 146.498 96.4693C146.378 96.4693 146.258 96.4693 146.138 96.4693C145.178 97.6732 144.218 98.877 143.017 100.322C143.737 100.201 143.978 100.201 144.578 100.081C143.257 101.646 142.177 102.97 141.097 104.294C140.977 104.174 140.857 104.054 140.737 103.933C141.457 103.09 142.177 102.248 142.897 101.405C142.777 101.285 142.657 101.164 142.537 101.044C140.977 102.729 139.417 104.415 137.856 106.1C137.256 106.822 135.696 106.702 135.576 105.859C135.216 103.933 134.736 102.007 134.736 100.081C134.856 97.5528 135.216 95.0247 135.696 92.617C136.416 88.6443 137.256 84.6716 138.096 80.6989C138.336 79.495 138.696 78.4116 139.057 77.3281C139.297 76.4854 139.537 75.6427 139.777 74.9204C140.017 74.0777 140.497 73.3554 140.737 72.5127C140.857 72.0312 140.497 71.4293 140.737 71.0681C141.697 69.2623 142.057 67.3362 142.657 65.41C143.377 62.8819 144.218 60.4742 145.058 58.0665C145.178 57.585 145.538 57.2238 145.658 56.7423C146.258 54.6958 146.858 52.6492 147.578 50.6027C148.178 48.6765 149.019 46.8708 149.499 44.9446C149.979 42.7777 151.419 40.8515 151.299 38.4438C152.379 37.6011 152.259 36.2769 152.619 35.1934C152.859 34.5915 153.339 34.11 153.579 33.508C153.94 32.545 154.18 31.4615 154.54 30.4984C154.66 30.2576 154.9 30.0169 155.14 29.8965C156.58 29.0538 158.38 30.378 159.821 29.1742C159.821 29.1742 159.941 29.4149 160.061 29.4149C161.261 29.7761 162.221 29.4149 162.341 28.3315C160.061 28.3315 157.78 28.3315 155.5 28.3315C155.5 28.2111 155.5 28.0907 155.5 27.9703C156.7 27.8499 157.66 26.7665 159.101 27.248C159.821 27.4888 160.661 27.3684 161.381 27.248C162.221 27.0072 162.941 26.5257 163.781 27.248C163.901 27.3684 164.262 27.248 164.502 27.248C166.062 27.248 167.622 27.1276 169.183 27.1276C169.783 27.1276 170.383 27.248 170.983 27.248C172.543 27.248 174.104 27.248 175.664 27.3684C175.904 27.3684 176.144 27.8499 176.504 28.2111C171.703 28.2111 167.142 28.2111 162.581 28.2111C162.821 28.6926 163.181 29.0538 163.541 29.0538C166.782 29.1742 170.023 29.1742 173.263 29.2946C175.664 29.4149 178.064 29.6557 180.465 30.0169C182.505 30.2576 184.546 31.1003 186.586 31.1003C188.746 31.1003 190.307 32.4246 192.227 32.9061C193.187 31.8226 193.187 30.6188 192.227 29.4149L192.707 27.8499ZM128.494 32.6653C128.734 31.943 130.655 31.2207 131.615 31.1003C132.815 30.9799 134.016 30.4984 135.456 30.1373C134.736 31.2207 131.015 32.3042 128.374 32.4246L128.494 32.6653ZM137.496 30.378C137.016 30.378 136.536 30.2576 136.056 30.1373C136.056 30.0169 136.056 29.8965 136.056 29.7761C136.416 29.7761 136.776 29.8965 137.136 29.7761C137.496 29.6557 137.736 29.2946 138.336 28.813C138.576 29.4149 138.696 29.7761 138.817 30.1373C138.456 30.2576 138.096 30.378 137.736 30.378H137.496ZM143.978 29.4149C142.897 29.6557 141.817 29.8965 140.737 30.0169C140.377 30.0169 140.017 29.7761 139.657 29.6557C139.657 29.4149 139.657 29.1742 139.657 28.9334C141.697 28.6926 143.737 28.5723 145.778 28.2111C146.258 28.0907 146.618 27.6092 147.098 27.248C147.218 27.3684 147.338 27.4888 147.458 27.6092C147.218 27.9703 147.098 28.5723 146.738 28.6926C145.898 29.0538 144.938 29.1742 143.978 29.2946V29.4149ZM136.416 62.7616C137.016 61.3169 137.136 59.8723 137.616 58.4277C139.297 53.8531 140.737 49.1581 142.297 44.5834C143.497 41.333 144.818 38.0827 146.018 34.8323C146.498 33.6284 146.858 32.4246 147.338 31.2207C147.578 30.7392 147.938 30.2576 148.178 29.7761C148.298 29.7761 148.418 29.7761 148.538 29.7761C148.178 31.2207 147.818 32.6653 147.338 34.11C147.098 35.073 146.498 35.9157 146.258 36.8788C145.418 39.4069 145.058 42.0554 143.858 44.3427C142.777 46.3892 142.657 48.6765 141.817 50.8434C140.737 53.6123 140.017 56.5015 139.057 59.2704C138.937 59.6315 138.456 59.9927 138.456 60.2335C138.576 60.8354 137.856 61.7985 139.057 62.0392C139.057 62.0392 139.057 62.5208 139.057 62.7616C138.576 62.5208 138.096 62.28 137.856 62.1596C137.616 63.0023 137.496 63.7246 137.256 64.4469C136.896 66.0119 135.936 67.6973 136.176 69.142C136.416 70.3458 136.176 71.1885 135.936 72.1516C135.936 72.272 135.816 72.3923 135.576 72.6331C135.576 71.4293 135.576 70.4662 135.576 69.5031C135.456 69.5031 135.336 69.5031 135.216 69.5031C135.216 69.7439 135.216 69.9846 135.096 70.4662C134.856 70.4662 134.496 70.4662 134.136 70.4662C134.976 67.8177 135.696 65.1693 136.776 62.6412L136.416 62.7616ZM131.495 82.0231C132.215 79.1339 132.935 76.2447 133.655 73.3554C133.896 72.3923 134.016 71.4293 134.136 70.4662C135.096 71.0681 134.856 72.1516 134.736 72.8739C134.496 74.4389 133.896 75.8835 133.535 77.4485C133.415 78.0504 133.535 78.6524 133.535 79.3747C133.535 79.3747 133.295 79.3747 133.055 79.3747C132.815 80.5785 132.575 81.7824 132.335 82.9862C132.215 82.9862 132.095 82.9862 131.975 82.9862C131.735 82.6251 131.375 82.1435 131.495 81.7824V82.0231ZM130.295 92.8578C130.055 94.3024 129.815 95.747 129.335 97.1916C129.575 94.6635 129.815 92.1355 130.055 89.6074C130.895 90.5705 130.655 91.6539 130.535 92.7374L130.295 92.8578ZM132.215 84.4308C131.615 85.6347 131.495 87.0793 131.135 88.4035C131.015 88.7647 130.535 89.0055 130.175 89.3666C130.535 87.1997 130.895 85.0328 131.255 82.7454C132.335 82.9862 132.815 83.1066 132.335 84.1901L132.215 84.4308ZM135.936 85.3939C135.816 85.3939 135.696 85.3939 135.576 85.3939C135.816 84.4308 136.056 83.4677 136.296 82.5047C136.416 82.5047 136.536 82.5047 136.656 82.5047C136.416 83.4677 136.176 84.4308 135.936 85.3939ZM140.137 69.6235C139.417 71.67 138.937 73.837 138.336 75.8835C137.976 76.967 137.616 78.0504 137.136 79.0135C137.616 75.0408 138.937 71.3089 140.257 67.577C140.617 68.2993 140.377 68.9012 140.137 69.6235ZM142.417 59.2704C142.777 58.7889 143.257 58.3073 143.497 57.7054C144.578 54.455 145.658 51.0842 146.738 47.7134C147.578 45.1854 148.418 42.6573 149.259 40.1292C149.379 39.8884 149.619 39.6477 149.979 39.5273C149.739 40.37 149.619 41.2127 149.379 42.0554C148.778 43.7407 148.178 45.4261 147.578 47.1115C146.858 49.1581 146.138 51.2046 145.418 53.2511C144.578 55.6588 143.737 58.0665 142.897 60.4742C142.297 62.5208 141.697 64.5673 140.977 66.6139C140.857 66.975 140.497 67.2158 140.257 67.4566C140.377 66.7343 140.617 66.0119 140.857 65.0489C139.777 65.7712 137.856 71.67 137.256 74.4389C136.536 77.6893 135.456 80.8193 134.736 84.0697C134.016 87.3201 133.415 90.5705 132.815 93.8208C132.695 93.8208 132.575 93.8208 132.455 93.8208C132.575 92.8578 132.575 91.8947 132.815 90.9316C133.655 86.7181 134.496 82.3843 135.576 78.1708C136.416 74.5593 137.616 71.0681 138.696 67.577C140.137 62.6412 141.577 57.7054 143.137 52.7696C143.978 50.1211 145.058 47.5931 146.018 45.065C146.858 42.6573 147.578 40.1292 148.418 37.7215C149.019 35.9157 149.739 34.2303 150.579 32.545C149.619 37.1196 147.698 41.4534 146.258 45.9077C144.818 50.4823 143.257 54.9365 141.697 59.5112C141.817 59.5112 141.937 59.6315 142.057 59.7519L142.417 59.2704ZM150.699 24.9607C150.579 24.9607 150.459 24.9607 150.339 24.9607C150.819 23.3957 151.299 21.8307 151.779 20.2657C151.779 22.0715 151.779 23.8772 150.579 25.3219L150.699 24.9607ZM152.019 33.6284C151.899 33.6284 151.779 33.6284 151.659 33.6284C152.019 32.6653 152.379 31.7023 152.739 30.7392C152.859 30.8596 152.979 30.9799 153.099 31.1003C152.739 32.0634 152.379 33.0265 152.019 33.9896V33.6284ZM173.743 26.2849C173.743 26.1646 173.743 26.0442 173.743 25.9238C174.824 25.9238 175.904 25.9238 176.984 25.9238C176.984 26.0442 176.984 26.1646 176.984 26.2849C175.904 26.2849 174.824 26.2849 173.743 26.2849ZM181.185 28.813C180.105 28.6926 179.025 28.6926 177.944 28.5723C177.704 28.5723 177.464 28.3315 177.104 28.2111C178.424 27.4888 181.185 27.8499 182.265 28.9334C181.905 28.9334 181.665 28.9334 181.425 28.9334L181.185 28.813ZM140.017 65.7712C140.137 65.7712 140.257 65.7712 140.377 65.7712C140.857 64.2062 142.177 62.8819 141.817 61.0762C141.697 61.0762 141.577 61.0762 141.457 61.0762C140.977 62.6412 140.497 64.2062 140.017 65.7712Z" fill="#1E365B"/>
<path d="M175.862 75.0408C175.982 74.8 176.102 74.5593 176.222 74.3185C176.462 74.4389 176.702 74.5593 176.702 74.5593C177.902 72.6331 179.102 70.8273 180.303 69.0216C179.822 69.142 179.462 69.3827 179.222 69.6235C176.942 72.0312 174.661 74.5593 172.381 76.967C170.581 78.8931 168.78 80.8193 166.98 82.6251C165.54 84.0697 163.979 85.5143 162.419 86.9589C161.219 88.0424 159.778 88.8851 157.978 89.0055C158.098 88.1628 158.098 87.3201 158.098 86.4774C158.218 85.1531 158.098 83.8289 158.458 82.6251C159.058 80.5785 159.899 78.6524 160.619 76.6058C161.219 74.9204 161.579 72.9943 162.419 71.4293C163.739 69.0216 163.979 66.2527 165.3 63.845C165.9 62.7616 166.14 61.5577 166.5 60.3539C166.98 59.15 167.46 57.9462 166.62 56.6219C166.38 56.1404 166.02 55.6588 165.9 55.1773C165.42 53.2511 164.099 52.0473 162.419 51.325C161.819 51.0842 160.859 50.8435 160.499 51.9269C159.899 54.0938 159.418 56.2608 158.698 58.3073C158.098 59.9927 157.258 61.6781 156.658 63.3635C156.058 65.0489 155.458 66.7343 154.858 68.4196C154.017 71.0681 153.177 73.7166 152.337 76.365C151.497 79.1339 151.017 82.1435 151.377 85.0328C151.737 87.3201 151.977 90.0889 154.737 91.5335C156.178 92.2558 157.258 93.7005 158.698 94.5432C159.778 95.1451 161.339 95.6266 162.419 95.2655C164.339 94.6635 165.78 93.2189 167.1 91.6539C167.7 90.9316 167.58 89.3666 169.38 89.8481C169.02 89.3666 168.9 89.1258 168.9 89.1258C169.5 88.2831 169.981 87.5608 170.581 86.5978C170.701 86.4774 171.181 86.2366 171.661 85.9958C171.541 85.6347 171.301 85.1531 171.421 85.0328C172.141 84.0697 172.621 82.9862 173.101 81.7824C173.461 81.0601 174.301 80.4581 174.781 79.7358C175.502 78.7727 176.222 77.6893 176.942 76.7262C178.022 75.2816 179.102 73.837 180.063 72.3923C180.303 72.1516 180.423 71.7904 180.543 71.5496C180.063 71.5496 179.822 71.7904 179.582 72.0312C178.022 73.9574 176.462 75.8835 174.781 77.8097C174.541 78.0504 174.061 78.1708 173.701 78.2912C174.541 77.3281 175.382 76.365 176.102 75.402C176.342 75.1612 176.342 74.6797 176.462 74.3185L175.862 75.0408ZM173.101 80.097C172.381 80.8193 171.541 81.4212 170.701 82.1435C170.581 82.0231 170.461 81.9027 170.341 81.7824C171.421 80.6989 172.501 79.6154 173.581 78.532C173.341 79.1339 173.221 79.8562 172.861 80.2174L173.101 80.097ZM181.143 22.7938C179.342 20.8676 177.182 19.5434 174.661 18.9415C174.181 18.8211 173.581 19.3026 173.101 19.5434C173.701 20.8676 172.621 21.9511 172.381 23.1549C172.021 24.9607 171.541 26.7665 170.941 28.4519C170.101 30.9799 169.02 33.508 168.18 36.0361C167.82 37.24 167.7 38.5642 167.46 40.1292C167.58 40.6107 167.7 41.4534 168.06 42.1757C168.3 42.7777 168.9 43.2592 169.38 42.4165C170.221 41.0923 170.821 39.6477 171.541 38.3234C171.901 37.6011 172.381 36.5177 172.981 36.3973C174.541 36.0361 175.502 34.7119 175.982 33.7488C176.822 32.0634 177.662 30.4984 178.862 29.0538C179.943 27.7296 180.663 26.1646 181.623 24.7199C182.103 23.8772 181.983 23.1549 181.383 22.553L181.143 22.7938Z" fill="#1E365B"/>
<path d="M210.425 69.0216C208.985 70.4662 206.944 69.2623 205.504 70.5866C205.144 70.5866 204.664 70.4662 204.304 70.5866C203.223 70.9477 202.143 71.4293 201.063 71.9108C200.703 72.0312 200.343 72.1516 200.103 72.272C200.823 68.54 201.543 64.9285 202.143 61.3169C202.383 59.6315 201.903 57.8258 202.863 56.1404C202.983 56.02 202.863 55.7792 202.743 55.6588C201.903 53.9735 201.303 52.0473 200.103 50.7231C198.302 48.6765 196.142 46.9911 193.982 45.3057C193.021 44.5834 191.701 44.2223 190.501 43.7407C188.821 46.2688 187.26 48.4358 185.94 50.7231C184.26 53.4919 182.699 56.2608 181.139 59.0296C178.138 64.4469 176.938 70.5866 174.898 76.365C174.058 78.6524 173.457 81.0601 172.497 83.3474C171.537 85.6347 171.177 88.0424 171.417 90.5704C171.537 91.7743 171.777 93.0985 172.497 93.9412C174.178 95.8674 175.978 97.7935 178.018 99.3586C180.419 101.285 182.219 100.924 184.38 98.7566C185.22 97.7935 186.06 96.8305 186.78 95.747C188.7 92.8578 190.861 90.0889 192.901 87.1997C193.501 86.357 194.462 85.6347 194.102 84.3104C194.102 84.1901 194.462 83.8289 194.702 83.5881C194.822 83.4678 195.062 83.3474 195.062 83.227C195.062 81.5416 196.262 80.5785 197.462 79.7358C199.743 78.0504 202.503 76.967 204.544 74.8C204.664 74.6796 204.784 74.5593 204.904 74.5593C205.984 74.9204 206.464 74.1981 207.184 73.5962C208.504 72.272 209.945 71.0681 211.385 69.8643C211.265 69.6235 211.145 69.3827 211.025 69.142L210.425 69.0216ZM188.7 50.0008C188.821 50.0008 188.941 50.0008 189.061 50.0008C186.66 54.3346 184.26 58.6685 181.859 63.0023C181.739 62.8819 181.619 62.7616 181.499 62.6412C183.78 58.1869 185.82 53.6123 188.821 49.6396L188.7 50.0008ZM177.538 93.9412C177.058 88.0424 179.819 83.227 181.139 78.0504C183.419 79.3747 185.58 80.5785 187.86 81.9027C184.74 85.9958 181.979 90.5705 177.658 94.182L177.538 93.9412ZM195.062 68.54C194.342 70.2254 193.862 72.0312 193.021 73.5962C192.661 74.1981 191.821 74.8 191.101 75.0408C189.181 75.5223 187.26 75.7631 185.34 76.1243C184.38 76.2447 183.9 75.8835 184.02 74.9204C184.14 73.9573 184.14 72.8739 184.5 71.9108C185.58 69.0216 187.14 66.2527 187.74 63.2431C188.1 61.5577 189.301 60.3539 189.421 58.6685C189.541 58.0665 190.261 57.4646 190.621 56.8627C191.821 55.0569 192.901 53.2511 194.102 51.4454C194.582 50.7231 195.302 50.1211 196.142 49.2784C197.942 53.1308 197.582 56.8627 197.462 60.8354C197.702 60.5946 197.822 60.4742 197.822 60.3539C197.822 60.2335 197.822 60.1131 197.822 59.9927C197.942 59.9927 198.062 59.9927 198.182 59.9927C198.182 60.715 198.302 61.4373 198.182 62.1596C198.062 63.0023 197.942 63.845 197.582 64.4469C197.222 65.0489 196.502 65.41 195.902 65.8916C196.022 66.0119 196.142 66.1323 196.262 66.2527C196.502 66.2527 196.742 66.2527 197.102 66.2527C196.982 66.6139 196.862 66.975 196.742 66.975C195.422 66.975 195.422 68.1789 195.062 68.9012V68.54ZM200.103 66.1323C199.143 66.8546 199.863 67.8177 199.623 68.6604C199.143 70.2254 198.662 71.7904 197.942 73.235C197.702 73.7166 196.742 73.837 196.142 74.0777C196.022 73.9574 195.902 73.837 195.782 73.7166C196.382 72.1516 197.102 70.5866 197.702 68.9012C197.942 68.2993 197.942 67.6973 198.182 67.0954C198.422 66.6139 198.783 66.1323 199.023 65.6508C199.143 65.41 199.263 65.1693 199.263 64.9285C199.143 64.4469 198.903 63.9654 198.903 63.4839C199.143 60.4742 199.383 57.4646 199.623 54.3346C200.583 56.02 200.943 57.585 199.503 59.3908C200.223 59.2704 200.463 59.2704 200.943 59.2704C200.583 61.5577 200.223 63.7246 199.863 65.8916C199.863 66.0119 199.863 66.2527 199.743 66.2527L200.103 66.1323ZM197.102 62.1596C196.862 62.1596 196.622 62.1596 196.382 62.1596C196.142 63.0023 195.902 63.845 195.662 64.6877C195.782 64.6877 195.902 64.6877 196.022 64.6877C196.262 63.845 196.502 63.0023 196.742 62.1596H197.102Z" fill="#1E365B"/>
<path d="M242.577 85.1531C241.617 85.5143 240.657 85.0328 240.657 84.1901C240.777 83.227 240.657 82.2639 240.777 81.3008C240.897 80.5785 241.377 79.9766 241.497 79.2543C241.617 78.0504 241.497 76.8466 241.737 75.7631C242.097 73.9574 242.577 72.1516 243.177 70.4662C243.537 69.3827 244.137 68.4196 243.657 67.2158C243.537 66.975 243.777 66.4935 243.897 66.1323C244.137 65.2896 244.498 64.4469 244.498 63.6042C244.498 62.7616 244.137 61.7985 244.257 60.9558C244.858 57.8258 244.618 55.0569 242.097 52.7696C241.857 52.5288 241.977 51.9269 241.857 51.4454C241.737 51.0842 241.617 50.6027 241.377 50.4823C240.537 50.0008 239.577 49.6396 238.616 49.2784C238.376 49.1581 237.896 49.0377 237.776 48.7969C237.296 47.3523 235.976 47.4727 234.896 47.3523C232.135 46.8708 230.815 49.1581 229.014 50.6027C228.774 50.7231 228.774 51.0842 228.654 51.4454C229.975 51.0842 230.335 49.3988 232.135 49.76C229.735 52.0473 227.574 54.0938 225.414 56.1404C225.534 56.1404 225.654 56.1404 225.774 56.1404C225.654 56.6219 225.654 57.2239 225.414 57.585C224.934 58.4277 224.214 59.15 223.613 59.8723C223.373 60.1131 223.133 60.3539 222.893 60.5946H222.773C223.013 59.9927 223.253 59.3908 223.493 58.7888C223.373 58.7888 223.253 58.7888 223.133 58.7888C223.133 59.7519 221.453 60.1131 222.293 61.5577C219.052 63.6042 217.372 67.0954 215.212 70.2254C215.092 70.2254 214.972 70.2254 214.852 70.2254C214.972 69.8643 215.092 69.5031 215.212 69.142C215.692 67.6973 216.292 66.2527 216.772 64.8081C217.972 60.715 219.293 56.6219 220.253 52.4085C220.613 50.9638 220.013 49.3988 219.773 47.8338C219.773 47.7134 219.653 47.5931 219.533 47.5931C218.932 46.9911 218.332 46.3892 217.612 45.7873C216.532 44.9446 215.692 45.065 215.092 46.2688C214.372 47.7134 213.771 49.1581 213.171 50.7231C212.571 52.5288 211.971 54.3346 211.371 56.1404C210.531 58.7888 209.691 61.4373 208.85 64.0858C207.41 68.54 206.09 73.1146 204.53 77.5689C203.209 81.4212 201.889 85.2735 201.769 89.3666C201.769 89.8481 201.529 90.4501 201.649 90.8112C202.609 92.4966 203.089 94.5432 204.65 95.8674C205.25 96.4693 206.09 96.8305 206.93 97.1916C208.13 97.7935 208.61 96.9509 209.09 95.9878C209.211 95.6266 209.691 95.3858 209.931 95.0247C210.291 94.5432 210.531 93.9412 210.771 93.3393C211.971 90.9316 212.811 88.2831 214.372 86.2366C215.692 84.5512 216.772 82.7454 217.852 80.9397C219.413 78.1708 220.733 75.2816 222.413 72.6331C224.214 69.8643 226.254 67.2158 228.174 64.5673C229.014 63.4839 230.215 62.6412 230.935 61.4373C232.255 59.15 234.416 57.9462 236.336 56.5015C236.696 56.2608 237.056 56.1404 237.416 56.02C237.416 56.3812 237.416 56.7423 237.416 57.1035C237.416 57.9462 237.416 58.7889 237.416 59.6315C237.416 60.1131 237.536 60.715 237.416 61.1965C236.936 63.4839 236.336 65.7712 235.856 68.0585C235.616 68.9012 235.736 69.7439 235.496 70.5866C234.536 74.1981 233.815 77.8097 234.175 81.5416C234.536 84.792 236.096 87.3201 238.256 89.6074C239.457 90.8112 240.537 90.6908 241.737 89.6074C242.337 89.0054 242.937 88.5239 243.537 88.0424C243.657 87.922 244.017 87.8016 244.017 87.6812C243.657 85.9958 245.218 85.5143 245.818 84.4308C246.058 84.0697 246.298 83.8289 246.538 83.4678C245.098 83.8289 243.897 84.3104 242.697 84.792L242.577 85.1531ZM225.414 62.5208C222.413 66.4935 219.773 70.7069 216.892 74.8C216.772 74.6796 216.652 74.5593 216.532 74.4389C217.612 72.8739 218.692 71.3089 219.653 69.7439C220.613 68.1789 221.573 66.4935 222.653 64.9285C223.013 64.3266 223.613 63.845 224.093 63.3635C224.334 63.0023 224.574 62.6412 224.694 62.28C225.174 61.1965 225.654 60.1131 226.134 59.0296C226.254 58.7888 226.494 58.4277 226.734 58.3073C228.174 57.7054 229.134 56.6219 229.855 55.1773C229.975 55.0569 230.335 55.0569 230.575 54.9365C230.935 54.6958 231.415 54.5754 231.535 54.2142C232.135 52.4085 234.055 52.1677 235.376 51.0842C232.135 54.8162 228.654 58.4277 225.654 62.4004L225.414 62.5208Z" fill="#1E365B"/>
<path d="M275.038 70.4662C277.799 67.5769 281.879 66.975 285 64.8081C279.239 66.975 273.718 69.7439 268.077 72.8739C268.797 73.235 269.157 73.3554 269.397 73.4758C268.797 73.9573 268.197 74.4389 267.597 74.9204C266.876 75.5223 266.636 75.402 266.396 74.3185C267.717 74.1981 267.717 74.1981 267.717 72.8739C265.796 74.0777 263.996 75.2816 262.195 76.365C261.835 76.6058 261.115 76.8466 260.875 76.6058C258.835 75.1612 256.794 73.5962 254.874 71.9108C254.274 71.4293 253.914 70.5866 253.794 69.8643C253.194 66.4935 254.874 63.845 256.674 61.4373C258.475 59.0296 260.635 56.7423 262.676 54.455C263.876 53.1308 265.196 51.9269 266.636 50.9638C268.557 49.5192 270.597 48.195 272.758 46.9911C273.718 46.5096 274.918 46.2688 275.998 46.0281C276.478 45.9077 277.078 46.2688 277.799 46.5096C277.799 46.0281 277.919 45.5465 277.799 45.1854C277.078 42.5369 275.638 40.37 273.118 39.2865C272.037 38.805 270.717 38.5642 269.277 39.1661C267.116 40.1292 265.676 41.8146 263.876 43.2592C260.995 45.5465 258.235 47.9542 255.834 50.8434C253.074 54.3346 250.433 57.7054 249.833 62.4004C249.113 68.0585 250.433 72.9943 254.154 77.3281C254.754 77.93 255.234 78.4116 254.394 79.2543C255.594 78.6524 256.194 79.3747 256.794 80.2174C256.314 80.6989 255.834 81.1804 255.354 81.662C254.394 81.1804 254.394 81.1804 254.154 82.2639C254.034 82.5047 253.554 82.7454 253.194 82.8658C252.834 82.9862 252.473 82.8658 252.113 82.8658C252.113 82.9862 252.113 83.1066 252.113 83.227C251.633 83.8289 251.153 84.4308 250.553 85.1531C251.153 85.1531 251.513 85.1531 251.873 85.1531C251.873 85.2735 251.873 85.3939 251.873 85.5143C251.513 85.7551 251.153 85.9958 250.793 86.2366C250.313 85.2735 249.353 85.6347 248.633 85.3939C248.633 86.4774 247.793 86.7181 247.072 87.0793C246.112 87.5608 245.152 88.0424 244.432 88.7647C243.112 89.9685 241.911 91.4131 240.711 92.7374C242.271 89.6074 245.272 87.6812 246.952 84.5512C246.592 84.792 246.112 85.0328 245.752 85.3939C244.912 86.1162 244.192 86.8385 243.472 87.5608C241.071 89.9685 238.551 92.3762 239.631 96.3489C239.631 96.4693 239.631 96.5897 239.631 96.7101C238.911 98.7566 239.751 100.683 240.231 102.609C240.471 103.933 241.071 105.137 241.191 106.461C241.431 108.147 242.512 109.23 243.592 110.314C246.232 113.082 249.833 113.082 253.314 112.962C256.914 112.842 260.035 111.036 263.276 109.712C266.036 108.508 268.437 106.702 270.717 104.655C273.238 102.489 274.438 100.081 273.598 96.7101C273.478 96.2285 273.358 95.6266 273.358 95.1451C273.598 93.2189 272.998 91.4131 272.157 89.7278C270.117 85.6347 267.356 82.1435 263.996 79.0135C263.756 78.7727 263.516 78.532 263.156 78.0504C268.557 73.837 274.678 71.1885 280.919 67.9381C278.399 67.6973 276.958 69.3827 275.038 69.8643V70.4662ZM264.116 85.5143C266.036 87.1997 267.717 89.1258 269.397 91.052C270.117 91.8947 270.117 92.9782 269.277 93.8208C267.597 95.5062 266.036 97.312 264.116 98.7566C262.676 99.8401 260.875 100.442 259.315 101.285C257.755 102.007 256.314 102.85 254.754 103.572C253.674 104.054 252.474 104.415 251.273 104.535C249.233 104.776 247.192 104.776 245.392 103.452C242.872 101.646 242.271 99.4789 243.952 96.7101C244.552 95.6266 245.272 94.5432 246.112 93.4597C246.832 92.4966 247.673 91.5335 248.513 90.5704C247.673 90.4501 247.913 89.8481 248.513 89.3666C251.393 86.9589 253.794 83.9493 257.274 82.2639C257.395 82.2639 257.395 82.1435 257.515 81.9027C257.154 81.9027 256.914 81.9027 256.674 81.9027C256.434 81.9027 256.194 82.0231 255.834 81.7824C256.434 81.4212 257.034 81.0601 257.515 80.8193C259.795 82.5047 262.075 83.9493 264.116 85.7551V85.5143Z" fill="#1E365B"/>
</svg>
