<?xml version="1.0" encoding="UTF-8" standalone="no"?>
<!DOCTYPE svg PUBLIC "-//W3C//DTD SVG 20010904//EN"
              "http://www.w3.org/TR/2001/REC-SVG-20010904/DTD/svg10.dtd">

<svg xmlns="http://www.w3.org/2000/svg"
     width="3.16667in" height="1.25556in"
     viewBox="0 0 285 113">
  <path id="emotion-cover"
        fill="none" stroke="black" stroke-width="1"
        d="M 10.00,77.00
           C 21.38,70.38 31.72,56.33 27.75,52.50
             21.61,44.70 9.00,60.75 7.50,65.75
             3.00,74.00 6.26,89.99 7.50,90.75
             11.75,96.50 16.50,94.00 22.00,90.50
             30.25,83.25 31.47,82.06 30.75,82.75
             30.34,83.38 16.49,81.80 21.25,74.50
             15.78,76.54 51.23,41.02 48.25,52.38
             36.00,65.75 36.82,95.90 33.50,98.12
             31.47,90.06 62.75,37.00 66.38,42.88
             72.05,48.37 54.82,99.51 55.00,99.12
             55.63,92.11 81.75,55.75 83.88,62.00
             86.45,66.15 79.76,88.57 83.88,89.00
             85.79,96.52 88.25,84.50 94.00,80.75
             40.44,66.69 94.75,45.50 109.25,50.00
             97.25,65.50 95.12,92.38 97.88,98.62
             107.16,100.67 121.55,76.47 120.50,76.25
             126.80,65.89 129.62,51.88 121.50,47.50
             116.13,44.64 110.75,51.25 108.38,60.12
             101.25,79.12 106.50,78.00 112.38,78.75
             125.88,76.75 128.19,72.34 128.00,72.75
             85.75,48.75 86.57,61.07 103.50,42.00
             113.00,33.00 142.57,25.61 151.50,27.00
             156.25,25.95 206.35,26.12 194.25,30.00
             213.50,12.75 171.75,-6.25 162.00,0.50
             153.53,13.90 132.00,88.25 131.50,103.75
             135.50,120.00 147.26,105.19 151.50,96.25
             116.81,78.71 173.75,40.75 164.00,53.50
             159.28,66.52 150.41,93.84 158.00,93.25
             161.36,95.84 171.14,83.49 172.75,81.25
             133.75,21.50 187.25,-3.50 180.00,18.50
             173.75,25.75 166.66,43.31 170.00,46.75
             174.00,59.51 173.92,6.74 195.75,43.50
             185.25,47.75 178.23,72.10 178.50,72.00
             171.69,84.40 172.75,94.25 176.00,98.00
             183.19,100.17 192.75,87.00 196.00,78.50
             202.75,66.75 198.85,46.42 195.25,48.75
             193.99,45.09 181.13,61.77 182.50,65.75
             181.23,73.11 178.25,79.50 189.50,78.00
             189.46,79.21 210.43,70.48 210.50,68.25
             184.25,57.50 223.75,19.75 220.50,44.75
             214.00,48.63 198.75,105.75 208.00,91.00
             215.13,72.48 233.25,48.25 239.25,49.25
             248.48,55.60 232.38,84.58 238.00,86.75
             243.25,86.25 234.25,93.00 242.00,86.25
             213.96,69.44 283.47,5.30 274.00,43.75
             268.42,40.63 254.25,50.25 251.00,66.75
             250.03,74.23 273.25,85.25 272.00,94.25
             270.75,105.00 258.25,109.50 250.50,108.75
             240.85,107.43 243.00,95.93 243.50,96.00
             247.14,87.29 262.25,73.00 282.25,65.50" />
</svg>
