<svg width="2941" height="172" viewBox="0 0 2941 172" fill="none" xmlns="http://www.w3.org/2000/svg">
<path d="M77.84 109.16L78.3136 109L78.1985 108.66H77.84V109.16ZM35.92 109.16V108.66H35.5615L35.4464 109L35.92 109.16ZM29.2 129V129.5H29.5585L29.6736 129.16L29.2 129ZM0.56 129L0.0898302 128.83L-0.152634 129.5H0.56V129ZM41.2 16.68V16.18H40.8492L40.7298 16.5099L41.2 16.68ZM72.88 16.68L73.3502 16.5099L73.2308 16.18H72.88V16.68ZM113.52 129V129.5H114.233L113.99 128.83L113.52 129ZM84.56 129L84.0864 129.16L84.2015 129.5H84.56V129ZM70.8 88.04V88.54H71.4971L71.2736 87.8797L70.8 88.04ZM56.88 46.92L57.3536 46.7597L56.8773 45.3526L56.4058 46.7613L56.88 46.92ZM43.12 88.04L42.6458 87.8813L42.4254 88.54H43.12V88.04ZM77.84 108.66H35.92V109.66H77.84V108.66ZM35.4464 109L28.7264 128.84L29.6736 129.16L36.3936 109.32L35.4464 109ZM29.2 128.5H0.56V129.5H29.2V128.5ZM1.03017 129.17L41.6702 16.8501L40.7298 16.5099L0.0898302 128.83L1.03017 129.17ZM41.2 17.18H72.88V16.18H41.2V17.18ZM72.4098 16.8501L113.05 129.17L113.99 128.83L73.3502 16.5099L72.4098 16.8501ZM113.52 128.5H84.56V129.5H113.52V128.5ZM85.0336 128.84L78.3136 109L77.3664 109.32L84.0864 129.16L85.0336 128.84ZM71.2736 87.8797L57.3536 46.7597L56.4064 47.0803L70.3264 88.2003L71.2736 87.8797ZM56.4058 46.7613L42.6458 87.8813L43.5942 88.1987L57.3542 47.0787L56.4058 46.7613ZM43.12 88.54H70.8V87.54H43.12V88.54ZM153.249 10.6H153.749V10.1H153.249V10.6ZM153.249 129V129.5H153.749V129H153.249ZM125.889 129H125.389V129.5H125.889V129ZM125.889 10.6V10.1H125.389V10.6H125.889ZM152.749 10.6V129H153.749V10.6H152.749ZM153.249 128.5H125.889V129.5H153.249V128.5ZM126.389 129V10.6H125.389V129H126.389ZM125.889 11.1H153.249V10.1H125.889V11.1ZM301.236 39.72L301.719 39.8506L301.89 39.22H301.236V39.72ZM277.076 129V129.5H277.459L277.559 129.131L277.076 129ZM246.836 129L246.35 129.118L246.443 129.5H246.836V129ZM232.756 71.08L233.242 70.9619L232.271 70.9581L232.756 71.08ZM218.196 129V129.5H218.586L218.681 129.122L218.196 129ZM188.116 129L187.634 129.131L187.734 129.5H188.116V129ZM163.796 39.72V39.22H163.142L163.314 39.8514L163.796 39.72ZM191.156 39.72L191.647 39.6229L191.567 39.22H191.156V39.72ZM203.796 103.56L203.306 103.657L204.283 103.675L203.796 103.56ZM218.836 39.72V39.22H218.44L218.35 39.6053L218.836 39.72ZM247.796 39.72L248.283 39.6036L248.191 39.22H247.796V39.72ZM262.996 103.24L262.51 103.356L263.487 103.336L262.996 103.24ZM275.476 39.72V39.22H275.065L274.986 39.6236L275.476 39.72ZM300.754 39.5894L276.594 128.869L277.559 129.131L301.719 39.8506L300.754 39.5894ZM277.076 128.5H246.836V129.5H277.076V128.5ZM247.322 128.882L233.242 70.9619L232.27 71.1981L246.35 129.118L247.322 128.882ZM232.271 70.9581L217.711 128.878L218.681 129.122L233.241 71.2019L232.271 70.9581ZM218.196 128.5H188.116V129.5H218.196V128.5ZM188.599 128.869L164.279 39.5886L163.314 39.8514L187.634 129.131L188.599 128.869ZM163.796 40.22H191.156V39.22H163.796V40.22ZM190.666 39.8171L203.306 103.657L204.287 103.463L191.647 39.6229L190.666 39.8171ZM204.283 103.675L219.323 39.8347L218.35 39.6053L203.31 103.445L204.283 103.675ZM218.836 40.22H247.796V39.22H218.836V40.22ZM247.31 39.8364L262.51 103.356L263.483 103.124L248.283 39.6036L247.31 39.8364ZM263.487 103.336L275.967 39.8164L274.986 39.6236L262.506 103.144L263.487 103.336ZM275.476 40.22H301.236V39.22H275.476V40.22ZM311.35 60.04L310.904 59.8136L310.901 59.8192L311.35 60.04ZM325.59 44.04L325.855 44.464L325.855 44.464L325.59 44.04ZM362.07 42.28L361.831 42.719L361.835 42.7212L362.07 42.28ZM373.11 52.36L372.684 52.622L373.61 54.1265V52.36H373.11ZM373.11 39.72V39.22H372.61V39.72H373.11ZM400.47 39.72H400.97V39.22H400.47V39.72ZM400.47 129V129.5H400.97V129H400.47ZM373.11 129H372.61V129.5H373.11V129ZM373.11 116.36H373.61V114.653L372.689 116.09L373.11 116.36ZM361.91 126.44L361.675 125.999L361.671 126.001L361.91 126.44ZM325.59 124.68L325.32 125.101L325.325 125.104L325.59 124.68ZM311.35 108.52L310.9 108.738L310.904 108.746L311.35 108.52ZM367.35 68.2L366.987 68.5436L366.992 68.5487L367.35 68.2ZM339.67 68.2L339.312 67.8513L339.312 67.8515L339.67 68.2ZM339.67 100.52L339.302 100.859L339.312 100.869L339.67 100.52ZM367.35 100.52L366.992 100.171L366.987 100.176L367.35 100.52ZM306.73 84.2C306.73 75.089 308.425 67.1138 311.799 60.2608L310.901 59.8192C307.448 66.8329 305.73 74.9643 305.73 84.2H306.73ZM311.796 60.2663C315.279 53.4054 319.967 48.1442 325.855 44.464L325.325 43.616C319.267 47.4024 314.461 52.8079 310.904 59.8136L311.796 60.2663ZM325.855 44.464C331.745 40.7826 338.319 38.94 345.59 38.94V37.94C338.141 37.94 331.381 39.8307 325.325 43.616L325.855 44.464ZM345.59 38.94C351.815 38.94 357.223 40.2056 361.831 42.7189L362.309 41.841C357.531 39.2344 351.952 37.94 345.59 37.94V38.94ZM361.835 42.7212C366.566 45.2443 370.176 48.5459 372.684 52.622L373.536 52.0979C370.924 47.8541 367.174 44.4357 362.305 41.8388L361.835 42.7212ZM373.61 52.36V39.72H372.61V52.36H373.61ZM373.11 40.22H400.47V39.22H373.11V40.22ZM399.97 39.72V129H400.97V39.72H399.97ZM400.47 128.5H373.11V129.5H400.47V128.5ZM373.61 129V116.36H372.61V129H373.61ZM372.689 116.09C370.073 120.171 366.407 123.475 361.675 125.999L362.145 126.881C367.013 124.285 370.814 120.869 373.531 116.63L372.689 116.09ZM361.671 126.001C357.063 128.514 351.655 129.78 345.43 129.78V130.78C351.792 130.78 357.371 129.486 362.149 126.879L361.671 126.001ZM345.43 129.78C338.267 129.78 331.746 127.938 325.855 124.256L325.325 125.104C331.38 128.889 338.086 130.78 345.43 130.78V129.78ZM325.86 124.259C319.969 120.472 315.28 115.156 311.796 108.294L310.904 108.746C314.46 115.751 319.265 121.208 325.32 125.101L325.86 124.259ZM311.8 108.302C308.425 101.341 306.73 93.3107 306.73 84.2H305.73C305.73 93.4359 307.449 101.619 310.9 108.738L311.8 108.302ZM373.61 84.36C373.61 77.436 371.66 71.9125 367.708 67.8513L366.992 68.5487C370.72 72.3808 372.61 77.6306 372.61 84.36H373.61ZM367.713 67.8564C363.885 63.8097 359.167 61.78 353.59 61.78V62.78C358.893 62.78 363.348 64.6969 366.987 68.5436L367.713 67.8564ZM353.59 61.78C348.013 61.78 343.244 63.8092 339.312 67.8513L340.028 68.5487C343.776 64.6974 348.287 62.78 353.59 62.78V61.78ZM339.312 67.8515C335.464 71.8085 333.57 77.2805 333.57 84.2H334.57C334.57 77.4661 336.409 72.2715 340.029 68.5485L339.312 67.8515ZM333.57 84.2C333.57 91.1208 335.465 96.6924 339.302 100.859L340.038 100.181C336.409 96.241 334.57 90.9325 334.57 84.2H333.57ZM339.312 100.869C343.244 104.911 348.013 106.94 353.59 106.94V105.94C348.287 105.94 343.776 104.023 340.028 100.171L339.312 100.869ZM353.59 106.94C359.167 106.94 363.885 104.91 367.713 100.864L366.987 100.176C363.348 104.023 358.893 105.94 353.59 105.94V106.94ZM367.708 100.869C371.66 96.8075 373.61 91.284 373.61 84.36H372.61C372.61 91.0894 370.72 96.3392 366.992 100.171L367.708 100.869ZM511.464 39.72L511.924 39.9157L512.22 39.22H511.464V39.72ZM455.464 171.4V171.9H455.794L455.924 171.596L455.464 171.4ZM426.024 171.4L425.568 171.195L425.25 171.9H426.024V171.4ZM446.504 125.96L446.96 126.165L447.049 125.967L446.965 125.766L446.504 125.96ZM410.184 39.72V39.22H409.431L409.723 39.9141L410.184 39.72ZM440.744 39.72L441.213 39.5466L441.092 39.22H440.744V39.72ZM461.384 95.56L460.915 95.7333L461.386 97.0071L461.853 95.7322L461.384 95.56ZM481.864 39.72V39.22H481.515L481.394 39.5478L481.864 39.72ZM511.004 39.5243L455.004 171.204L455.924 171.596L511.924 39.9157L511.004 39.5243ZM455.464 170.9H426.024V171.9H455.464V170.9ZM426.48 171.605L446.96 126.165L446.048 125.755L425.568 171.195L426.48 171.605ZM446.965 125.766L410.645 39.5259L409.723 39.9141L446.043 126.154L446.965 125.766ZM410.184 40.22H440.744V39.22H410.184V40.22ZM440.275 39.8933L460.915 95.7333L461.853 95.3866L441.213 39.5466L440.275 39.8933ZM461.853 95.7322L482.333 39.8922L481.394 39.5478L460.914 95.3878L461.853 95.7322ZM481.864 40.22H511.464V39.22H481.864V40.22ZM536.878 126.28L537.078 125.822L537.078 125.822L536.878 126.28ZM522.478 115.4L522.077 115.7L522.081 115.704L522.478 115.4ZM516.558 99.72V99.22H516.019L516.059 99.7569L516.558 99.72ZM543.598 99.72L544.095 99.6685L544.048 99.22H543.598V99.72ZM547.918 107.24L548.218 106.84L548.218 106.84L547.918 107.24ZM565.198 108.2L565.486 108.609L565.49 108.605L565.198 108.2ZM564.078 97.32L563.861 97.7708L563.869 97.7743L563.876 97.7777L564.078 97.32ZM551.118 93.16L551.239 92.6749L551.231 92.6731L551.118 93.16ZM535.118 88.52L534.932 88.9843L534.942 88.9882L535.118 88.52ZM524.078 80.68L523.697 81.0045L523.702 81.0101L524.078 80.68ZM523.598 52.2L523.183 51.9203L523.181 51.9226L523.598 52.2ZM536.078 42.12L535.875 41.6627L535.872 41.6642L536.078 42.12ZM582.158 46.76L581.83 47.1379L581.833 47.1405L582.158 46.76ZM593.358 68.84V69.34H593.913L593.855 68.788L593.358 68.84ZM568.078 68.84L567.582 68.9083L567.642 69.34H568.078V68.84ZM563.918 61.48L563.603 61.8687L563.612 61.8756L563.918 61.48ZM547.598 60.68L547.881 61.092L547.889 61.0862L547.898 61.08L547.598 60.68ZM549.038 71.4L548.821 71.8508L548.828 71.854L549.038 71.4ZM561.838 75.24L561.962 74.7559L561.954 74.7537L561.946 74.7519L561.838 75.24ZM577.998 80.36L577.808 80.8227L577.818 80.8267L577.998 80.36ZM588.878 88.36L588.492 88.679L588.497 88.685L588.503 88.6908L588.878 88.36ZM593.838 103.08H594.338L594.337 103.071L593.838 103.08ZM589.358 117.16L588.951 116.868L588.95 116.87L589.358 117.16ZM576.718 126.76L576.523 126.3L576.519 126.301L576.718 126.76ZM557.678 129.78C549.948 129.78 543.085 128.457 537.078 125.822L536.677 126.738C542.83 129.437 549.834 130.78 557.678 130.78V129.78ZM537.078 125.822C531.064 123.184 526.336 119.606 522.874 115.096L522.081 115.704C525.659 120.367 530.531 124.042 536.677 126.738L537.078 125.822ZM522.878 115.1C519.414 110.482 517.476 105.346 517.056 99.6831L516.059 99.7569C516.493 105.614 518.501 110.931 522.078 115.7L522.878 115.1ZM516.558 100.22H543.598V99.22H516.558V100.22ZM543.1 99.7714C543.435 103.008 544.95 105.639 547.618 107.64L548.218 106.84C545.765 105.001 544.4 102.619 544.095 99.6685L543.1 99.7714ZM547.618 107.64C550.278 109.635 553.535 110.62 557.358 110.62V109.62C553.714 109.62 550.677 108.685 548.218 106.84L547.618 107.64ZM557.358 110.62C560.822 110.62 563.554 109.972 565.486 108.608L564.909 107.792C563.214 108.988 560.719 109.62 557.358 109.62V110.62ZM565.49 108.605C567.524 107.137 568.578 105.233 568.578 102.92H567.578C567.578 104.873 566.711 106.49 564.905 107.795L565.49 108.605ZM568.578 102.92C568.578 101.548 568.219 100.337 567.484 99.3094C566.753 98.2856 565.673 97.4756 564.279 96.8623L563.876 97.7777C565.149 98.3378 566.069 99.0477 566.671 99.8906C567.27 100.729 567.578 101.732 567.578 102.92H568.578ZM564.294 96.8692C561.579 95.5661 557.218 94.1696 551.239 92.6749L550.996 93.6451C556.964 95.137 561.243 96.5139 563.861 97.7708L564.294 96.8692ZM551.231 92.6731C544.844 91.1827 539.533 89.6417 535.293 88.0518L534.942 88.9882C539.236 90.5983 544.591 92.1506 551.004 93.6469L551.231 92.6731ZM535.303 88.0558C531.111 86.3789 527.496 83.8121 524.453 80.3499L523.702 81.0101C526.846 84.5879 530.591 87.2478 534.932 88.9842L535.303 88.0558ZM524.458 80.3555C521.461 76.842 519.938 72.1146 519.938 66.12H518.938C518.938 72.2853 520.507 77.2647 523.697 81.0045L524.458 80.3555ZM519.938 66.12C519.938 61.0962 521.296 56.5531 524.014 52.4773L523.181 51.9226C520.352 56.1669 518.938 60.9038 518.938 66.12H519.938ZM524.012 52.4797C526.832 48.3016 530.914 44.9971 536.283 42.5758L535.872 41.6642C530.361 44.1495 526.123 47.5651 523.183 51.9203L524.012 52.4797ZM536.28 42.5773C541.749 40.1582 548.237 38.94 555.758 38.94V37.94C548.131 37.94 541.499 39.1751 535.875 41.6627L536.28 42.5773ZM555.758 38.94C566.877 38.94 575.547 41.6924 581.83 47.1378L582.485 46.3822C575.968 40.7343 567.038 37.94 555.758 37.94V38.94ZM581.833 47.1405C588.234 52.597 591.912 59.8353 592.86 68.892L593.855 68.788C592.883 59.498 589.094 52.0163 582.482 46.3795L581.833 47.1405ZM593.358 68.34H568.078V69.34H593.358V68.34ZM568.573 68.7717C568.129 65.5562 566.679 62.9823 564.223 61.0844L563.612 61.8756C565.849 63.6043 567.172 65.9371 567.582 68.9083L568.573 68.7717ZM564.232 61.0914C561.88 59.187 558.771 58.26 554.958 58.26V59.26C558.611 59.26 561.475 60.1463 563.603 61.8686L564.232 61.0914ZM554.958 58.26C551.701 58.26 549.124 58.9098 547.298 60.28L547.898 61.08C549.484 59.8902 551.814 59.26 554.958 59.26V58.26ZM547.314 60.268C545.467 61.5379 544.538 63.3479 544.538 65.64H545.538C545.538 63.6654 546.315 62.1688 547.881 61.092L547.314 60.268ZM544.538 65.64C544.538 67.0118 544.896 68.2335 545.627 69.2852C546.354 70.3328 547.43 71.1831 548.821 71.8508L549.254 70.9492C547.978 70.3369 547.054 69.5872 546.448 68.7148C545.845 67.8465 545.538 66.8282 545.538 65.64H544.538ZM548.828 71.854C551.651 73.157 555.96 74.4461 561.729 75.7281L561.946 74.7519C556.195 73.4739 551.971 72.203 549.247 70.946L548.828 71.854ZM561.713 75.7241C568.314 77.4277 573.677 79.1278 577.808 80.8226L578.187 79.8974C573.998 78.1789 568.588 76.4656 561.962 74.7559L561.713 75.7241ZM577.818 80.8267C581.891 82.3932 585.449 85.0057 588.492 88.679L589.263 88.041C586.119 84.2476 582.424 81.5268 578.177 79.8933L577.818 80.8267ZM588.503 88.6908C591.604 92.2058 593.232 96.9868 593.338 103.089L594.337 103.071C594.229 96.7999 592.551 91.7675 589.252 88.0292L588.503 88.6908ZM593.338 103.08C593.338 108.204 591.876 112.795 588.951 116.868L589.764 117.452C592.813 113.205 594.338 108.409 594.338 103.08H593.338ZM588.95 116.87C586.134 120.834 582.002 123.981 576.523 126.3L576.912 127.22C582.526 124.845 586.821 121.593 589.765 117.45L588.95 116.87ZM576.519 126.301C571.154 128.615 564.878 129.78 557.678 129.78V130.78C564.984 130.78 571.401 129.598 576.916 127.219L576.519 126.301ZM644.163 60.04L643.717 59.8136L643.714 59.8192L644.163 60.04ZM658.403 44.04L658.668 44.464L658.668 44.464L658.403 44.04ZM694.403 42.12L694.175 42.5652L694.179 42.5672L694.403 42.12ZM705.923 52.04L705.506 52.3173L706.423 53.6914V52.04H705.923ZM705.923 10.6V10.1H705.423V10.6H705.923ZM733.283 10.6H733.783V10.1H733.283V10.6ZM733.283 129V129.5H733.783V129H733.283ZM705.923 129H705.423V129.5H705.923V129ZM705.923 116.2H706.423V114.395L705.494 115.943L705.923 116.2ZM694.883 126.44L694.647 125.999L694.643 126.001L694.883 126.44ZM658.403 124.68L658.132 125.101L658.138 125.104L658.403 124.68ZM644.163 108.52L643.713 108.738L643.717 108.746L644.163 108.52ZM700.163 68.2L699.799 68.5436L699.804 68.5487L700.163 68.2ZM672.483 68.2L672.124 67.8513L672.124 67.8515L672.483 68.2ZM672.483 100.52L672.115 100.859L672.124 100.869L672.483 100.52ZM700.163 100.52L699.804 100.171L699.799 100.176L700.163 100.52ZM639.543 84.2C639.543 75.089 641.237 67.1138 644.611 60.2608L643.714 59.8192C640.261 66.8329 638.543 74.9643 638.543 84.2H639.543ZM644.608 60.2663C648.092 53.4054 652.779 48.1442 658.668 44.464L658.138 43.616C652.079 47.4024 647.273 52.8079 643.717 59.8136L644.608 60.2663ZM658.668 44.464C664.558 40.7826 671.132 38.94 678.403 38.94V37.94C670.953 37.94 664.194 39.8307 658.138 43.616L658.668 44.464ZM678.403 38.94C684.197 38.94 689.451 40.151 694.175 42.5652L694.63 41.6748C689.754 39.1823 684.341 37.94 678.403 37.94V38.94ZM694.179 42.5672C699.016 44.9855 702.786 48.2366 705.506 52.3173L706.339 51.7626C703.512 47.5233 699.603 44.1611 694.626 41.6728L694.179 42.5672ZM706.423 52.04V10.6H705.423V52.04H706.423ZM705.923 11.1H733.283V10.1H705.923V11.1ZM732.783 10.6V129H733.783V10.6H732.783ZM733.283 128.5H705.923V129.5H733.283V128.5ZM706.423 129V116.2H705.423V129H706.423ZM705.494 115.943C702.985 120.125 699.375 123.477 694.647 125.999L695.118 126.881C699.99 124.283 703.74 120.809 706.351 116.457L705.494 115.943ZM694.643 126.001C690.035 128.514 684.627 129.78 678.403 129.78V130.78C684.765 130.78 690.343 129.486 695.122 126.879L694.643 126.001ZM678.403 129.78C671.132 129.78 664.558 127.937 658.668 124.256L658.138 125.104C664.194 128.889 670.953 130.78 678.403 130.78V129.78ZM658.673 124.259C652.781 120.472 648.092 115.156 644.608 108.294L643.717 108.746C647.273 115.751 652.077 121.208 658.132 125.101L658.673 124.259ZM644.612 108.302C641.237 101.341 639.543 93.3107 639.543 84.2H638.543C638.543 93.4359 640.261 101.619 643.713 108.738L644.612 108.302ZM706.423 84.36C706.423 77.436 704.472 71.9125 700.521 67.8513L699.804 68.5487C703.533 72.3808 705.423 77.6306 705.423 84.36H706.423ZM700.526 67.8564C696.698 63.8097 691.98 61.78 686.403 61.78V62.78C691.705 62.78 696.161 64.6969 699.799 68.5436L700.526 67.8564ZM686.403 61.78C680.826 61.78 676.057 63.8092 672.124 67.8513L672.841 68.5487C676.588 64.6974 681.099 62.78 686.403 62.78V61.78ZM672.124 67.8515C668.277 71.8085 666.383 77.2805 666.383 84.2H667.383C667.383 77.4661 669.221 72.2715 672.841 68.5485L672.124 67.8515ZM666.383 84.2C666.383 91.1208 668.277 96.6924 672.115 100.859L672.85 100.181C669.221 96.241 667.383 90.9325 667.383 84.2H666.383ZM672.124 100.869C676.057 104.911 680.826 106.94 686.403 106.94V105.94C681.099 105.94 676.588 104.023 672.841 100.171L672.124 100.869ZM686.403 106.94C691.98 106.94 696.698 104.91 700.526 100.864L699.799 100.176C696.161 104.023 691.705 105.94 686.403 105.94V106.94ZM700.521 100.869C704.472 96.8075 706.423 91.284 706.423 84.36H705.423C705.423 91.0894 703.533 96.3392 699.804 100.171L700.521 100.869ZM836.756 90.92V91.42H837.202L837.253 90.9773L836.756 90.92ZM774.836 90.92V90.42H774.296L774.338 90.9583L774.836 90.92ZM780.116 103.72L779.769 104.08L779.775 104.086L779.782 104.092L780.116 103.72ZM806.036 99.4V98.9H805.717L805.583 99.1899L806.036 99.4ZM835.156 99.4L835.641 99.5233L835.799 98.9H835.156V99.4ZM826.996 115.24L826.614 114.918L826.609 114.923L826.996 115.24ZM812.436 126.28L812.643 126.735L812.436 126.28ZM769.396 124.68L769.156 125.119L769.156 125.119L769.396 124.68ZM753.396 108.68L753.834 108.438L753.834 108.438L753.396 108.68ZM753.236 60.04L752.799 59.7977L752.796 59.8029L753.236 60.04ZM769.236 44.04L769.476 44.4787L769.476 44.4787L769.236 44.04ZM815.796 43.88L815.559 44.32L815.559 44.32L815.796 43.88ZM831.476 59.4L831.039 59.6428L831.042 59.6481L831.476 59.4ZM809.236 75.72V76.22H809.736V75.72H809.236ZM804.436 64.52L804.764 64.1422L804.764 64.1422L804.436 64.52ZM780.756 64.36L780.436 63.9758L780.43 63.9813L780.756 64.36ZM774.996 75.72L774.502 75.6448L774.414 76.22H774.996V75.72ZM836.736 82.92C836.736 85.4592 836.578 88.1067 836.26 90.8627L837.253 90.9773C837.575 88.1866 837.736 85.5008 837.736 82.92H836.736ZM836.756 90.42H774.836V91.42H836.756V90.42ZM774.338 90.9583C774.771 96.5903 776.564 100.985 779.769 104.08L780.464 103.36C777.482 100.481 775.755 96.3431 775.335 90.8817L774.338 90.9583ZM779.782 104.092C783.08 107.06 787.095 108.54 791.796 108.54V107.54C787.324 107.54 783.553 106.14 780.451 103.348L779.782 104.092ZM791.796 108.54C795.28 108.54 798.268 107.805 800.736 106.307C803.206 104.809 805.121 102.567 806.49 99.6101L805.583 99.1899C804.285 101.993 802.494 104.071 800.217 105.453C797.938 106.835 795.139 107.54 791.796 107.54V108.54ZM806.036 99.9H835.156V98.9H806.036V99.9ZM834.672 99.2767C833.197 105.069 830.512 110.282 826.614 114.918L827.379 115.562C831.373 110.812 834.129 105.464 835.641 99.5233L834.672 99.2767ZM826.609 114.923C822.821 119.554 818.031 123.188 812.229 125.825L812.643 126.735C818.575 124.039 823.492 120.313 827.383 115.557L826.609 114.923ZM812.229 125.825C806.435 128.458 799.947 129.78 792.756 129.78V130.78C800.072 130.78 806.704 129.435 812.643 126.735L812.229 125.825ZM792.756 129.78C784.083 129.78 776.381 127.93 769.636 124.241L769.156 125.119C776.065 128.897 783.936 130.78 792.756 130.78V129.78ZM769.636 124.241C762.894 120.554 757.629 115.29 753.834 108.438L752.959 108.922C756.844 115.937 762.245 121.339 769.156 125.119L769.636 124.241ZM753.834 108.438C750.041 101.59 748.136 93.5698 748.136 84.36H747.136C747.136 93.7102 749.071 101.903 752.959 108.922L753.834 108.438ZM748.136 84.36C748.136 75.148 749.989 67.1255 753.676 60.277L752.796 59.8029C749.017 66.8211 747.136 75.012 747.136 84.36H748.136ZM753.674 60.2822C757.469 53.4301 762.734 48.1657 769.476 44.4787L768.996 43.6013C762.085 47.381 756.684 52.7832 752.799 59.7977L753.674 60.2822ZM769.476 44.4787C776.22 40.7908 783.975 38.94 792.756 38.94V37.94C783.831 37.94 775.906 39.8225 768.996 43.6013L769.476 44.4787ZM792.756 38.94C801.324 38.94 808.921 40.7376 815.559 44.32L816.034 43.44C809.232 39.769 801.468 37.94 792.756 37.94V38.94ZM815.559 44.32C822.194 47.901 827.352 53.0057 831.039 59.6428L831.913 59.1572C828.134 52.3543 822.838 47.1123 816.034 43.44L815.559 44.32ZM831.042 59.6481C834.833 66.2813 836.736 74.0331 836.736 82.92H837.736C837.736 73.8869 835.8 65.9587 831.91 59.1519L831.042 59.6481ZM809.736 75.72C809.736 70.8993 808.086 67.0214 804.764 64.1422L804.109 64.8978C807.187 67.5652 808.736 71.154 808.736 75.72H809.736ZM804.764 64.1422C801.461 61.2795 797.339 59.86 792.436 59.86V60.86C797.133 60.86 801.012 62.2138 804.109 64.8978L804.764 64.1422ZM792.436 59.86C787.745 59.86 783.735 61.2266 780.436 63.9759L781.076 64.7441C784.177 62.16 787.954 60.86 792.436 60.86V59.86ZM780.43 63.9813C777.228 66.7417 775.263 70.6466 774.502 75.6448L775.491 75.7952C776.223 70.98 778.098 67.3116 781.083 64.7387L780.43 63.9813ZM774.996 76.22H809.236V75.22H774.996V76.22ZM879.03 10.6H879.53V10.1H879.03V10.6ZM879.03 129V129.5H879.53V129H879.03ZM851.67 129H851.17V129.5H851.67V129ZM851.67 10.6V10.1H851.17V10.6H851.67ZM878.53 10.6V129H879.53V10.6H878.53ZM879.03 128.5H851.67V129.5H879.03V128.5ZM852.17 129V10.6H851.17V129H852.17ZM851.67 11.1H879.03V10.1H851.67V11.1ZM900.778 26.28L900.43 26.6399L900.437 26.6462L900.444 26.6523L900.778 26.28ZM900.778 5.15999L901.118 5.52639L901.118 5.52594L900.778 5.15999ZM924.138 5.15999L923.79 5.51991L923.797 5.52622L923.804 5.53228L924.138 5.15999ZM924.138 26.28L924.478 26.6464L924.478 26.6459L924.138 26.28ZM926.218 39.72H926.718V39.22H926.218V39.72ZM926.218 129V129.5H926.718V129H926.218ZM898.858 129H898.358V129.5H898.858V129ZM898.858 39.72V39.22H898.358V39.72H898.858ZM912.618 29.94C907.92 29.94 904.099 28.5861 901.111 25.9077L900.444 26.6523C903.643 29.5205 907.715 30.94 912.618 30.94V29.94ZM901.125 25.9201C898.236 23.1346 896.798 19.7446 896.798 15.72H895.798C895.798 20.0154 897.346 23.6654 900.43 26.6399L901.125 25.9201ZM896.798 15.72C896.798 11.585 898.238 8.20024 901.118 5.52639L900.437 4.7936C897.343 7.66642 895.798 11.3216 895.798 15.72H896.798ZM901.118 5.52594C904.106 2.74391 907.925 1.33999 912.618 1.33999V0.339991C907.71 0.339991 903.635 1.81608 900.437 4.79405L901.118 5.52594ZM912.618 1.33999C917.2 1.33999 920.909 2.74179 923.79 5.51991L924.485 4.80007C921.392 1.81819 917.422 0.339991 912.618 0.339991V1.33999ZM923.804 5.53228C926.788 8.20789 928.278 11.591 928.278 15.72H929.278C929.278 11.3156 927.674 7.65876 924.471 4.78771L923.804 5.53228ZM928.278 15.72C928.278 19.7387 926.79 23.1269 923.797 25.914L924.478 26.6459C927.671 23.6731 929.278 20.0213 929.278 15.72H928.278ZM923.797 25.9136C920.917 28.5881 917.205 29.94 912.618 29.94V30.94C917.417 30.94 921.385 29.5186 924.478 26.6464L923.797 25.9136ZM925.718 39.72V129H926.718V39.72H925.718ZM926.218 128.5H898.858V129.5H926.218V128.5ZM899.358 129V39.72H898.358V129H899.358ZM898.858 40.22H926.218V39.22H898.858V40.22ZM986.205 103.4L985.727 103.545L986.205 105.119L986.683 103.545L986.205 103.4ZM1005.57 39.72V39.22H1005.19L1005.09 39.5746L1005.57 39.72ZM1034.69 39.72L1035.16 39.8872L1035.39 39.22H1034.69V39.72ZM1003.01 129V129.5H1003.36L1003.48 129.167L1003.01 129ZM969.245 129L968.774 129.167L968.892 129.5H969.245V129ZM937.565 39.72V39.22H936.857L937.094 39.8872L937.565 39.72ZM966.845 39.72L967.323 39.5746L967.216 39.22H966.845V39.72ZM986.683 103.545L1006.04 39.8654L1005.09 39.5746L985.727 103.255L986.683 103.545ZM1005.57 40.22H1034.69V39.22H1005.57V40.22ZM1034.21 39.5528L1002.53 128.833L1003.48 129.167L1035.16 39.8872L1034.21 39.5528ZM1003.01 128.5H969.245V129.5H1003.01V128.5ZM969.716 128.833L938.036 39.5528L937.094 39.8872L968.774 129.167L969.716 128.833ZM937.565 40.22H966.845V39.22H937.565V40.22ZM966.367 39.8654L985.727 103.545L986.683 103.255L967.323 39.5746L966.367 39.8654ZM1129.88 90.92V91.42H1130.33L1130.38 90.9773L1129.88 90.92ZM1067.96 90.92V90.42H1067.42L1067.46 90.9583L1067.96 90.92ZM1073.24 103.72L1072.89 104.08L1072.9 104.086L1072.91 104.092L1073.24 103.72ZM1099.16 99.4V98.9H1098.84L1098.71 99.1899L1099.16 99.4ZM1128.28 99.4L1128.77 99.5233L1128.92 98.9H1128.28V99.4ZM1120.12 115.24L1119.74 114.918L1119.73 114.923L1120.12 115.24ZM1105.56 126.28L1105.77 126.735L1105.56 126.28ZM1062.52 124.68L1062.28 125.119L1062.28 125.119L1062.52 124.68ZM1046.52 108.68L1046.96 108.438L1046.96 108.438L1046.52 108.68ZM1046.36 60.04L1045.92 59.7977L1045.92 59.8029L1046.36 60.04ZM1062.36 44.04L1062.6 44.4787L1062.6 44.4787L1062.36 44.04ZM1108.92 43.88L1108.68 44.32L1108.68 44.32L1108.92 43.88ZM1124.6 59.4L1124.16 59.6428L1124.17 59.6481L1124.6 59.4ZM1102.36 75.72V76.22H1102.86V75.72H1102.36ZM1097.56 64.52L1097.89 64.1422L1097.89 64.1422L1097.56 64.52ZM1073.88 64.36L1073.56 63.9758L1073.55 63.9813L1073.88 64.36ZM1068.12 75.72L1067.63 75.6448L1067.54 76.22H1068.12V75.72ZM1129.86 82.92C1129.86 85.4592 1129.7 88.1067 1129.38 90.8627L1130.38 90.9773C1130.7 88.1866 1130.86 85.5008 1130.86 82.92H1129.86ZM1129.88 90.42H1067.96V91.42H1129.88V90.42ZM1067.46 90.9583C1067.9 96.5903 1069.69 100.985 1072.89 104.08L1073.59 103.36C1070.61 100.481 1068.88 96.3431 1068.46 90.8817L1067.46 90.9583ZM1072.91 104.092C1076.2 107.06 1080.22 108.54 1084.92 108.54V107.54C1080.45 107.54 1076.68 106.14 1073.58 103.348L1072.91 104.092ZM1084.92 108.54C1088.41 108.54 1091.39 107.805 1093.86 106.307C1096.33 104.809 1098.25 102.567 1099.61 99.6101L1098.71 99.1899C1097.41 101.993 1095.62 104.071 1093.34 105.453C1091.06 106.835 1088.26 107.54 1084.92 107.54V108.54ZM1099.16 99.9H1128.28V98.9H1099.16V99.9ZM1127.8 99.2767C1126.32 105.069 1123.64 110.282 1119.74 114.918L1120.5 115.562C1124.5 110.812 1127.25 105.464 1128.77 99.5233L1127.8 99.2767ZM1119.73 114.923C1115.95 119.554 1111.16 123.188 1105.35 125.825L1105.77 126.735C1111.7 124.039 1116.62 120.313 1120.51 115.557L1119.73 114.923ZM1105.35 125.825C1099.56 128.458 1093.07 129.78 1085.88 129.78V130.78C1093.2 130.78 1099.83 129.435 1105.77 126.735L1105.35 125.825ZM1085.88 129.78C1077.21 129.78 1069.51 127.93 1062.76 124.241L1062.28 125.119C1069.19 128.897 1077.06 130.78 1085.88 130.78V129.78ZM1062.76 124.241C1056.02 120.554 1050.75 115.29 1046.96 108.438L1046.08 108.922C1049.97 115.937 1055.37 121.339 1062.28 125.119L1062.76 124.241ZM1046.96 108.438C1043.17 101.59 1041.26 93.5698 1041.26 84.36H1040.26C1040.26 93.7102 1042.2 101.903 1046.08 108.922L1046.96 108.438ZM1041.26 84.36C1041.26 75.148 1043.11 67.1255 1046.8 60.277L1045.92 59.8029C1042.14 66.8211 1040.26 75.012 1040.26 84.36H1041.26ZM1046.8 60.2822C1050.59 53.4301 1055.86 48.1657 1062.6 44.4787L1062.12 43.6013C1055.21 47.381 1049.81 52.7832 1045.92 59.7977L1046.8 60.2822ZM1062.6 44.4787C1069.34 40.7908 1077.1 38.94 1085.88 38.94V37.94C1076.96 37.94 1069.03 39.8225 1062.12 43.6013L1062.6 44.4787ZM1085.88 38.94C1094.45 38.94 1102.05 40.7376 1108.68 44.32L1109.16 43.44C1102.36 39.769 1094.59 37.94 1085.88 37.94V38.94ZM1108.68 44.32C1115.32 47.901 1120.48 53.0057 1124.16 59.6428L1125.04 59.1572C1121.26 52.3543 1115.96 47.1123 1109.16 43.44L1108.68 44.32ZM1124.17 59.6481C1127.96 66.2813 1129.86 74.0331 1129.86 82.92H1130.86C1130.86 73.8869 1128.92 65.9587 1125.04 59.1519L1124.17 59.6481ZM1102.86 75.72C1102.86 70.8993 1101.21 67.0214 1097.89 64.1422L1097.23 64.8978C1100.31 67.5652 1101.86 71.154 1101.86 75.72H1102.86ZM1097.89 64.1422C1094.59 61.2795 1090.46 59.86 1085.56 59.86V60.86C1090.26 60.86 1094.14 62.2138 1097.23 64.8978L1097.89 64.1422ZM1085.56 59.86C1080.87 59.86 1076.86 61.2266 1073.56 63.9759L1074.2 64.7441C1077.3 62.16 1081.08 60.86 1085.56 60.86V59.86ZM1073.55 63.9813C1070.35 66.7417 1068.39 70.6466 1067.63 75.6448L1068.62 75.7952C1069.35 70.98 1071.22 67.3116 1074.21 64.7387L1073.55 63.9813ZM1068.12 76.22H1102.36V75.22H1068.12V76.22ZM1172.16 54.6H1171.66V56.282L1172.57 54.8731L1172.16 54.6ZM1184.16 43.08L1184.41 43.513L1184.41 43.5087L1184.16 43.08ZM1200.16 38.76H1200.66V38.26H1200.16V38.76ZM1200.16 67.72V68.22H1200.66V67.72H1200.16ZM1177.28 72.2L1177.6 72.5822L1177.6 72.5763L1177.28 72.2ZM1172.16 129V129.5H1172.66V129H1172.16ZM1144.8 129H1144.3V129.5H1144.8V129ZM1144.8 39.72V39.22H1144.3V39.72H1144.8ZM1172.16 39.72H1172.66V39.22H1172.16V39.72ZM1172.57 54.8731C1175.73 50.0284 1179.68 46.2448 1184.41 43.5129L1183.9 42.6471C1179.03 45.4619 1174.98 49.3583 1171.74 54.3269L1172.57 54.8731ZM1184.41 43.5087C1189.13 40.6777 1194.37 39.26 1200.16 39.26V38.26C1194.2 38.26 1188.78 39.7223 1183.9 42.6513L1184.41 43.5087ZM1199.66 38.76V67.72H1200.66V38.76H1199.66ZM1200.16 67.22H1192.64V68.22H1200.16V67.22ZM1192.64 67.22C1185.75 67.22 1180.49 68.7254 1176.95 71.8237L1177.6 72.5763C1180.89 69.7012 1185.87 68.22 1192.64 68.22V67.22ZM1176.95 71.8179C1173.37 74.8399 1171.66 80.1459 1171.66 87.56H1172.66C1172.66 80.2541 1174.35 75.3201 1177.6 72.5821L1176.95 71.8179ZM1171.66 87.56V129H1172.66V87.56H1171.66ZM1172.16 128.5H1144.8V129.5H1172.16V128.5ZM1145.3 129V39.72H1144.3V129H1145.3ZM1144.8 40.22H1172.16V39.22H1144.8V40.22ZM1171.66 39.72V54.6H1172.66V39.72H1171.66ZM1387.46 48.84L1387.1 49.1878L1387.1 49.1907L1387.46 48.84ZM1397.38 129V129.5H1397.88V129H1397.38ZM1370.18 129H1369.68V129.5H1370.18V129ZM1365.54 67.24L1365.17 67.5812L1365.18 67.5875L1365.19 67.5936L1365.54 67.24ZM1340.42 67.24L1340.06 66.8925L1340.06 66.8927L1340.42 67.24ZM1335.94 129V129.5H1336.44V129H1335.94ZM1308.74 129H1308.24V129.5H1308.74V129ZM1304.1 67.24L1303.73 67.5812L1303.74 67.5875L1303.75 67.5936L1304.1 67.24ZM1278.98 67.24L1278.62 66.8925L1278.62 66.8927L1278.98 67.24ZM1274.5 129V129.5H1275V129H1274.5ZM1247.14 129H1246.64V129.5H1247.14V129ZM1247.14 39.72V39.22H1246.64V39.72H1247.14ZM1274.5 39.72H1275V39.22H1274.5V39.72ZM1274.5 50.92H1274V52.4315L1274.9 51.2182L1274.5 50.92ZM1285.38 42.12L1285.59 42.5715L1285.6 42.5672L1285.38 42.12ZM1318.5 43.08L1318.26 43.5179L1318.26 43.52L1318.5 43.08ZM1330.98 55.4L1330.54 55.6443L1330.95 56.3779L1331.4 55.6666L1330.98 55.4ZM1361.06 39.26C1372.04 39.26 1380.7 42.583 1387.1 49.1878L1387.82 48.4922C1381.2 41.657 1372.26 38.26 1361.06 38.26V39.26ZM1387.1 49.1907C1393.6 55.7939 1396.88 64.9878 1396.88 76.84H1397.88C1397.88 64.7989 1394.54 55.3261 1387.82 48.4893L1387.1 49.1907ZM1396.88 76.84V129H1397.88V76.84H1396.88ZM1397.38 128.5H1370.18V129.5H1397.38V128.5ZM1370.68 129V80.52H1369.68V129H1370.68ZM1370.68 80.52C1370.68 74.671 1369.11 70.1004 1365.89 66.8864L1365.19 67.5936C1368.16 70.5662 1369.68 74.849 1369.68 80.52H1370.68ZM1365.9 66.8988C1362.8 63.5759 1358.5 61.94 1353.06 61.94V62.94C1358.29 62.94 1362.3 64.5041 1365.17 67.5812L1365.9 66.8988ZM1353.06 61.94C1347.62 61.94 1343.27 63.576 1340.06 66.8925L1340.78 67.5875C1343.76 64.504 1347.83 62.94 1353.06 62.94V61.94ZM1340.06 66.8927C1336.96 70.1073 1335.44 74.6756 1335.44 80.52H1336.44C1336.44 74.8444 1337.91 70.5593 1340.78 67.5873L1340.06 66.8927ZM1335.44 80.52V129H1336.44V80.52H1335.44ZM1335.94 128.5H1308.74V129.5H1335.94V128.5ZM1309.24 129V80.52H1308.24V129H1309.24ZM1309.24 80.52C1309.24 74.671 1307.67 70.1004 1304.45 66.8864L1303.75 67.5936C1306.72 70.5662 1308.24 74.849 1308.24 80.52H1309.24ZM1304.46 66.8988C1301.36 63.5759 1297.06 61.94 1291.62 61.94V62.94C1296.85 62.94 1300.86 64.5041 1303.73 67.5812L1304.46 66.8988ZM1291.62 61.94C1286.18 61.94 1281.83 63.576 1278.62 66.8925L1279.34 67.5875C1282.32 64.504 1286.39 62.94 1291.62 62.94V61.94ZM1278.62 66.8927C1275.52 70.1073 1274 74.6756 1274 80.52H1275C1275 74.8444 1276.47 70.5593 1279.34 67.5873L1278.62 66.8927ZM1274 80.52V129H1275V80.52H1274ZM1274.5 128.5H1247.14V129.5H1274.5V128.5ZM1247.64 129V39.72H1246.64V129H1247.64ZM1247.14 40.22H1274.5V39.22H1247.14V40.22ZM1274 39.72V50.92H1275V39.72H1274ZM1274.9 51.2182C1277.62 47.5547 1281.18 44.6721 1285.59 42.5714L1285.16 41.6686C1280.62 43.8346 1276.92 46.8186 1274.1 50.6218L1274.9 51.2182ZM1285.6 42.5672C1290 40.3662 1294.99 39.26 1300.58 39.26V38.26C1294.86 38.26 1289.71 39.3938 1285.16 41.6728L1285.6 42.5672ZM1300.58 39.26C1307.23 39.26 1313.11 40.6836 1318.26 43.5179L1318.74 42.6421C1313.43 39.7164 1307.37 38.26 1300.58 38.26V39.26ZM1318.26 43.52C1323.51 46.3545 1327.6 50.393 1330.54 55.6443L1331.42 55.1557C1328.38 49.7404 1324.15 45.5655 1318.74 42.64L1318.26 43.52ZM1331.4 55.6666C1334.45 50.8327 1338.6 46.8879 1343.87 43.8325L1343.37 42.9675C1337.97 46.0987 1333.69 50.154 1330.56 55.1333L1331.4 55.6666ZM1343.87 43.8325C1349.13 40.7843 1354.85 39.26 1361.06 39.26V38.26C1354.68 38.26 1348.78 39.829 1343.37 42.9675L1343.87 43.8325ZM1433.47 124.68L1433.24 125.12L1433.24 125.122L1433.47 124.68ZM1416.99 108.68L1416.56 108.927L1416.56 108.932L1416.99 108.68ZM1417.15 60.2L1417.59 60.4524L1417.59 60.4495L1417.15 60.2ZM1433.79 44.04L1434.03 44.4817L1434.03 44.4817L1433.79 44.04ZM1481.15 44.04L1480.92 44.4817L1480.92 44.4817L1481.15 44.04ZM1497.79 60.2L1497.36 60.4495L1497.36 60.4523L1497.79 60.2ZM1497.63 108.68L1497.2 108.426L1497.2 108.428L1497.63 108.68ZM1480.83 124.68L1480.6 124.237L1480.6 124.238L1480.83 124.68ZM1470.43 100.84L1470.08 100.491L1470.07 100.497L1470.43 100.84ZM1470.59 67.88L1470.23 68.2179L1470.23 68.2233L1470.59 67.88ZM1444.19 67.88L1444.56 68.223L1444.56 68.2179L1444.19 67.88ZM1444.03 100.84L1443.66 101.172L1443.67 101.178L1444.03 100.84ZM1457.15 129.78C1448.48 129.78 1440.67 127.93 1433.71 124.238L1433.24 125.122C1440.36 128.897 1448.33 130.78 1457.15 130.78V129.78ZM1433.71 124.24C1426.86 120.551 1421.43 115.283 1417.43 108.428L1416.56 108.932C1420.66 115.943 1426.22 121.342 1433.24 125.12L1433.71 124.24ZM1417.43 108.433C1413.53 101.586 1411.57 93.5676 1411.57 84.36H1410.57C1410.57 93.7124 1412.56 101.907 1416.56 108.927L1417.43 108.433ZM1411.57 84.36C1411.57 75.2625 1413.58 67.2988 1417.59 60.4523L1416.72 59.9477C1412.62 66.9679 1410.57 75.1108 1410.57 84.36H1411.57ZM1417.59 60.4495C1421.59 53.4893 1427.07 48.1701 1434.03 44.4817L1433.56 43.5983C1426.43 47.3766 1420.82 52.8307 1416.72 59.9505L1417.59 60.4495ZM1434.03 44.4817C1440.99 40.7903 1448.8 38.94 1457.47 38.94V37.94C1448.65 37.94 1440.68 39.823 1433.56 43.5983L1434.03 44.4817ZM1457.47 38.94C1466.15 38.94 1473.96 40.7903 1480.92 44.4817L1481.39 43.5983C1474.27 39.823 1466.29 37.94 1457.47 37.94V38.94ZM1480.92 44.4817C1487.87 48.1701 1493.35 53.4893 1497.36 60.4495L1498.23 59.9505C1494.13 52.8307 1488.51 47.3766 1481.39 43.5983L1480.92 44.4817ZM1497.36 60.4523C1501.36 67.2988 1503.37 75.2625 1503.37 84.36H1504.37C1504.37 75.1108 1502.33 66.9679 1498.23 59.9477L1497.36 60.4523ZM1503.37 84.36C1503.37 93.455 1501.31 101.472 1497.2 108.426L1498.06 108.934C1502.28 101.808 1504.37 93.6117 1504.37 84.36H1503.37ZM1497.2 108.428C1493.2 115.279 1487.67 120.547 1480.6 124.237L1481.07 125.123C1488.29 121.346 1493.96 115.947 1498.07 108.932L1497.2 108.428ZM1480.6 124.238C1473.64 127.93 1465.83 129.78 1457.15 129.78V130.78C1465.97 130.78 1473.95 128.897 1481.07 125.122L1480.6 124.238ZM1457.15 107.1C1462.52 107.1 1467.08 105.122 1470.8 101.183L1470.07 100.497C1466.54 104.238 1462.24 106.1 1457.15 106.1V107.1ZM1470.79 101.189C1474.64 97.2274 1476.53 91.5921 1476.53 84.36H1475.53C1475.53 91.4213 1473.69 96.7726 1470.08 100.491L1470.79 101.189ZM1476.53 84.36C1476.53 77.1316 1474.7 71.4982 1470.96 67.5367L1470.23 68.2233C1473.74 71.9418 1475.53 77.2951 1475.53 84.36H1476.53ZM1470.96 67.5421C1467.35 63.5984 1462.84 61.62 1457.47 61.62V62.62C1462.56 62.62 1466.8 64.4816 1470.23 68.2179L1470.96 67.5421ZM1457.47 61.62C1452 61.62 1447.44 63.5961 1443.83 67.5421L1444.56 68.2179C1447.99 64.4839 1452.28 62.62 1457.47 62.62V61.62ZM1443.83 67.537C1440.19 71.3955 1438.41 77.032 1438.41 84.36H1439.41C1439.41 77.1813 1441.16 71.8312 1444.56 68.223L1443.83 67.537ZM1438.41 84.36C1438.41 91.5812 1440.14 97.2103 1443.66 101.172L1444.41 100.508C1441.1 96.7897 1439.41 91.4321 1439.41 84.36H1438.41ZM1443.67 101.178C1447.28 105.122 1451.79 107.1 1457.15 107.1V106.1C1452.07 106.1 1447.83 104.238 1444.4 100.502L1443.67 101.178ZM1545.75 54.6H1545.25V56.282L1546.17 54.8731L1545.75 54.6ZM1557.75 43.08L1558 43.513L1558.01 43.5087L1557.75 43.08ZM1573.75 38.76H1574.25V38.26H1573.75V38.76ZM1573.75 67.72V68.22H1574.25V67.72H1573.75ZM1550.87 72.2L1551.19 72.5822L1551.2 72.5763L1550.87 72.2ZM1545.75 129V129.5H1546.25V129H1545.75ZM1518.39 129H1517.89V129.5H1518.39V129ZM1518.39 39.72V39.22H1517.89V39.72H1518.39ZM1545.75 39.72H1546.25V39.22H1545.75V39.72ZM1546.17 54.8731C1549.33 50.0284 1553.27 46.2448 1558 43.5129L1557.5 42.6471C1552.63 45.4619 1548.57 49.3583 1545.33 54.3269L1546.17 54.8731ZM1558.01 43.5087C1562.72 40.6777 1567.97 39.26 1573.75 39.26V38.26C1567.8 38.26 1562.37 39.7223 1557.49 42.6513L1558.01 43.5087ZM1573.25 38.76V67.72H1574.25V38.76H1573.25ZM1573.75 67.22H1566.23V68.22H1573.75V67.22ZM1566.23 67.22C1559.34 67.22 1554.08 68.7254 1550.54 71.8237L1551.2 72.5763C1554.48 69.7012 1559.46 68.22 1566.23 68.22V67.22ZM1550.55 71.8179C1546.96 74.8399 1545.25 80.1459 1545.25 87.56H1546.25C1546.25 80.2541 1547.95 75.3201 1551.19 72.5821L1550.55 71.8179ZM1545.25 87.56V129H1546.25V87.56H1545.25ZM1545.75 128.5H1518.39V129.5H1545.75V128.5ZM1518.89 129V39.72H1517.89V129H1518.89ZM1518.39 40.22H1545.75V39.22H1518.39V40.22ZM1545.25 39.72V54.6H1546.25V39.72H1545.25ZM1670.51 90.92V91.42H1670.95L1671 90.9773L1670.51 90.92ZM1608.59 90.92V90.42H1608.05L1608.09 90.9583L1608.59 90.92ZM1613.87 103.72L1613.52 104.08L1613.53 104.086L1613.53 104.092L1613.87 103.72ZM1639.79 99.4V98.9H1639.47L1639.33 99.1899L1639.79 99.4ZM1668.91 99.4L1669.39 99.5233L1669.55 98.9H1668.91V99.4ZM1660.75 115.24L1660.36 114.918L1660.36 114.923L1660.75 115.24ZM1646.19 126.28L1646.39 126.735L1646.19 126.28ZM1603.15 124.68L1602.91 125.119L1602.91 125.119L1603.15 124.68ZM1587.15 108.68L1587.58 108.438L1587.58 108.438L1587.15 108.68ZM1586.99 60.04L1586.55 59.7977L1586.55 59.8029L1586.99 60.04ZM1602.99 44.04L1603.23 44.4787L1603.23 44.4787L1602.99 44.04ZM1649.55 43.88L1649.31 44.32L1649.31 44.32L1649.55 43.88ZM1665.23 59.4L1664.79 59.6428L1664.79 59.6481L1665.23 59.4ZM1642.99 75.72V76.22H1643.49V75.72H1642.99ZM1638.19 64.52L1638.51 64.1422L1638.51 64.1422L1638.19 64.52ZM1614.51 64.36L1614.19 63.9758L1614.18 63.9813L1614.51 64.36ZM1608.75 75.72L1608.25 75.6448L1608.16 76.22H1608.75V75.72ZM1670.49 82.92C1670.49 85.4592 1670.33 88.1067 1670.01 90.8627L1671 90.9773C1671.32 88.1866 1671.49 85.5008 1671.49 82.92H1670.49ZM1670.51 90.42H1608.59V91.42H1670.51V90.42ZM1608.09 90.9583C1608.52 96.5903 1610.31 100.985 1613.52 104.08L1614.21 103.36C1611.23 100.481 1609.5 96.3431 1609.08 90.8817L1608.09 90.9583ZM1613.53 104.092C1616.83 107.06 1620.84 108.54 1625.55 108.54V107.54C1621.07 107.54 1617.3 106.14 1614.2 103.348L1613.53 104.092ZM1625.55 108.54C1629.03 108.54 1632.02 107.805 1634.49 106.307C1636.96 104.809 1638.87 102.567 1640.24 99.6101L1639.33 99.1899C1638.03 101.993 1636.24 104.071 1633.97 105.453C1631.69 106.835 1628.89 107.54 1625.55 107.54V108.54ZM1639.79 99.9H1668.91V98.9H1639.79V99.9ZM1668.42 99.2767C1666.95 105.069 1664.26 110.282 1660.36 114.918L1661.13 115.562C1665.12 110.812 1667.88 105.464 1669.39 99.5233L1668.42 99.2767ZM1660.36 114.923C1656.57 119.554 1651.78 123.188 1645.98 125.825L1646.39 126.735C1652.33 124.039 1657.24 120.313 1661.13 115.557L1660.36 114.923ZM1645.98 125.825C1640.19 128.458 1633.7 129.78 1626.51 129.78V130.78C1633.82 130.78 1640.45 129.435 1646.39 126.735L1645.98 125.825ZM1626.51 129.78C1617.83 129.78 1610.13 127.93 1603.39 124.241L1602.91 125.119C1609.82 128.897 1617.69 130.78 1626.51 130.78V129.78ZM1603.39 124.241C1596.64 120.554 1591.38 115.29 1587.58 108.438L1586.71 108.922C1590.59 115.937 1595.99 121.339 1602.91 125.119L1603.39 124.241ZM1587.58 108.438C1583.79 101.59 1581.89 93.5698 1581.89 84.36H1580.89C1580.89 93.7102 1582.82 101.903 1586.71 108.922L1587.58 108.438ZM1581.89 84.36C1581.89 75.148 1583.74 67.1255 1587.43 60.277L1586.55 59.8029C1582.77 66.8211 1580.89 75.012 1580.89 84.36H1581.89ZM1587.42 60.2822C1591.22 53.4301 1596.48 48.1657 1603.23 44.4787L1602.75 43.6013C1595.83 47.381 1590.43 52.7832 1586.55 59.7977L1587.42 60.2822ZM1603.23 44.4787C1609.97 40.7908 1617.73 38.94 1626.51 38.94V37.94C1617.58 37.94 1609.66 39.8225 1602.75 43.6013L1603.23 44.4787ZM1626.51 38.94C1635.07 38.94 1642.67 40.7376 1649.31 44.32L1649.78 43.44C1642.98 39.769 1635.22 37.94 1626.51 37.94V38.94ZM1649.31 44.32C1655.94 47.901 1661.1 53.0057 1664.79 59.6428L1665.66 59.1572C1661.88 52.3543 1656.59 47.1123 1649.78 43.44L1649.31 44.32ZM1664.79 59.6481C1668.58 66.2813 1670.49 74.0331 1670.49 82.92H1671.49C1671.49 73.8869 1669.55 65.9587 1665.66 59.1519L1664.79 59.6481ZM1643.49 75.72C1643.49 70.8993 1641.84 67.0214 1638.51 64.1422L1637.86 64.8978C1640.94 67.5652 1642.49 71.154 1642.49 75.72H1643.49ZM1638.51 64.1422C1635.21 61.2795 1631.09 59.86 1626.19 59.86V60.86C1630.88 60.86 1634.76 62.2138 1637.86 64.8978L1638.51 64.1422ZM1626.19 59.86C1621.5 59.86 1617.49 61.2266 1614.19 63.9759L1614.83 64.7441C1617.93 62.16 1621.7 60.86 1626.19 60.86V59.86ZM1614.18 63.9813C1610.98 66.7417 1609.01 70.6466 1608.25 75.6448L1609.24 75.7952C1609.97 70.98 1611.85 67.3116 1614.83 64.7387L1614.18 63.9813ZM1608.75 76.22H1642.99V75.22H1608.75V76.22ZM1769.09 105.8H1769.59V105.3H1769.09V105.8ZM1769.09 129V129.5H1769.59V129H1769.09ZM1731.97 121.8L1731.63 122.175L1731.64 122.178L1731.97 121.8ZM1723.65 62.44H1724.15V61.94H1723.65V62.44ZM1712.77 62.44H1712.27V62.94H1712.77V62.44ZM1712.77 39.72V39.22H1712.27V39.72H1712.77ZM1723.65 39.72V40.22H1724.15V39.72H1723.65ZM1723.65 17.96V17.46H1723.15V17.96H1723.65ZM1751.01 17.96H1751.51V17.46H1751.01V17.96ZM1751.01 39.72H1750.51V40.22H1751.01V39.72ZM1768.93 39.72H1769.43V39.22H1768.93V39.72ZM1768.93 62.44V62.94H1769.43V62.44H1768.93ZM1751.01 62.44V61.94H1750.51V62.44H1751.01ZM1752.93 104.04L1752.59 104.409L1752.59 104.409L1752.93 104.04ZM1768.59 105.8V129H1769.59V105.8H1768.59ZM1769.09 128.5H1755.17V129.5H1769.09V128.5ZM1755.17 128.5C1745.32 128.5 1737.72 126.119 1732.29 121.422L1731.64 122.178C1737.3 127.081 1745.17 129.5 1755.17 129.5V128.5ZM1732.3 121.426C1726.9 116.652 1724.15 108.874 1724.15 97.96H1723.15C1723.15 109.02 1725.94 117.135 1731.63 122.174L1732.3 121.426ZM1724.15 97.96V62.44H1723.15V97.96H1724.15ZM1723.65 61.94H1712.77V62.94H1723.65V61.94ZM1713.27 62.44V39.72H1712.27V62.44H1713.27ZM1712.77 40.22H1723.65V39.22H1712.77V40.22ZM1724.15 39.72V17.96H1723.15V39.72H1724.15ZM1723.65 18.46H1751.01V17.46H1723.65V18.46ZM1750.51 17.96V39.72H1751.51V17.96H1750.51ZM1751.01 40.22H1768.93V39.22H1751.01V40.22ZM1768.43 39.72V62.44H1769.43V39.72H1768.43ZM1768.93 61.94H1751.01V62.94H1768.93V61.94ZM1750.51 62.44V98.28H1751.51V62.44H1750.51ZM1750.51 98.28C1750.51 101.012 1751.16 103.1 1752.59 104.409L1753.26 103.671C1752.13 102.634 1751.51 100.881 1751.51 98.28H1750.51ZM1752.59 104.409C1754.01 105.709 1756.3 106.3 1759.33 106.3V105.3C1756.38 105.3 1754.41 104.717 1753.26 103.671L1752.59 104.409ZM1759.33 106.3H1769.09V105.3H1759.33V106.3ZM1863.85 49L1863.48 49.3358L1863.48 49.3387L1863.85 49ZM1873.13 129V129.5H1873.63V129H1873.13ZM1845.93 129H1845.43V129.5H1845.93V129ZM1841.29 66.6L1840.92 66.9416L1840.92 66.9416L1841.29 66.6ZM1816.33 66.6L1816.69 66.9416L1816.69 66.9416L1816.33 66.6ZM1811.69 129V129.5H1812.19V129H1811.69ZM1784.33 129H1783.83V129.5H1784.33V129ZM1784.33 10.6V10.1H1783.83V10.6H1784.33ZM1811.69 10.6H1812.19V10.1H1811.69V10.6ZM1811.69 51.72H1811.19V53.3012L1812.1 52.0075L1811.69 51.72ZM1823.05 42.28L1822.83 41.8308L1822.83 41.8308L1823.05 42.28ZM1839.21 39.26C1849.32 39.26 1857.4 42.626 1863.48 49.3358L1864.22 48.6642C1857.92 41.7207 1849.57 38.26 1839.21 38.26V39.26ZM1863.48 49.3387C1869.56 55.9416 1872.63 65.0872 1872.63 76.84H1873.63C1873.63 64.9128 1870.51 55.4984 1864.21 48.6613L1863.48 49.3387ZM1872.63 76.84V129H1873.63V76.84H1872.63ZM1873.13 128.5H1845.93V129.5H1873.13V128.5ZM1846.43 129V80.52H1845.43V129H1846.43ZM1846.43 80.52C1846.43 74.4614 1844.86 69.6842 1841.65 66.2584L1840.92 66.9416C1843.9 70.1292 1845.43 74.6319 1845.43 80.52H1846.43ZM1841.65 66.2584C1838.45 62.8348 1834.15 61.14 1828.81 61.14V62.14C1833.92 62.14 1837.94 63.7519 1840.92 66.9416L1841.65 66.2584ZM1828.81 61.14C1823.46 61.14 1819.16 62.8348 1815.96 66.2584L1816.69 66.9416C1819.68 63.7519 1823.69 62.14 1828.81 62.14V61.14ZM1815.96 66.2584C1812.76 69.6842 1811.19 74.4614 1811.19 80.52H1812.19C1812.19 74.6319 1813.71 70.1292 1816.69 66.9416L1815.96 66.2584ZM1811.19 80.52V129H1812.19V80.52H1811.19ZM1811.69 128.5H1784.33V129.5H1811.69V128.5ZM1784.83 129V10.6H1783.83V129H1784.83ZM1784.33 11.1H1811.69V10.1H1784.33V11.1ZM1811.19 10.6V51.72H1812.19V10.6H1811.19ZM1812.1 52.0075C1814.82 48.137 1818.53 45.0429 1823.27 42.7292L1822.83 41.8308C1817.96 44.2104 1814.1 47.4096 1811.28 51.4325L1812.1 52.0075ZM1823.27 42.7292C1827.99 40.4197 1833.3 39.26 1839.21 39.26V38.26C1833.17 38.26 1827.7 39.4469 1822.83 41.8308L1823.27 42.7292ZM1891.82 60.04L1891.37 59.8136L1891.37 59.8192L1891.82 60.04ZM1906.06 44.04L1906.32 44.464L1906.32 44.464L1906.06 44.04ZM1942.54 42.28L1942.3 42.719L1942.3 42.7212L1942.54 42.28ZM1953.58 52.36L1953.15 52.622L1954.08 54.1265V52.36H1953.58ZM1953.58 39.72V39.22H1953.08V39.72H1953.58ZM1980.94 39.72H1981.44V39.22H1980.94V39.72ZM1980.94 129V129.5H1981.44V129H1980.94ZM1953.58 129H1953.08V129.5H1953.58V129ZM1953.58 116.36H1954.08V114.653L1953.16 116.09L1953.58 116.36ZM1942.38 126.44L1942.14 125.999L1942.14 126.001L1942.38 126.44ZM1906.06 124.68L1905.79 125.101L1905.79 125.104L1906.06 124.68ZM1891.82 108.52L1891.37 108.738L1891.37 108.746L1891.82 108.52ZM1947.82 68.2L1947.46 68.5436L1947.46 68.5487L1947.82 68.2ZM1920.14 68.2L1919.78 67.8513L1919.78 67.8515L1920.14 68.2ZM1920.14 100.52L1919.77 100.859L1919.78 100.869L1920.14 100.52ZM1947.82 100.52L1947.46 100.171L1947.46 100.176L1947.82 100.52ZM1887.2 84.2C1887.2 75.089 1888.89 67.1138 1892.27 60.2608L1891.37 59.8192C1887.92 66.8329 1886.2 74.9643 1886.2 84.2H1887.2ZM1892.26 60.2663C1895.75 53.4054 1900.44 48.1442 1906.32 44.464L1905.79 43.616C1899.74 47.4024 1894.93 52.8079 1891.37 59.8136L1892.26 60.2663ZM1906.32 44.464C1912.21 40.7826 1918.79 38.94 1926.06 38.94V37.94C1918.61 37.94 1911.85 39.8307 1905.79 43.616L1906.32 44.464ZM1926.06 38.94C1932.28 38.94 1937.69 40.2056 1942.3 42.7189L1942.78 41.841C1938 39.2344 1932.42 37.94 1926.06 37.94V38.94ZM1942.3 42.7212C1947.03 45.2443 1950.64 48.5459 1953.15 52.622L1954 52.0979C1951.39 47.8541 1947.64 44.4357 1942.77 41.8388L1942.3 42.7212ZM1954.08 52.36V39.72H1953.08V52.36H1954.08ZM1953.58 40.22H1980.94V39.22H1953.58V40.22ZM1980.44 39.72V129H1981.44V39.72H1980.44ZM1980.94 128.5H1953.58V129.5H1980.94V128.5ZM1954.08 129V116.36H1953.08V129H1954.08ZM1953.16 116.09C1950.54 120.171 1946.88 123.475 1942.14 125.999L1942.61 126.881C1947.48 124.285 1951.28 120.869 1954 116.63L1953.16 116.09ZM1942.14 126.001C1937.53 128.514 1932.12 129.78 1925.9 129.78V130.78C1932.26 130.78 1937.84 129.486 1942.62 126.879L1942.14 126.001ZM1925.9 129.78C1918.74 129.78 1912.22 127.938 1906.32 124.256L1905.79 125.104C1911.85 128.889 1918.55 130.78 1925.9 130.78V129.78ZM1906.33 124.259C1900.44 120.472 1895.75 115.156 1892.26 108.294L1891.37 108.746C1894.93 115.751 1899.73 121.208 1905.79 125.101L1906.33 124.259ZM1892.27 108.302C1888.89 101.341 1887.2 93.3107 1887.2 84.2H1886.2C1886.2 93.4359 1887.92 101.619 1891.37 108.738L1892.27 108.302ZM1954.08 84.36C1954.08 77.436 1952.13 71.9125 1948.18 67.8513L1947.46 68.5487C1951.19 72.3808 1953.08 77.6306 1953.08 84.36H1954.08ZM1948.18 67.8564C1944.35 63.8097 1939.64 61.78 1934.06 61.78V62.78C1939.36 62.78 1943.82 64.6969 1947.46 68.5436L1948.18 67.8564ZM1934.06 61.78C1928.48 61.78 1923.71 63.8092 1919.78 67.8513L1920.5 68.5487C1924.24 64.6974 1928.76 62.78 1934.06 62.78V61.78ZM1919.78 67.8515C1915.93 71.8085 1914.04 77.2805 1914.04 84.2H1915.04C1915.04 77.4661 1916.88 72.2715 1920.5 68.5485L1919.78 67.8515ZM1914.04 84.2C1914.04 91.1208 1915.93 96.6924 1919.77 100.859L1920.51 100.181C1916.88 96.241 1915.04 90.9325 1915.04 84.2H1914.04ZM1919.78 100.869C1923.71 104.911 1928.48 106.94 1934.06 106.94V105.94C1928.76 105.94 1924.24 104.023 1920.5 100.171L1919.78 100.869ZM1934.06 106.94C1939.64 106.94 1944.35 104.91 1948.18 100.864L1947.46 100.176C1943.82 104.023 1939.36 105.94 1934.06 105.94V106.94ZM1948.18 100.869C1952.13 96.8075 1954.08 91.284 1954.08 84.36H1953.08C1953.08 91.0894 1951.19 96.3392 1947.46 100.171L1948.18 100.869ZM2080.09 49L2079.72 49.3358L2079.73 49.3418L2080.09 49ZM2089.53 129V129.5H2090.03V129H2089.53ZM2062.33 129H2061.83V129.5H2062.33V129ZM2057.69 66.6L2057.33 66.9416L2057.33 66.9416L2057.69 66.6ZM2032.73 66.6L2033.1 66.9416L2033.1 66.9416L2032.73 66.6ZM2028.09 129V129.5H2028.59V129H2028.09ZM2000.73 129H2000.23V129.5H2000.73V129ZM2000.73 39.72V39.22H2000.23V39.72H2000.73ZM2028.09 39.72H2028.59V39.22H2028.09V39.72ZM2028.09 51.56H2027.59V53.1412L2028.5 51.8475L2028.09 51.56ZM2039.29 42.28L2039.51 42.7313L2039.52 42.7272L2039.29 42.28ZM2055.13 39.26C2065.47 39.26 2073.64 42.6283 2079.72 49.3358L2080.46 48.6642C2074.17 41.7184 2065.71 38.26 2055.13 38.26V39.26ZM2079.73 49.3418C2085.91 55.9449 2089.03 65.0893 2089.03 76.84H2090.03C2090.03 64.9107 2086.86 55.4951 2080.46 48.6582L2079.73 49.3418ZM2089.03 76.84V129H2090.03V76.84H2089.03ZM2089.53 128.5H2062.33V129.5H2089.53V128.5ZM2062.83 129V80.52H2061.83V129H2062.83ZM2062.83 80.52C2062.83 74.4614 2061.26 69.6842 2058.06 66.2584L2057.33 66.9416C2060.31 70.1292 2061.83 74.6319 2061.83 80.52H2062.83ZM2058.06 66.2584C2054.85 62.8348 2050.55 61.14 2045.21 61.14V62.14C2050.32 62.14 2054.34 63.7519 2057.33 66.9416L2058.06 66.2584ZM2045.21 61.14C2039.87 61.14 2035.57 62.8348 2032.37 66.2584L2033.1 66.9416C2036.08 63.7519 2040.1 62.14 2045.21 62.14V61.14ZM2032.37 66.2584C2029.16 69.6842 2027.59 74.4614 2027.59 80.52H2028.59C2028.59 74.6319 2030.12 70.1292 2033.1 66.9416L2032.37 66.2584ZM2027.59 80.52V129H2028.59V80.52H2027.59ZM2028.09 128.5H2000.73V129.5H2028.09V128.5ZM2001.23 129V39.72H2000.23V129H2001.23ZM2000.73 40.22H2028.09V39.22H2000.73V40.22ZM2027.59 39.72V51.56H2028.59V39.72H2027.59ZM2028.5 51.8475C2031.22 47.9766 2034.89 44.9372 2039.51 42.7312L2039.08 41.8288C2034.31 44.1028 2030.51 47.2501 2027.68 51.2725L2028.5 51.8475ZM2039.52 42.7272C2044.13 40.4192 2049.33 39.26 2055.13 39.26V38.26C2049.2 38.26 2043.84 39.4475 2039.07 41.8328L2039.52 42.7272ZM2226.13 90.92V91.42H2226.58L2226.63 90.9773L2226.13 90.92ZM2164.21 90.92V90.42H2163.67L2163.71 90.9583L2164.21 90.92ZM2169.49 103.72L2169.14 104.08L2169.15 104.086L2169.16 104.092L2169.49 103.72ZM2195.41 99.4V98.9H2195.09L2194.96 99.1899L2195.41 99.4ZM2224.53 99.4L2225.02 99.5233L2225.17 98.9H2224.53V99.4ZM2216.37 115.24L2215.99 114.918L2215.98 114.923L2216.37 115.24ZM2201.81 126.28L2202.02 126.735L2201.81 126.28ZM2158.77 124.68L2158.53 125.119L2158.53 125.119L2158.77 124.68ZM2142.77 108.68L2143.21 108.438L2143.21 108.438L2142.77 108.68ZM2142.61 60.04L2142.17 59.7977L2142.17 59.8029L2142.61 60.04ZM2158.61 44.04L2158.85 44.4787L2158.85 44.4787L2158.61 44.04ZM2205.17 43.88L2204.93 44.32L2204.93 44.32L2205.17 43.88ZM2220.85 59.4L2220.41 59.6428L2220.42 59.6481L2220.85 59.4ZM2198.61 75.72V76.22H2199.11V75.72H2198.61ZM2193.81 64.52L2194.14 64.1422L2194.14 64.1422L2193.81 64.52ZM2170.13 64.36L2169.81 63.9758L2169.8 63.9813L2170.13 64.36ZM2164.37 75.72L2163.88 75.6448L2163.79 76.22H2164.37V75.72ZM2226.11 82.92C2226.11 85.4592 2225.95 88.1067 2225.63 90.8627L2226.63 90.9773C2226.95 88.1866 2227.11 85.5008 2227.11 82.92H2226.11ZM2226.13 90.42H2164.21V91.42H2226.13V90.42ZM2163.71 90.9583C2164.15 96.5903 2165.94 100.985 2169.14 104.08L2169.84 103.36C2166.86 100.481 2165.13 96.3431 2164.71 90.8817L2163.71 90.9583ZM2169.16 104.092C2172.45 107.06 2176.47 108.54 2181.17 108.54V107.54C2176.7 107.54 2172.93 106.14 2169.83 103.348L2169.16 104.092ZM2181.17 108.54C2184.66 108.54 2187.64 107.805 2190.11 106.307C2192.58 104.809 2194.5 102.567 2195.86 99.6101L2194.96 99.1899C2193.66 101.993 2191.87 104.071 2189.59 105.453C2187.31 106.835 2184.51 107.54 2181.17 107.54V108.54ZM2195.41 99.9H2224.53V98.9H2195.41V99.9ZM2224.05 99.2767C2222.57 105.069 2219.89 110.282 2215.99 114.918L2216.75 115.562C2220.75 110.812 2223.5 105.464 2225.02 99.5233L2224.05 99.2767ZM2215.98 114.923C2212.2 119.554 2207.41 123.188 2201.6 125.825L2202.02 126.735C2207.95 124.039 2212.87 120.313 2216.76 115.557L2215.98 114.923ZM2201.6 125.825C2195.81 128.458 2189.32 129.78 2182.13 129.78V130.78C2189.45 130.78 2196.08 129.435 2202.02 126.735L2201.6 125.825ZM2182.13 129.78C2173.46 129.78 2165.76 127.93 2159.01 124.241L2158.53 125.119C2165.44 128.897 2173.31 130.78 2182.13 130.78V129.78ZM2159.01 124.241C2152.27 120.554 2147 115.29 2143.21 108.438L2142.33 108.922C2146.22 115.937 2151.62 121.339 2158.53 125.119L2159.01 124.241ZM2143.21 108.438C2139.42 101.59 2137.51 93.5698 2137.51 84.36H2136.51C2136.51 93.7102 2138.45 101.903 2142.33 108.922L2143.21 108.438ZM2137.51 84.36C2137.51 75.148 2139.36 67.1255 2143.05 60.277L2142.17 59.8029C2138.39 66.8211 2136.51 75.012 2136.51 84.36H2137.51ZM2143.05 60.2822C2146.84 53.4301 2152.11 48.1657 2158.85 44.4787L2158.37 43.6013C2151.46 47.381 2146.06 52.7832 2142.17 59.7977L2143.05 60.2822ZM2158.85 44.4787C2165.59 40.7908 2173.35 38.94 2182.13 38.94V37.94C2173.21 37.94 2165.28 39.8225 2158.37 43.6013L2158.85 44.4787ZM2182.13 38.94C2190.7 38.94 2198.3 40.7376 2204.93 44.32L2205.41 43.44C2198.61 39.769 2190.84 37.94 2182.13 37.94V38.94ZM2204.93 44.32C2211.57 47.901 2216.73 53.0057 2220.41 59.6428L2221.29 59.1572C2217.51 52.3543 2212.21 47.1123 2205.41 43.44L2204.93 44.32ZM2220.42 59.6481C2224.21 66.2813 2226.11 74.0331 2226.11 82.92H2227.11C2227.11 73.8869 2225.17 65.9587 2221.29 59.1519L2220.42 59.6481ZM2199.11 75.72C2199.11 70.8993 2197.46 67.0214 2194.14 64.1422L2193.48 64.8978C2196.56 67.5652 2198.11 71.154 2198.11 75.72H2199.11ZM2194.14 64.1422C2190.84 61.2795 2186.71 59.86 2181.81 59.86V60.86C2186.51 60.86 2190.39 62.2138 2193.48 64.8978L2194.14 64.1422ZM2181.81 59.86C2177.12 59.86 2173.11 61.2266 2169.81 63.9759L2170.45 64.7441C2173.55 62.16 2177.33 60.86 2181.81 60.86V59.86ZM2169.8 63.9813C2166.6 66.7417 2164.64 70.6466 2163.88 75.6448L2164.87 75.7952C2165.6 70.98 2167.47 67.3116 2170.46 64.7387L2169.8 63.9813ZM2164.37 76.22H2198.61V75.22H2164.37V76.22ZM2293.85 129L2293.43 129.284L2293.58 129.5H2293.85V129ZM2276.73 104.2L2277.14 103.916L2276.69 103.267L2276.29 103.949L2276.73 104.2ZM2262.33 129V129.5H2262.61L2262.76 129.251L2262.33 129ZM2232.73 129L2232.3 128.729L2231.81 129.5H2232.73V129ZM2262.17 83.4L2262.59 83.6712L2262.77 83.3903L2262.58 83.1154L2262.17 83.4ZM2231.93 39.72V39.22H2230.97L2231.51 40.0046L2231.93 39.72ZM2262.65 39.72L2263.06 39.4347L2262.91 39.22H2262.65V39.72ZM2279.77 64.36L2279.35 64.6453L2279.8 65.2887L2280.2 64.6123L2279.77 64.36ZM2294.17 39.72V39.22H2293.88L2293.73 39.4677L2294.17 39.72ZM2323.77 39.72L2324.18 39.997L2324.7 39.22H2323.77V39.72ZM2293.85 84.68L2293.43 84.403L2293.24 84.6857L2293.43 84.9648L2293.85 84.68ZM2324.57 129V129.5H2325.52L2324.98 128.715L2324.57 129ZM2294.26 128.716L2277.14 103.916L2276.31 104.484L2293.43 129.284L2294.26 128.716ZM2276.29 103.949L2261.89 128.749L2262.76 129.251L2277.16 104.451L2276.29 103.949ZM2262.33 128.5H2232.73V129.5H2262.33V128.5ZM2233.15 129.271L2262.59 83.6712L2261.74 83.1288L2232.3 128.729L2233.15 129.271ZM2262.58 83.1154L2232.34 39.4354L2231.51 40.0046L2261.75 83.6846L2262.58 83.1154ZM2231.93 40.22H2262.65V39.22H2231.93V40.22ZM2262.23 40.0053L2279.35 64.6453L2280.18 64.0747L2263.06 39.4347L2262.23 40.0053ZM2280.2 64.6123L2294.6 39.9723L2293.73 39.4677L2279.33 64.1077L2280.2 64.6123ZM2294.17 40.22H2323.77V39.22H2294.17V40.22ZM2323.35 39.443L2293.43 84.403L2294.26 84.957L2324.18 39.997L2323.35 39.443ZM2293.43 84.9648L2324.15 129.285L2324.98 128.715L2294.26 84.3952L2293.43 84.9648ZM2324.57 128.5H2293.85V129.5H2324.57V128.5ZM2362.47 52.36H2361.97V54.0665L2362.89 52.6298L2362.47 52.36ZM2373.51 42.28L2373.27 41.841L2373.27 41.841L2373.51 42.28ZM2409.99 44.04L2409.72 44.464L2409.72 44.464L2409.99 44.04ZM2424.07 60.04L2423.62 60.2609L2423.62 60.2663L2424.07 60.04ZM2424.07 108.52L2423.62 108.296L2423.62 108.299L2424.07 108.52ZM2409.99 124.68L2410.25 125.104L2410.26 125.101L2409.99 124.68ZM2373.51 126.44L2373.27 126.879L2373.27 126.881L2373.51 126.44ZM2362.47 116.52L2362.89 116.245L2361.97 114.85V116.52H2362.47ZM2362.47 171.56V172.06H2362.97V171.56H2362.47ZM2335.11 171.56H2334.61V172.06H2335.11V171.56ZM2335.11 39.72V39.22H2334.61V39.72H2335.11ZM2362.47 39.72H2362.97V39.22H2362.47V39.72ZM2395.75 68.2L2395.38 68.5437L2395.39 68.5535L2395.75 68.2ZM2367.91 68.2L2367.55 67.8513L2367.54 67.8564L2367.91 68.2ZM2367.91 100.52L2367.54 100.864L2367.55 100.869L2367.91 100.52ZM2395.75 100.52L2396.11 100.869L2396.11 100.864L2395.75 100.52ZM2362.89 52.6298C2365.51 48.5463 2369.12 45.2421 2373.75 42.7189L2373.27 41.841C2368.51 44.4379 2364.76 47.8537 2362.05 52.0902L2362.89 52.6298ZM2373.75 42.7189C2378.35 40.2056 2383.76 38.94 2389.99 38.94V37.94C2383.63 37.94 2378.05 39.2344 2373.27 41.841L2373.75 42.7189ZM2389.99 38.94C2397.26 38.94 2403.83 40.7826 2409.72 44.464L2410.25 43.616C2404.2 39.8307 2397.44 37.94 2389.99 37.94V38.94ZM2409.72 44.464C2415.61 48.1433 2420.24 53.4026 2423.62 60.2608L2424.52 59.8192C2421.07 52.8107 2416.31 47.4034 2410.25 43.616L2409.72 44.464ZM2423.62 60.2663C2427.1 67.118 2428.85 75.0912 2428.85 84.2H2429.85C2429.85 74.9621 2428.07 66.8287 2424.51 59.8137L2423.62 60.2663ZM2428.85 84.2C2428.85 93.3085 2427.1 101.336 2423.62 108.296L2424.51 108.744C2428.07 101.624 2429.85 93.4381 2429.85 84.2H2428.85ZM2423.62 108.299C2420.24 115.158 2415.61 120.473 2409.72 124.259L2410.26 125.101C2416.31 121.207 2421.07 115.748 2424.52 108.741L2423.62 108.299ZM2409.72 124.256C2403.83 127.937 2397.26 129.78 2389.99 129.78V130.78C2397.44 130.78 2404.2 128.889 2410.25 125.104L2409.72 124.256ZM2389.99 129.78C2383.87 129.78 2378.46 128.515 2373.74 125.999L2373.27 126.881C2378.15 129.485 2383.73 130.78 2389.99 130.78V129.78ZM2373.75 126.001C2369.12 123.476 2365.5 120.223 2362.89 116.245L2362.05 116.795C2364.77 120.923 2368.51 124.284 2373.27 126.879L2373.75 126.001ZM2361.97 116.52V171.56H2362.97V116.52H2361.97ZM2362.47 171.06H2335.11V172.06H2362.47V171.06ZM2335.61 171.56V39.72H2334.61V171.56H2335.61ZM2335.11 40.22H2362.47V39.22H2335.11V40.22ZM2361.97 39.72V52.36H2362.97V39.72H2361.97ZM2402.01 84.2C2402.01 77.2767 2400.06 71.8029 2396.1 67.8464L2395.39 68.5535C2399.12 72.2771 2401.01 77.47 2401.01 84.2H2402.01ZM2396.11 67.8564C2392.28 63.8075 2387.51 61.78 2381.83 61.78V62.78C2387.24 62.78 2391.75 64.6991 2395.38 68.5436L2396.11 67.8564ZM2381.83 61.78C2376.25 61.78 2371.48 63.8092 2367.55 67.8513L2368.27 68.5487C2372.01 64.6974 2376.52 62.78 2381.83 62.78V61.78ZM2367.54 67.8564C2363.7 71.9181 2361.81 77.4398 2361.81 84.36H2362.81C2362.81 77.6268 2364.65 72.3752 2368.27 68.5436L2367.54 67.8564ZM2361.81 84.36C2361.81 91.2802 2363.7 96.8019 2367.54 100.864L2368.27 100.176C2364.65 96.3448 2362.81 91.0931 2362.81 84.36H2361.81ZM2367.55 100.869C2371.48 104.911 2376.25 106.94 2381.83 106.94V105.94C2376.52 105.94 2372.01 104.023 2368.27 100.171L2367.55 100.869ZM2381.83 106.94C2387.4 106.94 2392.17 104.911 2396.11 100.869L2395.39 100.171C2391.64 104.023 2387.13 105.94 2381.83 105.94V106.94ZM2396.11 100.864C2400.06 96.6979 2402.01 91.1245 2402.01 84.2H2401.01C2401.01 90.9288 2399.12 96.2354 2395.38 100.176L2396.11 100.864ZM2527.38 90.92V91.42H2527.83L2527.88 90.9773L2527.38 90.92ZM2465.46 90.92V90.42H2464.92L2464.96 90.9583L2465.46 90.92ZM2470.74 103.72L2470.39 104.08L2470.4 104.086L2470.41 104.092L2470.74 103.72ZM2496.66 99.4V98.9H2496.34L2496.21 99.1899L2496.66 99.4ZM2525.78 99.4L2526.27 99.5233L2526.42 98.9H2525.78V99.4ZM2517.62 115.24L2517.24 114.918L2517.23 114.923L2517.62 115.24ZM2503.06 126.28L2503.27 126.735L2503.06 126.28ZM2460.02 124.68L2459.78 125.119L2459.78 125.119L2460.02 124.68ZM2444.02 108.68L2444.46 108.438L2444.46 108.438L2444.02 108.68ZM2443.86 60.04L2443.42 59.7977L2443.42 59.8029L2443.86 60.04ZM2459.86 44.04L2460.1 44.4787L2460.1 44.4787L2459.86 44.04ZM2506.42 43.88L2506.18 44.32L2506.18 44.32L2506.42 43.88ZM2522.1 59.4L2521.66 59.6428L2521.67 59.6481L2522.1 59.4ZM2499.86 75.72V76.22H2500.36V75.72H2499.86ZM2495.06 64.52L2495.39 64.1422L2495.39 64.1422L2495.06 64.52ZM2471.38 64.36L2471.06 63.9758L2471.05 63.9813L2471.38 64.36ZM2465.62 75.72L2465.13 75.6448L2465.04 76.22H2465.62V75.72ZM2527.36 82.92C2527.36 85.4592 2527.2 88.1067 2526.88 90.8627L2527.88 90.9773C2528.2 88.1866 2528.36 85.5008 2528.36 82.92H2527.36ZM2527.38 90.42H2465.46V91.42H2527.38V90.42ZM2464.96 90.9583C2465.4 96.5903 2467.19 100.985 2470.39 104.08L2471.09 103.36C2468.11 100.481 2466.38 96.3431 2465.96 90.8817L2464.96 90.9583ZM2470.41 104.092C2473.7 107.06 2477.72 108.54 2482.42 108.54V107.54C2477.95 107.54 2474.18 106.14 2471.08 103.348L2470.41 104.092ZM2482.42 108.54C2485.91 108.54 2488.89 107.805 2491.36 106.307C2493.83 104.809 2495.75 102.567 2497.11 99.6101L2496.21 99.1899C2494.91 101.993 2493.12 104.071 2490.84 105.453C2488.56 106.835 2485.76 107.54 2482.42 107.54V108.54ZM2496.66 99.9H2525.78V98.9H2496.66V99.9ZM2525.3 99.2767C2523.82 105.069 2521.14 110.282 2517.24 114.918L2518 115.562C2522 110.812 2524.75 105.464 2526.27 99.5233L2525.3 99.2767ZM2517.23 114.923C2513.45 119.554 2508.66 123.188 2502.85 125.825L2503.27 126.735C2509.2 124.039 2514.12 120.313 2518.01 115.557L2517.23 114.923ZM2502.85 125.825C2497.06 128.458 2490.57 129.78 2483.38 129.78V130.78C2490.7 130.78 2497.33 129.435 2503.27 126.735L2502.85 125.825ZM2483.38 129.78C2474.71 129.78 2467.01 127.93 2460.26 124.241L2459.78 125.119C2466.69 128.897 2474.56 130.78 2483.38 130.78V129.78ZM2460.26 124.241C2453.52 120.554 2448.25 115.29 2444.46 108.438L2443.58 108.922C2447.47 115.937 2452.87 121.339 2459.78 125.119L2460.26 124.241ZM2444.46 108.438C2440.67 101.59 2438.76 93.5698 2438.76 84.36H2437.76C2437.76 93.7102 2439.7 101.903 2443.58 108.922L2444.46 108.438ZM2438.76 84.36C2438.76 75.148 2440.61 67.1255 2444.3 60.277L2443.42 59.8029C2439.64 66.8211 2437.76 75.012 2437.76 84.36H2438.76ZM2444.3 60.2822C2448.09 53.4301 2453.36 48.1657 2460.1 44.4787L2459.62 43.6013C2452.71 47.381 2447.31 52.7832 2443.42 59.7977L2444.3 60.2822ZM2460.1 44.4787C2466.84 40.7908 2474.6 38.94 2483.38 38.94V37.94C2474.46 37.94 2466.53 39.8225 2459.62 43.6013L2460.1 44.4787ZM2483.38 38.94C2491.95 38.94 2499.55 40.7376 2506.18 44.32L2506.66 43.44C2499.86 39.769 2492.09 37.94 2483.38 37.94V38.94ZM2506.18 44.32C2512.82 47.901 2517.98 53.0057 2521.66 59.6428L2522.54 59.1572C2518.76 52.3543 2513.46 47.1123 2506.66 43.44L2506.18 44.32ZM2521.67 59.6481C2525.46 66.2813 2527.36 74.0331 2527.36 82.92H2528.36C2528.36 73.8869 2526.42 65.9587 2522.54 59.1519L2521.67 59.6481ZM2500.36 75.72C2500.36 70.8993 2498.71 67.0214 2495.39 64.1422L2494.73 64.8978C2497.81 67.5652 2499.36 71.154 2499.36 75.72H2500.36ZM2495.39 64.1422C2492.09 61.2795 2487.96 59.86 2483.06 59.86V60.86C2487.76 60.86 2491.64 62.2138 2494.73 64.8978L2495.39 64.1422ZM2483.06 59.86C2478.37 59.86 2474.36 61.2266 2471.06 63.9759L2471.7 64.7441C2474.8 62.16 2478.58 60.86 2483.06 60.86V59.86ZM2471.05 63.9813C2467.85 66.7417 2465.89 70.6466 2465.13 75.6448L2466.12 75.7952C2466.85 70.98 2468.72 67.3116 2471.71 64.7387L2471.05 63.9813ZM2465.62 76.22H2499.86V75.22H2465.62V76.22ZM2542.46 60.04L2542.02 59.7977L2542.01 59.8029L2542.46 60.04ZM2558.3 44.04L2558.06 43.6013L2558.05 43.6029L2558.3 44.04ZM2609.66 47.24L2609.35 47.6332L2609.35 47.6353L2609.66 47.24ZM2624.54 72.04V72.54H2625.16L2625.02 71.9326L2624.54 72.04ZM2595.42 72.04L2594.94 72.2091L2595.06 72.54H2595.42V72.04ZM2569.18 67.72L2569.57 68.027L2569.57 68.0217L2569.18 67.72ZM2569.18 101.16L2568.78 101.462L2568.78 101.467L2569.18 101.16ZM2595.42 96.68V96.18H2595.06L2594.94 96.5109L2595.42 96.68ZM2624.54 96.68L2625.02 96.7895L2625.16 96.18H2624.54V96.68ZM2609.66 121.32L2609.35 120.927L2609.35 120.927L2609.66 121.32ZM2558.3 124.68L2558.05 125.117L2558.06 125.119L2558.3 124.68ZM2542.46 108.68L2542.01 108.917L2542.02 108.922L2542.46 108.68ZM2537.36 84.36C2537.36 75.148 2539.21 67.1255 2542.9 60.277L2542.01 59.8029C2538.24 66.8211 2536.36 75.012 2536.36 84.36H2537.36ZM2542.89 60.2822C2546.69 53.4281 2551.9 48.1635 2558.54 44.4771L2558.05 43.6029C2551.25 47.3832 2545.9 52.7852 2542.02 59.7977L2542.89 60.2822ZM2558.53 44.4787C2565.28 40.7904 2572.98 38.94 2581.66 38.94V37.94C2572.84 37.94 2564.96 39.823 2558.06 43.6013L2558.53 44.4787ZM2581.66 38.94C2592.76 38.94 2601.98 41.8476 2609.35 47.6332L2609.96 46.8468C2602.39 40.8991 2592.95 37.94 2581.66 37.94V38.94ZM2609.35 47.6353C2616.82 53.4203 2621.72 61.5781 2624.05 72.1474L2625.02 71.9326C2622.66 61.1685 2617.64 52.793 2609.96 46.8447L2609.35 47.6353ZM2624.54 71.54H2595.42V72.54H2624.54V71.54ZM2595.89 71.8709C2594.63 68.3855 2592.78 65.7326 2590.31 63.9541C2587.83 62.1746 2584.78 61.3 2581.18 61.3V62.3C2584.61 62.3 2587.45 63.1321 2589.72 64.7659C2592 66.4007 2593.74 68.8679 2594.94 72.2091L2595.89 71.8709ZM2581.18 61.3C2576.01 61.3 2571.86 63.3448 2568.78 67.4183L2569.57 68.0217C2572.46 64.2018 2576.32 62.3 2581.18 62.3V61.3ZM2568.78 67.413C2565.7 71.3746 2564.2 77.0477 2564.2 84.36H2565.2C2565.2 77.1656 2566.68 71.7454 2569.57 68.027L2568.78 67.413ZM2564.2 84.36C2564.2 91.6736 2565.7 97.3961 2568.78 101.462L2569.57 100.858C2566.68 97.0306 2565.2 91.5531 2565.2 84.36H2564.2ZM2568.78 101.467C2571.87 105.433 2576.01 107.42 2581.18 107.42V106.42C2576.31 106.42 2572.46 104.567 2569.57 100.853L2568.78 101.467ZM2581.18 107.42C2584.78 107.42 2587.83 106.545 2590.31 104.766C2592.78 102.987 2594.63 100.335 2595.89 96.8491L2594.94 96.5109C2593.74 99.8521 2592 102.319 2589.72 103.954C2587.45 105.588 2584.61 106.42 2581.18 106.42V107.42ZM2595.42 97.18H2624.54V96.18H2595.42V97.18ZM2624.05 96.5705C2621.72 106.925 2616.82 115.033 2609.35 120.927L2609.96 121.713C2617.64 115.66 2622.65 107.342 2625.02 96.7895L2624.05 96.5705ZM2609.35 120.927C2601.87 126.821 2592.65 129.78 2581.66 129.78V130.78C2592.84 130.78 2602.29 127.766 2609.96 121.713L2609.35 120.927ZM2581.66 129.78C2572.98 129.78 2565.28 127.93 2558.53 124.241L2558.06 125.119C2564.96 128.897 2572.84 130.78 2581.66 130.78V129.78ZM2558.54 124.243C2551.9 120.557 2546.69 115.292 2542.89 108.438L2542.02 108.922C2545.9 115.935 2551.25 121.337 2558.05 125.117L2558.54 124.243ZM2542.9 108.443C2539.21 101.594 2537.36 93.572 2537.36 84.36H2536.36C2536.36 93.708 2538.24 101.899 2542.01 108.917L2542.9 108.443ZM2688.93 105.8H2689.43V105.3H2688.93V105.8ZM2688.93 129V129.5H2689.43V129H2688.93ZM2651.81 121.8L2651.48 122.175L2651.48 122.178L2651.81 121.8ZM2643.49 62.44H2643.99V61.94H2643.49V62.44ZM2632.61 62.44H2632.11V62.94H2632.61V62.44ZM2632.61 39.72V39.22H2632.11V39.72H2632.61ZM2643.49 39.72V40.22H2643.99V39.72H2643.49ZM2643.49 17.96V17.46H2642.99V17.96H2643.49ZM2670.85 17.96H2671.35V17.46H2670.85V17.96ZM2670.85 39.72H2670.35V40.22H2670.85V39.72ZM2688.77 39.72H2689.27V39.22H2688.77V39.72ZM2688.77 62.44V62.94H2689.27V62.44H2688.77ZM2670.85 62.44V61.94H2670.35V62.44H2670.85ZM2672.77 104.04L2672.43 104.409L2672.43 104.409L2672.77 104.04ZM2688.43 105.8V129H2689.43V105.8H2688.43ZM2688.93 128.5H2675.01V129.5H2688.93V128.5ZM2675.01 128.5C2665.17 128.5 2657.57 126.119 2652.14 121.422L2651.48 122.178C2657.15 127.081 2665.01 129.5 2675.01 129.5V128.5ZM2652.14 121.426C2646.75 116.652 2643.99 108.874 2643.99 97.96H2642.99C2642.99 109.02 2645.78 117.135 2651.48 122.174L2652.14 121.426ZM2643.99 97.96V62.44H2642.99V97.96H2643.99ZM2643.49 61.94H2632.61V62.94H2643.49V61.94ZM2633.11 62.44V39.72H2632.11V62.44H2633.11ZM2632.61 40.22H2643.49V39.22H2632.61V40.22ZM2643.99 39.72V17.96H2642.99V39.72H2643.99ZM2643.49 18.46H2670.85V17.46H2643.49V18.46ZM2670.35 17.96V39.72H2671.35V17.96H2670.35ZM2670.85 40.22H2688.77V39.22H2670.85V40.22ZM2688.27 39.72V62.44H2689.27V39.72H2688.27ZM2688.77 61.94H2670.85V62.94H2688.77V61.94ZM2670.35 62.44V98.28H2671.35V62.44H2670.35ZM2670.35 98.28C2670.35 101.012 2671 103.1 2672.43 104.409L2673.11 103.671C2671.98 102.634 2671.35 100.881 2671.35 98.28H2670.35ZM2672.43 104.409C2673.85 105.709 2676.14 106.3 2679.17 106.3V105.3C2676.23 105.3 2674.25 104.717 2673.11 103.671L2672.43 104.409ZM2679.17 106.3H2688.93V105.3H2679.17V106.3ZM2787.85 90.92V91.42H2788.3L2788.35 90.9773L2787.85 90.92ZM2725.93 90.92V90.42H2725.39L2725.43 90.9583L2725.93 90.92ZM2731.21 103.72L2730.86 104.08L2730.87 104.086L2730.88 104.092L2731.21 103.72ZM2757.13 99.4V98.9H2756.81L2756.68 99.1899L2757.13 99.4ZM2786.25 99.4L2786.73 99.5233L2786.89 98.9H2786.25V99.4ZM2778.09 115.24L2777.71 114.918L2777.7 114.923L2778.09 115.24ZM2763.53 126.28L2763.74 126.735L2763.53 126.28ZM2720.49 124.68L2720.25 125.119L2720.25 125.119L2720.49 124.68ZM2704.49 108.68L2704.93 108.438L2704.93 108.438L2704.49 108.68ZM2704.33 60.04L2703.89 59.7977L2703.89 59.8029L2704.33 60.04ZM2720.33 44.04L2720.57 44.4787L2720.57 44.4787L2720.33 44.04ZM2766.89 43.88L2766.65 44.32L2766.65 44.32L2766.89 43.88ZM2782.57 59.4L2782.13 59.6428L2782.14 59.6481L2782.57 59.4ZM2760.33 75.72V76.22H2760.83V75.72H2760.33ZM2755.53 64.52L2755.86 64.1422L2755.86 64.1422L2755.53 64.52ZM2731.85 64.36L2731.53 63.9758L2731.52 63.9813L2731.85 64.36ZM2726.09 75.72L2725.6 75.6448L2725.51 76.22H2726.09V75.72ZM2787.83 82.92C2787.83 85.4592 2787.67 88.1067 2787.35 90.8627L2788.35 90.9773C2788.67 88.1866 2788.83 85.5008 2788.83 82.92H2787.83ZM2787.85 90.42H2725.93V91.42H2787.85V90.42ZM2725.43 90.9583C2725.86 96.5903 2727.66 100.985 2730.86 104.08L2731.56 103.36C2728.58 100.481 2726.85 96.3431 2726.43 90.8817L2725.43 90.9583ZM2730.88 104.092C2734.17 107.06 2738.19 108.54 2742.89 108.54V107.54C2738.42 107.54 2734.65 106.14 2731.54 103.348L2730.88 104.092ZM2742.89 108.54C2746.37 108.54 2749.36 107.805 2751.83 106.307C2754.3 104.809 2756.21 102.567 2757.58 99.6101L2756.68 99.1899C2755.38 101.993 2753.59 104.071 2751.31 105.453C2749.03 106.835 2746.23 107.54 2742.89 107.54V108.54ZM2757.13 99.9H2786.25V98.9H2757.13V99.9ZM2785.77 99.2767C2784.29 105.069 2781.61 110.282 2777.71 114.918L2778.47 115.562C2782.47 110.812 2785.22 105.464 2786.73 99.5233L2785.77 99.2767ZM2777.7 114.923C2773.91 119.554 2769.12 123.188 2763.32 125.825L2763.74 126.735C2769.67 124.039 2774.59 120.313 2778.48 115.557L2777.7 114.923ZM2763.32 125.825C2757.53 128.458 2751.04 129.78 2743.85 129.78V130.78C2751.17 130.78 2757.8 129.435 2763.74 126.735L2763.32 125.825ZM2743.85 129.78C2735.18 129.78 2727.47 127.93 2720.73 124.241L2720.25 125.119C2727.16 128.897 2735.03 130.78 2743.85 130.78V129.78ZM2720.73 124.241C2713.99 120.554 2708.72 115.29 2704.93 108.438L2704.05 108.922C2707.94 115.937 2713.34 121.339 2720.25 125.119L2720.73 124.241ZM2704.93 108.438C2701.13 101.59 2699.23 93.5698 2699.23 84.36H2698.23C2698.23 93.7102 2700.17 101.903 2704.05 108.922L2704.93 108.438ZM2699.23 84.36C2699.23 75.148 2701.08 67.1255 2704.77 60.277L2703.89 59.8029C2700.11 66.8211 2698.23 75.012 2698.23 84.36H2699.23ZM2704.77 60.2822C2708.56 53.4301 2713.83 48.1657 2720.57 44.4787L2720.09 43.6013C2713.18 47.381 2707.78 52.7832 2703.89 59.7977L2704.77 60.2822ZM2720.57 44.4787C2727.31 40.7908 2735.07 38.94 2743.85 38.94V37.94C2734.92 37.94 2727 39.8225 2720.09 43.6013L2720.57 44.4787ZM2743.85 38.94C2752.42 38.94 2760.01 40.7376 2766.65 44.32L2767.13 43.44C2760.33 39.769 2752.56 37.94 2743.85 37.94V38.94ZM2766.65 44.32C2773.29 47.901 2778.45 53.0057 2782.13 59.6428L2783.01 59.1572C2779.23 52.3543 2773.93 47.1123 2767.13 43.44L2766.65 44.32ZM2782.14 59.6481C2785.93 66.2813 2787.83 74.0331 2787.83 82.92H2788.83C2788.83 73.8869 2786.89 65.9587 2783 59.1519L2782.14 59.6481ZM2760.83 75.72C2760.83 70.8993 2759.18 67.0214 2755.86 64.1422L2755.2 64.8978C2758.28 67.5652 2759.83 71.154 2759.83 75.72H2760.83ZM2755.86 64.1422C2752.55 61.2795 2748.43 59.86 2743.53 59.86V60.86C2748.23 60.86 2752.11 62.2138 2755.2 64.8978L2755.86 64.1422ZM2743.53 59.86C2738.84 59.86 2734.83 61.2266 2731.53 63.9759L2732.17 64.7441C2735.27 62.16 2739.05 60.86 2743.53 60.86V59.86ZM2731.52 63.9813C2728.32 66.7417 2726.36 70.6466 2725.6 75.6448L2726.58 75.7952C2727.32 70.98 2729.19 67.3116 2732.18 64.7387L2731.52 63.9813ZM2726.09 76.22H2760.33V75.22H2726.09V76.22ZM2802.44 60.04L2802 59.8136L2802 59.8192L2802.44 60.04ZM2816.68 44.04L2816.95 44.464L2816.95 44.464L2816.68 44.04ZM2852.68 42.12L2852.46 42.5652L2852.46 42.5672L2852.68 42.12ZM2864.2 52.04L2863.79 52.3173L2864.7 53.6914V52.04H2864.2ZM2864.2 10.6V10.1H2863.7V10.6H2864.2ZM2891.56 10.6H2892.06V10.1H2891.56V10.6ZM2891.56 129V129.5H2892.06V129H2891.56ZM2864.2 129H2863.7V129.5H2864.2V129ZM2864.2 116.2H2864.7V114.395L2863.78 115.943L2864.2 116.2ZM2853.16 126.44L2852.93 125.999L2852.92 126.001L2853.16 126.44ZM2816.68 124.68L2816.41 125.101L2816.42 125.104L2816.68 124.68ZM2802.44 108.52L2801.99 108.738L2802 108.746L2802.44 108.52ZM2858.44 68.2L2858.08 68.5436L2858.09 68.5487L2858.44 68.2ZM2830.76 68.2L2830.41 67.8513L2830.41 67.8515L2830.76 68.2ZM2830.76 100.52L2830.4 100.859L2830.41 100.869L2830.76 100.52ZM2858.44 100.52L2858.09 100.171L2858.08 100.176L2858.44 100.52ZM2797.82 84.2C2797.82 75.089 2799.52 67.1138 2802.89 60.2608L2802 59.8192C2798.54 66.8329 2796.82 74.9643 2796.82 84.2H2797.82ZM2802.89 60.2663C2806.37 53.4054 2811.06 48.1442 2816.95 44.464L2816.42 43.616C2810.36 47.4024 2805.55 52.8079 2802 59.8136L2802.89 60.2663ZM2816.95 44.464C2822.84 40.7826 2829.41 38.94 2836.68 38.94V37.94C2829.23 37.94 2822.48 39.8307 2816.42 43.616L2816.95 44.464ZM2836.68 38.94C2842.48 38.94 2847.73 40.151 2852.46 42.5652L2852.91 41.6748C2848.03 39.1823 2842.62 37.94 2836.68 37.94V38.94ZM2852.46 42.5672C2857.3 44.9855 2861.07 48.2366 2863.79 52.3173L2864.62 51.7626C2861.79 47.5233 2857.88 44.1611 2852.91 41.6728L2852.46 42.5672ZM2864.7 52.04V10.6H2863.7V52.04H2864.7ZM2864.2 11.1H2891.56V10.1H2864.2V11.1ZM2891.06 10.6V129H2892.06V10.6H2891.06ZM2891.56 128.5H2864.2V129.5H2891.56V128.5ZM2864.7 129V116.2H2863.7V129H2864.7ZM2863.78 115.943C2861.27 120.125 2857.66 123.477 2852.93 125.999L2853.4 126.881C2858.27 124.283 2862.02 120.809 2864.63 116.457L2863.78 115.943ZM2852.92 126.001C2848.32 128.514 2842.91 129.78 2836.68 129.78V130.78C2843.05 130.78 2848.62 129.486 2853.4 126.879L2852.92 126.001ZM2836.68 129.78C2829.41 129.78 2822.84 127.937 2816.95 124.256L2816.42 125.104C2822.48 128.889 2829.23 130.78 2836.68 130.78V129.78ZM2816.95 124.259C2811.06 120.472 2806.37 115.156 2802.89 108.294L2802 108.746C2805.55 115.751 2810.36 121.208 2816.41 125.101L2816.95 124.259ZM2802.89 108.302C2799.52 101.341 2797.82 93.3107 2797.82 84.2H2796.82C2796.82 93.4359 2798.54 101.619 2801.99 108.738L2802.89 108.302ZM2864.7 84.36C2864.7 77.436 2862.75 71.9125 2858.8 67.8513L2858.09 68.5487C2861.81 72.3808 2863.7 77.6306 2863.7 84.36H2864.7ZM2858.81 67.8564C2854.98 63.8097 2850.26 61.78 2844.68 61.78V62.78C2849.99 62.78 2854.44 64.6969 2858.08 68.5436L2858.81 67.8564ZM2844.68 61.78C2839.11 61.78 2834.34 63.8092 2830.41 67.8513L2831.12 68.5487C2834.87 64.6974 2839.38 62.78 2844.68 62.78V61.78ZM2830.41 67.8515C2826.56 71.8085 2824.66 77.2805 2824.66 84.2H2825.66C2825.66 77.4661 2827.5 72.2715 2831.12 68.5485L2830.41 67.8515ZM2824.66 84.2C2824.66 91.1208 2826.56 96.6924 2830.4 100.859L2831.13 100.181C2827.5 96.241 2825.66 90.9325 2825.66 84.2H2824.66ZM2830.41 100.869C2834.34 104.911 2839.11 106.94 2844.68 106.94V105.94C2839.38 105.94 2834.87 104.023 2831.12 100.171L2830.41 100.869ZM2844.68 106.94C2850.26 106.94 2854.98 104.91 2858.81 100.864L2858.08 100.176C2854.44 104.023 2849.99 105.94 2844.68 105.94V106.94ZM2858.8 100.869C2862.75 96.8075 2864.7 91.284 2864.7 84.36H2863.7C2863.7 91.0894 2861.81 96.3392 2858.09 100.171L2858.8 100.869ZM2912.32 126.12L2911.97 126.48L2911.98 126.486L2911.98 126.492L2912.32 126.12ZM2912.32 104.84L2911.98 104.474L2911.97 104.48L2912.32 104.84ZM2935.68 104.84L2935.33 105.2L2935.34 105.206L2935.68 104.84ZM2935.68 126.12L2936.02 126.486L2936.02 126.486L2935.68 126.12ZM2924.16 129.78C2919.46 129.78 2915.64 128.426 2912.65 125.748L2911.98 126.492C2915.18 129.361 2919.25 130.78 2924.16 130.78V129.78ZM2912.66 125.76C2909.78 122.975 2908.34 119.585 2908.34 115.56H2907.34C2907.34 119.855 2908.89 123.505 2911.97 126.48L2912.66 125.76ZM2908.34 115.56C2908.34 111.425 2909.78 107.983 2912.66 105.2L2911.97 104.48C2908.88 107.457 2907.34 111.162 2907.34 115.56H2908.34ZM2912.66 105.206C2915.65 102.424 2919.47 101.02 2924.16 101.02V100.02C2919.25 100.02 2915.18 101.496 2911.98 104.474L2912.66 105.206ZM2924.16 101.02C2928.74 101.02 2932.45 102.422 2935.33 105.2L2936.02 104.48C2932.93 101.498 2928.96 100.02 2924.16 100.02V101.02ZM2935.34 105.206C2938.33 107.99 2939.82 111.431 2939.82 115.56H2940.82C2940.82 111.156 2939.21 107.45 2936.02 104.474L2935.34 105.206ZM2939.82 115.56C2939.82 119.579 2938.33 122.967 2935.34 125.754L2936.02 126.486C2939.21 123.513 2940.82 119.861 2940.82 115.56H2939.82ZM2935.34 125.754C2932.46 128.428 2928.75 129.78 2924.16 129.78V130.78C2928.96 130.78 2932.92 129.359 2936.02 126.486L2935.34 125.754Z" fill="url(#paint0_linear_405_500)"/>
<defs>
<linearGradient id="paint0_linear_405_500" x1="2426.59" y1="-11.7059" x2="2397.95" y2="321.14" gradientUnits="userSpaceOnUse">
<stop stop-color="#1E365B"/>
<stop offset="1" stop-color="#F8E8D5"/>
</linearGradient>
</defs>
</svg>
